SplineFontDB: 3.2
FontName: DugiBialan
FullName: DugiBialan
FamilyName: DugiBialan
Weight: Regular
Copyright: Copyright (c) 2023, Matthew Stoodley
UComments: "2023-4-21: Created with FontForge (http://fontforge.org)+AAoACgAA-A font primarily for Tugi Balain, a simplistic language of Balance.+AAoACgAA-Chars should start at u+-E100+AAoACgAA-words at u+-e130+AAoA"
Version: 001.000
ItalicAngle: 0
UnderlinePosition: -100
UnderlineWidth: 50
Ascent: 800
Descent: 200
InvalidEm: 0
LayerCount: 2
Layer: 0 0 "Back" 1
Layer: 1 0 "Fore" 0
XUID: [1021 281 1886307050 7559614]
StyleMap: 0x0000
FSType: 0
OS2Version: 0
OS2_WeightWidthSlopeOnly: 0
OS2_UseTypoMetrics: 1
CreationTime: 1682106083
ModificationTime: 1723059935
OS2TypoAscent: 0
OS2TypoAOffset: 1
OS2TypoDescent: 0
OS2TypoDOffset: 1
OS2TypoLinegap: 90
OS2WinAscent: 0
OS2WinAOffset: 1
OS2WinDescent: 0
OS2WinDOffset: 1
HheadAscent: 0
HheadAOffset: 1
HheadDescent: 0
HheadDOffset: 1
Lookup: 4 0 0 "'liga' Standard Ligatures lookup 0" { "'liga' Standard Ligatures lookup benon-benon"  } ['liga' ('DFLT' <'dflt' > ) ]
MarkAttachClasses: 1
DEI: 91125
Encoding: Custom
UnicodeInterp: none
NameList: AGL For New Fonts
DisplaySize: -72
AntiAlias: 1
FitToEm: 0
WinInfo: 57680 16 8
BeginPrivate: 0
EndPrivate
BeginChars: 1114137 250

StartChar: is
Encoding: 57632 57632 0
Width: 500
Flags: W
LayerCount: 2
Fore
SplineSet
488.473632812 664.560546875 m 0
 488.473632812 773.930664062 398.59375 828.358398438 309.743164062 766.076171875 c 0
 280.137695312 745.323242188 252.084960938 713.34375 225.393554688 668.916015625 c 0
 171.338867188 578.942382812 26.7724609375 407.370117188 26.7724609375 407.370117188 c 2
 4.876953125 381.481445312 23.44140625 341.5625 57.32421875 341.5625 c 0
 69.5693359375 341.5625 80.5361328125 347.076171875 87.8759765625 355.754882812 c 0
 88.580078125 356.586914062 233.557617188 527.162109375 294.020507812 627.802734375 c 0
 316.6640625 665.494140625 338.526367188 688.564453125 355.586914062 700.5234375 c 0
 369.3125 710.14453125 379.331054688 712.3203125 384.564453125 712.3203125 c 0
 415.0546875 712.3203125 431.150390625 618.69140625 339.372070312 511.661132812 c 0
 317.215820312 485.822265625 335.740234375 445.64453125 369.74609375 445.64453125 c 0
 381.892578125 445.64453125 392.782226562 451.0703125 400.120117188 459.627929688 c 0
 461.284179688 530.956054688 488.473632812 603.481445312 488.473632812 664.560546875 c 0
EndSplineSet
Validated: 41
EndChar

StartChar: megi
Encoding: 57634 57634 1
Width: 500
Flags: W
HStem: 180.996 80<25.8632 61.373 61.6429 469.017> 437.735 79.998<132.725 168.573 335.528 370.924> 703.008 80<51.7232 87.3682 418.96 454.605>
VStem: 221.085 79.9893<533.923 762.877>
LayerCount: 2
Fore
SplineSet
261.07421875 780.80078125 m 0
 239.313476562 780.80078125 221.587890625 763.385742188 221.084960938 741.745117188 c 0
 209.00390625 221.3125 209.00390625 221.3125 209.00390625 220.83984375 c 0
 209.00390625 198.763671875 226.927734375 180.83984375 249.00390625 180.83984375 c 0
 270.764648438 180.83984375 288.490234375 198.254882812 288.993164062 219.895507812 c 2
 288.993164062 219.895507812 301.063476562 739.856445312 301.07421875 740.80078125 c 0
 301.07421875 762.876953125 283.150390625 780.80078125 261.07421875 780.80078125 c 0
458.984375 743.203125 m 0
 458.984375 765.279296875 441.060546875 783.215820312 418.959960938 783.203125 c 0
 87.3193359375 783.0078125 87.3193359375 783.0078125 87.3193359375 783.0078125 c 2
 65.25390625 782.995117188 47.34375 765.076171875 47.34375 743.0078125 c 0
 47.34375 720.931640625 65.267578125 702.995117188 87.3681640625 703.0078125 c 0
 419.008789062 703.203125 419.008789062 703.203125 419.008789062 703.203125 c 2
 441.07421875 703.203125 458.984375 721.134765625 458.984375 743.203125 c 0
375.76171875 478.69140625 m 0
 375.76171875 500.767578125 357.837890625 518.69140625 335.528320312 518.690429688 c 2
 168.106445312 517.733398438 l 2
 146.137695312 517.608398438 128.33984375 499.733398438 128.33984375 477.734375 c 0
 128.33984375 455.658203125 146.263671875 437.734375 168.573242188 437.735351562 c 2
 335.995117188 438.692382812 l 2
 357.963867188 438.817382812 375.76171875 456.692382812 375.76171875 478.69140625 c 0
473.84765625 219.98046875 m 0
 473.84765625 242.01953125 455.984375 259.919921875 433.958984375 259.98046875 c 0
 61.5400390625 260.99609375 61.5400390625 260.99609375 61.484375 260.99609375 c 0
 39.408203125 260.99609375 21.484375 243.072265625 21.484375 220.99609375 c 0
 21.484375 198.95703125 39.34765625 181.056640625 61.373046875 180.99609375 c 2
 61.373046875 180.99609375 433.736328125 179.98046875 433.84765625 179.98046875 c 0
 455.923828125 179.98046875 473.84765625 197.904296875 473.84765625 219.98046875 c 0
EndSplineSet
Validated: 37
EndChar

StartChar: uniE13A
Encoding: 57658 57658 2
Width: 1000
Flags: W
HStem: 546.238 79.2627<636.029 836.674> 558.093 80.7158<183.605 383.106>
VStem: 96.5039 79.9893<207.867 487.148> 832.09 79.9951<213.48 546.238>
LayerCount: 2
Fore
SplineSet
136.50390625 203.1640625 m 0x70
 158.274414062 203.1640625 176.005859375 220.59375 176.493164062 242.248046875 c 2
 183.60546875 558.092773438 l 1x70
 836.673828125 546.23828125 l 1
 832.08984375 249.416015625 832.08984375 249.416015625 832.08984375 249.1015625 c 0
 832.08984375 227.025390625 850.013671875 209.1015625 872.08984375 209.1015625 c 0
 893.956054688 209.1015625 911.748046875 226.685546875 912.084960938 248.47265625 c 0
 917.28515625 585.193359375 917.28515625 585.193359375 917.28515625 585.5078125 c 0
 917.28515625 607.337890625 899.759765625 625.106445312 878.024414062 625.500976562 c 0xb0
 144.881835938 638.80859375 144.881835938 638.80859375 144.51171875 638.80859375 c 0
 122.741210938 638.80859375 105.009765625 621.37890625 104.522460938 599.724609375 c 2
 104.522460938 599.724609375 96.5146484375 244.080078125 96.50390625 243.1640625 c 0
 96.50390625 221.087890625 114.427734375 203.1640625 136.50390625 203.1640625 c 0x70
569.173828125 511.2109375 m 2
 579.381835938 537.265625 560.116210938 565.78125 531.9140625 565.78125 c 0
 514.977539062 565.78125 500.484375 555.232421875 494.654296875 540.3515625 c 2
 372.955078125 229.7265625 l 2
 362.907226562 204.080078125 381.41796875 175.9453125 409.078125 175.171875 c 2
 533.756835938 171.685546875 l 1
 424.23828125 -60.90625 l 2
 411.838867188 -87.2392578125 431.120117188 -117.91015625 460.44921875 -117.91015625 c 0
 476.447265625 -117.91015625 490.263671875 -108.498046875 496.66015625 -94.9140625 c 2
 632.20703125 192.95703125 l 2
 644.416015625 218.885742188 625.912109375 249.140625 597.1328125 249.9453125 c 2
 468.224609375 253.549804688 l 1
 569.173828125 511.2109375 l 2
EndSplineSet
Validated: 37
EndChar

StartChar: uniE13C
Encoding: 57660 57660 3
Width: 1000
Flags: W
HStem: 444.895 80<374.747 642.689>
VStem: 466.018 79.9961<-169.829 -133.799 375.186 407.626>
LayerCount: 2
Fore
SplineSet
113.706054688 709.706054688 m 0
 88.30859375 733.794921875 46.19140625 715.606445312 46.19140625 680.68359375 c 0
 46.19140625 669.262695312 50.98828125 658.952148438 58.6767578125 651.661132812 c 0
 203.40234375 514.396484375 356.546875 444.89453125 509.712890625 444.89453125 c 0
 659.350585938 444.89453125 803.264648438 511.25 933.489257812 632.456054688 c 0
 960.001953125 657.133789062 942.337890625 701.73828125 906.25 701.73828125 c 0
 895.73046875 701.73828125 886.154296875 697.668945312 879.010742188 691.020507812 c 0
 759.467773438 579.755859375 634.626953125 524.89453125 509.712890625 524.89453125 c 0
 381.891601562 524.89453125 247.9765625 582.358398438 113.706054688 709.706054688 c 0
500.76171875 415.60546875 m 0
 478.685546875 415.60546875 460.76171875 397.681640625 460.763671875 375.185546875 c 2
 466.017578125 -134.638671875 l 2
 466.243164062 -156.522460938 484.079101562 -174.21875 506.015625 -174.21875 c 0
 528.091796875 -174.21875 546.015625 -156.294921875 546.013671875 -133.798828125 c 2
 540.759765625 376.025390625 l 2
 540.534179688 397.909179688 522.698242188 415.60546875 500.76171875 415.60546875 c 0
EndSplineSet
Validated: 41
EndChar

StartChar: uniE13F
Encoding: 57663 57663 4
Width: 1000
Flags: W
LayerCount: 2
Fore
SplineSet
581.182617188 668.907226562 m 2
 591.696289062 695.009765625 572.42578125 723.828125 544.0625 723.828125 c 0
 527.258789062 723.828125 512.861328125 713.444335938 506.942382812 698.749023438 c 2
 346.473632812 300.350585938 l 2
 336.120117188 274.64453125 354.654296875 246.201171875 382.48828125 245.444335938 c 2
 565.571289062 240.466796875 l 1
 413.817382812 -73.0595703125 l 2
 401.055664062 -99.42578125 420.333007812 -130.44921875 449.84375 -130.44921875 c 0
 465.689453125 -130.44921875 479.396484375 -121.21484375 485.870117188 -107.838867188 c 2
 664.581054688 261.379882812 l 2
 677.153320312 287.352539062 658.635742188 317.966796875 629.66015625 318.754882812 c 2
 442.19921875 323.8515625 l 1
 581.182617188 668.907226562 l 2
EndSplineSet
Validated: 41
EndChar

StartChar: uniE140
Encoding: 57664 57664 5
Width: 1000
HStem: -153.228 79.9707<394.173 430.574> 350.162 80<355.177 488.727>
VStem: 649.513 79.999<-67.4707 686.402>
LayerCount: 2
Fore
SplineSet
425.18359375 430.162109375 m 0
 298.588867188 430.162109375 186.604492188 321.745117188 274.90625 166.034179688 c 0
 281.78125 153.91015625 294.805664062 145.72265625 309.7265625 145.72265625 c 0
 340.344726562 145.72265625 359.561523438 178.93359375 344.546875 205.411132812 c 0
 281.333984375 316.879882812 375.27734375 350.162109375 425.18359375 350.162109375 c 0
 441.766601562 350.162109375 506.590820312 346.278320312 506.590820312 285.546875 c 0
 506.590820312 266.6875 500.245117188 239.4921875 481.34765625 204.352539062 c 0
 467.120117188 177.896484375 486.3671875 145.44921875 516.6015625 145.44921875 c 0
 531.842773438 145.44921875 545.104492188 153.991210938 551.85546875 166.545898438 c 0
 641.916992188 334.015625 541.561523438 430.162109375 425.18359375 430.162109375 c 0
689.51171875 690.78125 m 0
 667.502929688 690.78125 649.622070312 672.967773438 649.512695312 650.985351562 c 2
 645.916992188 -67.470703125 l 1
 428.41015625 -73.2568359375 l 2
 406.833007812 -73.8310546875 389.4921875 -91.52734375 389.4921875 -113.2421875 c 0
 389.4921875 -135.6953125 408.025390625 -153.828125 430.57421875 -153.227539062 c 2
 686.8046875 -146.411132812 l 2
 708.314453125 -145.838867188 725.614257812 -128.250976562 725.721679688 -106.629882812 c 2
 725.721679688 -106.629882812 729.510742188 650.577148438 729.51171875 650.78125 c 0
 729.51171875 672.857421875 711.587890625 690.78125 689.51171875 690.78125 c 0
EndSplineSet
Validated: 41
EndChar

StartChar: uniE142
Encoding: 57666 57666 6
Width: 1000
VStem: 472 79.9922<325.904 614.163>
LayerCount: 2
Fore
SplineSet
511.9921875 620.46875 m 0
 490.189453125 620.46875 472.4375 602.987304688 472 581.288085938 c 2
 466.861328125 325.904296875 l 1
 204.47265625 216.630859375 l 2
 190.005859375 210.606445312 179.82421875 196.326171875 179.82421875 179.6875 c 0
 179.82421875 151.126953125 209.017578125 131.850585938 235.17578125 142.744140625 c 2
 521.6796875 262.060546875 l 2
 535.909179688 267.986328125 545.9921875 281.897460938 546.3203125 298.184570312 c 2
 546.3203125 298.184570312 551.984375 579.649414062 551.9921875 580.46875 c 0
 551.9921875 602.544921875 534.068359375 620.46875 511.9921875 620.46875 c 0
514.055664062 694.987304688 m 0
 244.208007812 694.987304688 -37.5556640625 415.030273438 172.076171875 -69.6953125 c 0
 178.217773438 -83.8984375 192.360351562 -93.84765625 208.80859375 -93.84765625 c 0
 237.598632812 -93.84765625 256.879882812 -64.216796875 245.541015625 -38 c 0
 -7.64453125 547.438476562 530.405273438 755.588867188 724.479492188 519.671875 c 0
 749.439453125 489.330078125 873.13671875 336.782226562 718.754882812 -39.6728515625 c 0
 708.038085938 -65.8046875 727.3125 -94.82421875 755.78125 -94.82421875 c 0
 772.497070312 -94.82421875 786.831054688 -84.548828125 792.807617188 -69.9755859375 c 0
 1007.01757812 452.368164062 763.291992188 694.987304688 514.055664062 694.987304688 c 0
EndSplineSet
Validated: 37
EndChar

StartChar: uniE143
Encoding: 57667 57667 7
Width: 1000
HStem: 225.233 80.0156<429.851 587.273>
VStem: 312.231 79.9854<339.487 466.575>
LayerCount: 2
Fore
SplineSet
506.709960938 305.249023438 m 0
 446.329101562 305.249023438 392.216796875 337.27734375 392.216796875 392.260742188 c 0
 392.216796875 409.6640625 397.208984375 430.927734375 406.76953125 452.62890625 c 0
 439.268554688 526.40234375 509.931640625 581.9765625 543.55859375 577.439453125 c 0
 558.005859375 575.48828125 579.413085938 562.135742188 598.634765625 535.65625 c 0
 634.48828125 486.264648438 654.426757812 403.329101562 622.612304688 357.219726562 c 0
 601.110351562 326.045898438 555.018554688 305.249023438 506.709960938 305.249023438 c 0
718.56640625 416.581054688 m 0
 718.56640625 530.639648438 636.658203125 657.690429688 539.852539062 657.690429688 c 0
 436.571289062 657.690429688 312.231445312 511.76953125 312.231445312 392.260742188 c 0
 312.231445312 293.30078125 399.00390625 225.233398438 506.709960938 225.233398438 c 0
 603.75 225.233398438 718.56640625 281.939453125 718.56640625 416.581054688 c 0
426.272460938 473.944335938 m 0
 451.189453125 448.178710938 495.006835938 466.022460938 495.006835938 501.752929688 c 0
 495.006835938 512.553710938 490.71875 522.360351562 483.754882812 529.560546875 c 0
 449.291992188 565.198242188 378.77734375 632.455078125 287.823242188 717.837890625 c 0
 262.376953125 741.725585938 220.4765625 723.494140625 220.4765625 688.663085938 c 0
 220.4765625 677.163085938 225.336914062 666.7890625 233.114257812 659.48828125 c 0
 323.607421875 574.5390625 394.348632812 506.956054688 426.272460938 473.944335938 c 0
46.171875 -106.58203125 m 0
 46.171875 -136.37890625 77.7548828125 -155.647460938 104.1640625 -142.310546875 c 2
 923.890625 271.654296875 l 2
 936.940429688 278.244140625 945.8984375 291.775390625 945.8984375 307.3828125 c 0
 945.8984375 337.1796875 914.315429688 356.448242188 887.90625 343.111328125 c 2
 68.1796875 -70.853515625 l 2
 55.1298828125 -77.443359375 46.171875 -90.974609375 46.171875 -106.58203125 c 0
86.1806640625 -106.576171875 m 1
 905.8984375 307.387695312 l 1025
883.944335938 -153.333984375 m 2
 910.373046875 -166.989257812 942.265625 -147.727539062 942.265625 -117.7734375 c 0
 942.265625 -102.297851562 933.458007812 -88.86328125 920.586914062 -82.212890625 c 2
 132.715820312 324.876953125 l 2
 106.287109375 338.532226562 74.39453125 319.270507812 74.39453125 289.31640625 c 0
 74.39453125 273.840820312 83.2021484375 260.40625 96.0732421875 253.755859375 c 2
 883.944335938 -153.333984375 l 2
902.263671875 -117.779296875 m 1
 114.395507812 289.31640625 l 1025
EndSplineSet
Validated: 43
EndChar

StartChar: uniE144
Encoding: 57668 57668 8
Width: 1000
HStem: 555.859 80<501.293 536.914> 671.445 80<623.305 658.926>
VStem: 325.764 79.9961<-140.2 -104.168 260.984 294.549> 719.961 80<-148.432 -112.755> 841.973 80<-32.8462 2.83105>
LayerCount: 2
Fore
SplineSet
536.9140625 635.859375 m 2
 514.837890625 635.859375 496.9140625 617.935546875 496.9140625 595.859375 c 0
 496.9140625 573.783203125 514.837890625 555.859375 536.9140625 555.859375 c 2
 719.021484375 555.859375 l 1
 719.9609375 -112.870117188 l 2
 719.9921875 -134.919921875 737.903320312 -152.8125 759.9609375 -152.8125 c 0
 782.037109375 -152.8125 799.9609375 -134.888671875 799.9609375 -112.754882812 c 2
 798.96484375 595.916992188 l 2
 798.93359375 617.966796875 781.022460938 635.859375 758.96484375 635.859375 c 2
 536.9140625 635.859375 l 2
658.92578125 751.4453125 m 2
 636.849609375 751.4453125 618.92578125 733.521484375 618.92578125 711.4453125 c 0
 618.92578125 689.369140625 636.849609375 671.4453125 658.92578125 671.4453125 c 2
 841.033203125 671.4453125 l 1
 841.97265625 2.7158203125 l 2
 842.00390625 -19.333984375 859.915039062 -37.2265625 881.97265625 -37.2265625 c 0
 904.048828125 -37.2265625 921.97265625 -19.302734375 921.97265625 2.8310546875 c 2
 920.9765625 711.502929688 l 2
 920.9453125 733.552734375 903.034179688 751.4453125 880.9765625 751.4453125 c 2
 658.92578125 751.4453125 l 2
83.767578125 509.541992188 m 0
 57.3134765625 526.49609375 22.2265625 507.388671875 22.2265625 475.83984375 c 0
 22.2265625 461.692382812 29.587890625 449.25 40.685546875 442.137695312 c 0
 217.033203125 329.120117188 435.747070312 264.5546875 667.829101562 432.725585938 c 0
 699.116210938 455.396484375 682.862304688 505.13671875 644.39453125 505.13671875 c 0
 635.64453125 505.13671875 627.547851562 502.321289062 620.959960938 497.547851562 c 0
 469.358398438 387.694335938 300.770507812 370.469726562 83.767578125 509.541992188 c 0
361.97265625 301.40625 m 0
 339.896484375 301.40625 321.97265625 283.482421875 321.974609375 260.984375 c 2
 325.763671875 -105.01171875 l 2
 325.990234375 -126.89453125 343.826171875 -144.58984375 365.76171875 -144.58984375 c 0
 387.837890625 -144.58984375 405.76171875 -126.666015625 405.759765625 -104.16796875 c 2
 401.970703125 261.828125 l 2
 401.744140625 283.7109375 383.908203125 301.40625 361.97265625 301.40625 c 0
EndSplineSet
Validated: 41
EndChar

StartChar: uniE130
Encoding: 57648 57648 9
Width: 1000
Flags: W
HStem: 8.50684 80<541.91 691.803> 355.176 104.263<557.938 592.755>
VStem: 225.898 79.9639<-137.896 -100.098> 427.656 80<101.149 253.915> 531.348 79.9512<373.1 675.662>
LayerCount: 2
Fore
SplineSet
213.427734375 481.04296875 m 0
 213.427734375 401.52734375 230.850585938 386.251953125 230.850585938 133.180664062 c 0
 230.850585938 2.3203125 225.934570312 -114.109375 225.8984375 -115.8203125 c 0
 225.8984375 -137.896484375 243.822265625 -155.8203125 265.8984375 -155.8203125 c 0
 287.401367188 -155.8203125 304.96484375 -138.815429688 305.862304688 -117.53125 c 0
 306.59765625 -100.09765625 320.647460938 246.19921875 298.197265625 413.31640625 c 0
 271.797851562 609.830078125 360.609375 700.662109375 438.659179688 660.444335938 c 0
 482.114257812 638.053710938 532.15625 566.708984375 532.15625 427.405273438 c 0
 532.15625 409.473632812 531.34765625 397.770507812 531.34765625 395.17578125 c 0
 531.34765625 373.099609375 549.271484375 355.17578125 571.34765625 355.17578125 c 0
 592.754882812 355.17578125 610.256835938 372.028320312 611.298828125 393.178710938 c 0
 611.874023438 404.860351562 612.15625 416.268554688 612.15625 427.405273438 c 0
 612.15625 784.615234375 324.03515625 837.658203125 237.91015625 622.5078125 c 0
 222.129882812 583.088867188 213.427734375 535.846679688 213.427734375 481.04296875 c 0
630.49609375 88.5068359375 m 0
 565.626953125 88.5068359375 507.65625 123.099609375 507.65625 182.181640625 c 0
 507.65625 200.875 513.005859375 223.51171875 523.169921875 246.551757812 c 0
 557.58203125 324.551757812 632.708984375 384.147460938 669.633789062 379.168945312 c 0
 685.720703125 377.002929688 708.697265625 362.46484375 729.147460938 334.3359375 c 0
 767.41796875 281.693359375 788.579101562 193.525390625 754.450195312 144.123046875 c 0
 731.260742188 110.5625 681.9609375 88.5068359375 630.49609375 88.5068359375 c 0
820.315429688 98.728515625 m 0
 907.463867188 224.875976562 798.868164062 459.438476562 665.428710938 459.438476562 c 0
 557.9375 459.438476562 427.65625 306.954101562 427.65625 182.181640625 c 0
 427.65625 79.19921875 518.192382812 8.5068359375 630.49609375 8.5068359375 c 0
 701.64453125 8.5068359375 777.444335938 36.6845703125 820.315429688 98.728515625 c 0
213.427734375 481.04296875 m 0
 213.427734375 401.52734375 230.850585938 386.251953125 230.850585938 133.180664062 c 0
 230.850585938 2.3203125 225.934570312 -114.109375 225.8984375 -115.8203125 c 0
 225.8984375 -137.896484375 243.822265625 -155.8203125 265.8984375 -155.8203125 c 0
 287.401367188 -155.8203125 304.96484375 -138.815429688 305.862304688 -117.53125 c 0
 306.59765625 -100.09765625 320.647460938 246.19921875 298.197265625 413.31640625 c 0
 271.797851562 609.830078125 360.609375 700.662109375 438.659179688 660.444335938 c 0
 482.114257812 638.053710938 532.15625 566.708984375 532.15625 427.405273438 c 0
 532.15625 409.473632812 531.34765625 397.770507812 531.34765625 395.17578125 c 0
 531.34765625 373.099609375 549.271484375 355.17578125 571.34765625 355.17578125 c 0
 592.754882812 355.17578125 610.256835938 372.028320312 611.298828125 393.178710938 c 0
 611.874023438 404.860351562 612.15625 416.268554688 612.15625 427.405273438 c 0
 612.15625 784.615234375 324.03515625 837.658203125 237.91015625 622.5078125 c 0
 222.129882812 583.088867188 213.427734375 535.846679688 213.427734375 481.04296875 c 0
630.49609375 88.5068359375 m 0
 565.626953125 88.5068359375 507.65625 123.099609375 507.65625 182.181640625 c 0
 507.65625 200.875 513.005859375 223.51171875 523.169921875 246.551757812 c 0
 557.58203125 324.551757812 632.708984375 384.147460938 669.633789062 379.168945312 c 0
 685.720703125 377.002929688 708.697265625 362.46484375 729.147460938 334.3359375 c 0
 767.41796875 281.693359375 788.579101562 193.525390625 754.450195312 144.123046875 c 0
 731.260742188 110.5625 681.9609375 88.5068359375 630.49609375 88.5068359375 c 0
820.315429688 98.728515625 m 0
 907.463867188 224.875976562 798.868164062 459.438476562 665.428710938 459.438476562 c 0
 557.9375 459.438476562 427.65625 306.954101562 427.65625 182.181640625 c 0
 427.65625 79.19921875 518.192382812 8.5068359375 630.49609375 8.5068359375 c 0
 701.64453125 8.5068359375 777.444335938 36.6845703125 820.315429688 98.728515625 c 0
EndSplineSet
Validated: 37
EndChar

StartChar: uniE131
Encoding: 57649 57649 10
Width: 1000
Flags: W
HStem: -119.434 80<392.172 940.358 940.729 975.833>
LayerCount: 2
Fore
SplineSet
703.745117188 -95.8349609375 m 2
 727.899414062 -123.794921875 774.0234375 -106.501953125 774.0234375 -69.70703125 c 0
 774.0234375 -59.7236328125 770.358398438 -50.5908203125 764.301757812 -43.5791015625 c 2
 113.481445312 709.799804688 l 2
 89.3271484375 737.759765625 43.203125 720.466796875 43.203125 683.671875 c 0
 43.203125 673.688476562 46.8681640625 664.555664062 52.9248046875 657.543945312 c 2
 703.745117188 -95.8349609375 l 2
387.79296875 -79.43359375 m 0
 387.79296875 -101.48828125 405.680664062 -119.3984375 427.727539062 -119.43359375 c 0
 940.631835938 -120.25390625 940.631835938 -120.25390625 940.6640625 -120.25390625 c 0
 962.740234375 -120.25390625 980.6640625 -102.330078125 980.6640625 -80.25390625 c 0
 980.6640625 -58.19921875 962.776367188 -40.2890625 940.729492188 -40.25390625 c 2
 940.729492188 -40.25390625 427.858398438 -39.43359375 427.79296875 -39.43359375 c 0
 405.716796875 -39.43359375 387.79296875 -57.357421875 387.79296875 -79.43359375 c 0
EndSplineSet
Validated: 37
EndChar

StartChar: uniE133
Encoding: 57651 57651 11
Width: 1000
Flags: W
LayerCount: 2
Fore
SplineSet
51.9873046875 -90.9951171875 m 2
 25.6455078125 -115.729492188 43.3505859375 -160.15625 79.35546875 -160.15625 c 0
 89.9384765625 -160.15625 99.56640625 -156.038085938 106.723632812 -149.317382812 c 2
 954.340820312 646.561523438 l 2
 980.682617188 671.295898438 962.977539062 715.72265625 926.97265625 715.72265625 c 0
 916.389648438 715.72265625 906.76171875 711.604492188 899.604492188 704.883789062 c 2
 51.9873046875 -90.9951171875 l 2
696.3671875 200.1953125 m 0
 696.3671875 224.80078125 674.28515625 243.624023438 649.93359375 239.6796875 c 2
 362.21875 193.078125 l 2
 343.196289062 189.997070312 328.65234375 173.48046875 328.65234375 153.59375 c 0
 328.65234375 128.98828125 350.734375 110.165039062 375.0859375 114.109375 c 2
 662.80078125 160.7109375 l 2
 681.823242188 163.791992188 696.3671875 180.30859375 696.3671875 200.1953125 c 0
EndSplineSet
Validated: 37
EndChar

StartChar: uniE134
Encoding: 57652 57652 12
Width: 1000
Flags: W
HStem: 554.263 80<216.025 375.5>
LayerCount: 2
Fore
SplineSet
884.224609375 491.103515625 m 0
 884.224609375 534.231445312 876.440429688 573.358398438 858.080078125 605.681640625 c 0
 815.590820312 680.481445312 701.734375 731.096679688 513.396484375 550.607421875 c 1
 428.9375 605.982421875 349.073242188 634.262695312 280.194335938 634.262695312 c 0
 239.357421875 634.262695312 201.404296875 623.901367188 171.421875 600.375976562 c 0
 135.907226562 572.508789062 58.189453125 480.206054688 180.540039062 259.392578125 c 0
 236.336914062 158.692382812 329.122070312 40.537109375 468.407226562 -93.4892578125 c 0
 482.517578125 -107.06640625 504.240234375 -108.376953125 519.829101562 -96.8876953125 c 0
 659.706054688 6.201171875 756.216796875 126.23828125 814.646484375 239.88671875 c 0
 861.37890625 330.782226562 884.224609375 417.724609375 884.224609375 491.103515625 c 0
194.313476562 469.571289062 m 0
 194.313476562 494.71484375 198.190429688 554.262695312 280.194335938 554.262695312 c 0
 331.920898438 554.262695312 408.768554688 528.122070312 494.774414062 466.373046875 c 0
 510.73828125 454.911132812 532.83984375 456.724609375 546.73046875 470.999023438 c 0
 585.53515625 510.875 674.342773438 593.794921875 741.8515625 593.794921875 c 0
 755.387695312 593.794921875 780.393554688 591.404296875 794.833984375 552.411132812 c 0
 833.04296875 449.240234375 758.774414062 192.399414062 499.350585938 -11.94140625 c 1
 378.048828125 108.026367188 297.905273438 212.646484375 250.56640625 298.081054688 c 0
 210.135742188 371.048828125 194.313476562 429.53125 194.313476562 469.571289062 c 0
EndSplineSet
Validated: 41
EndChar

StartChar: uniE135
Encoding: 57653 57653 13
Width: 1000
Flags: W
LayerCount: 2
Fore
SplineSet
174.618164062 -153.734375 m 2
 195.51953125 -188.13671875 248.828125 -173.116210938 248.828125 -133.0078125 c 0
 248.828125 -125.421875 246.711914062 -118.327148438 243.038085938 -112.28125 c 2
 196.765625 -36.1201171875 l 1
 409.166015625 -118.255859375 649.108398438 -162.846679688 920.892578125 2.376953125 c 0
 955.284179688 23.28515625 940.258789062 76.58203125 900.15625 76.58203125 c 0
 892.567382812 76.58203125 885.46875 74.4638671875 879.419921875 70.787109375 c 0
 604.326171875 -96.44921875 369.572265625 -28.9296875 114.7734375 85.1787109375 c 0
 79.2861328125 101.071289062 44.03125 61.1982421875 64.2470703125 27.92578125 c 2
 174.618164062 -153.734375 l 2
633.551757812 619.100585938 m 0
 682.899414062 551.245117188 709.46484375 438.794921875 664.846679688 374.249023438 c 0
 599.60546875 279.8515625 404.517578125 273.373046875 353.306640625 381.274414062 c 0
 313.154296875 465.840820312 409.375 617.6484375 502.384765625 665.338867188 c 0
 509.739257812 669.110351562 533.791992188 680.77734375 553.9921875 678.0546875 c 0
 577.479492188 674.889648438 607.5234375 654.890625 633.551757812 619.100585938 c 0
730.700195312 328.836914062 m 0
 834.065429688 478.369140625 703.8046875 758.470703125 547.563476562 758.470703125 c 0
 420.978515625 758.470703125 263.958007812 575.426757812 263.958007812 426.350585938 c 0
 263.958007812 304.647460938 371.5234375 221.74609375 504.524414062 221.74609375 c 0
 589.876953125 221.74609375 680.170898438 255.727539062 730.700195312 328.836914062 c 0
EndSplineSet
Validated: 41
EndChar

StartChar: uniE136
Encoding: 57654 57654 14
Width: 1000
Flags: W
HStem: -166.291 80<659.761 837.404> -151.721 80<183.271 360.91> 347.743 77.4434<95.1893 369.818 878.665 953.72>
VStem: 48.0215 80<-22.529 117.693> 524.524 80<-37.0933 103.128>
LayerCount: 2
Fore
SplineSet
269.369140625 -71.720703125 m 0x78
 194.41015625 -71.720703125 128.021484375 -31.255859375 128.021484375 37.0107421875 c 0
 128.021484375 58.6259765625 134.168945312 84.373046875 145.678710938 110.439453125 c 0
 160.048828125 142.983398438 182.439453125 175.569335938 207.618164062 201.801757812 c 0
 212.84765625 207.250976562 270.764648438 266.432617188 313.568359375 260.671875 c 0
 333.297851562 258.012695312 359.729492188 240.799804688 382.911132812 208.935546875 c 0
 426.596679688 148.887695312 450.4140625 48.90234375 411.158203125 -7.8759765625 c 0
 384.220703125 -46.8251953125 327.809570312 -71.720703125 269.369140625 -71.720703125 c 0x78
477.005859375 -53.2958984375 m 0
 572.120117188 84.2705078125 452.8359375 341.01171875 308.2734375 341.01171875 c 0
 191.424804688 341.01171875 48.021484375 173.631835938 48.021484375 37.0107421875 c 0
 48.021484375 -75.103515625 146.921875 -151.720703125 269.369140625 -151.720703125 c 0
 347.470703125 -151.720703125 430.373046875 -120.724609375 477.005859375 -53.2958984375 c 0
745.86328125 -86.291015625 m 0xb8
 670.885742188 -86.291015625 604.524414062 -45.81640625 604.524414062 22.4462890625 c 0
 604.524414062 44.0615234375 610.670898438 69.80859375 622.1796875 95.875 c 0
 636.548828125 128.41796875 658.936523438 161.002929688 684.112304688 187.234375 c 0
 689.342773438 192.684570312 747.250976562 251.862304688 790.052734375 246.1015625 c 0
 809.782226562 243.442382812 836.215820312 226.228515625 859.399414062 194.366210938 c 0
 903.084960938 134.32421875 926.9140625 34.337890625 887.64453125 -22.4423828125 c 0
 860.71875 -61.38671875 804.3046875 -86.291015625 745.86328125 -86.291015625 c 0xb8
953.48828125 -67.8701171875 m 0
 1048.62792969 69.697265625 929.319335938 326.44140625 784.7578125 326.44140625 c 0
 667.91015625 326.44140625 524.524414062 159.064453125 524.524414062 22.4462890625 c 0
 524.524414062 -89.666015625 623.403320312 -166.291015625 745.86328125 -166.291015625 c 0
 823.963867188 -166.291015625 906.86328125 -135.303710938 953.48828125 -67.8701171875 c 0
907.478515625 425.186523438 m 0
 763.575195312 387.850585938 460.688476562 436.990234375 128.806640625 424.678710938 c 0
 107.426757812 423.885742188 90.3125 406.279296875 90.3125 384.70703125 c 0
 90.3125 362.630859375 108.236328125 344.70703125 131.818359375 344.735351562 c 0
 224.517578125 348.173828125 309.907226562 348.806640625 541.328125 337.672851562 c 0
 708.241210938 329.642578125 835.322265625 323.80078125 927.599609375 347.743164062 c 0
 944.813476562 352.208984375 957.5390625 367.862304688 957.5390625 386.46484375 c 0
 957.5390625 412.646484375 932.723632812 431.736328125 907.478515625 425.186523438 c 0
130.310546875 384.70703125 m 0
 472.549804688 397.40234375 762.08984375 346.142578125 917.541992188 386.462890625 c 1024
EndSplineSet
Validated: 43
EndChar

StartChar: uniE137
Encoding: 57655 57655 15
Width: 1000
Flags: W
HStem: -120.254 80<36.9921 72.5479 72.9196 620.654>
LayerCount: 2
Fore
SplineSet
309.532226562 -95.8349609375 m 2
 285.37890625 -123.794921875 239.25390625 -106.501953125 239.25390625 -69.70703125 c 0
 239.25390625 -59.7236328125 242.918945312 -50.5908203125 248.975585938 -43.5791015625 c 2
 899.795898438 709.799804688 l 2
 923.950195312 737.759765625 970.07421875 720.466796875 970.07421875 683.671875 c 0
 970.07421875 673.688476562 966.409179688 664.555664062 960.352539062 657.543945312 c 2
 309.532226562 -95.8349609375 l 2
625.484375 -79.43359375 m 0
 625.484375 -101.48828125 607.596679688 -119.3984375 585.549804688 -119.43359375 c 0
 72.646484375 -120.25390625 72.646484375 -120.25390625 72.61328125 -120.25390625 c 0
 50.537109375 -120.25390625 32.61328125 -102.330078125 32.61328125 -80.25390625 c 0
 32.61328125 -58.19921875 50.501953125 -40.2890625 72.5478515625 -40.25390625 c 2
 72.5478515625 -40.25390625 585.418945312 -39.43359375 585.484375 -39.43359375 c 0
 607.561523438 -39.43359375 625.484375 -57.357421875 625.484375 -79.43359375 c 0
EndSplineSet
Validated: 37
EndChar

StartChar: uniE138
Encoding: 57656 57656 16
Width: 1000
HStem: 667.997 80<372.613 654.073>
VStem: 160.53 79.7012<431.435 564.805> 358.535 79.918<105.021 160.957> 773.457 80<508.91 589.767>
LayerCount: 2
Fore
SplineSet
359.21484375 161.361328125 m 0
 359.21484375 152.780273438 358.53515625 140.754882812 358.53515625 140.546875 c 0
 358.53515625 118.470703125 376.458984375 100.546875 398.53515625 100.546875 c 0
 419.745117188 100.546875 437.12109375 117.08984375 438.453125 137.965820312 c 0
 447.923828125 286.3828125 367.056640625 347.55078125 307.021484375 392.9609375 c 0
 250.9296875 435.388671875 240.231445312 449.493164062 240.231445312 485.534179688 c 0
 240.231445312 629.532226562 402.75 667.997070312 512.077148438 667.997070312 c 0
 645.704101562 667.997070312 773.45703125 614.735351562 773.45703125 544.53125 c 0
 773.45703125 522.455078125 791.380859375 504.53125 813.45703125 504.53125 c 0
 835.51953125 504.53125 853.43359375 522.431640625 853.45703125 544.63671875 c 0
 853.45703125 671.391601562 688.147460938 747.997070312 512.077148438 747.997070312 c 0
 314.788085938 747.997070312 152.297851562 652.495117188 160.530273438 472.578125 c 0
 163.928710938 398.227539062 218.8828125 359.333984375 258.826171875 329.120117188 c 0
 315.637695312 286.149414062 359.21484375 250.3828125 359.21484375 161.361328125 c 0
188.98046875 116.311523438 m 0
 167.051757812 148.989257812 115.7421875 133.251953125 115.7421875 94.0625 c 0
 115.7421875 85.8310546875 118.234375 78.1767578125 122.50390625 71.8134765625 c 0
 301.10546875 -194.333984375 757.00390625 -161.833984375 892.108398438 69.0810546875 c 0
 907.603515625 95.5634765625 888.408203125 129.23828125 857.55859375 129.23828125 c 0
 842.830078125 129.23828125 829.951171875 121.260742188 823.008789062 109.395507812 c 0
 800.063476562 70.1796875 763.0625 37.0380859375 716.09375 12.2119140625 c 0
 556.607421875 -72.0859375 301.193359375 -50.90625 188.98046875 116.311523438 c 0
EndSplineSet
Validated: 41
EndChar

StartChar: uniE139
Encoding: 57657 57657 17
Width: 1000
Flags: W
HStem: -125.645 80<686.035 721.656>
VStem: 382.637 79.9424<733.905 768.66>
LayerCount: 2
Fore
SplineSet
686.03515625 -125.64453125 m 2
 708.111328125 -125.64453125 726.03515625 -107.720703125 726.03515625 -85.64453125 c 0
 726.03515625 -63.568359375 708.111328125 -45.64453125 686.03515625 -45.64453125 c 2
 462.579101562 -45.64453125 l 1
 461.4453125 734.024414062 l 2
 461.413085938 756.073242188 443.501953125 773.96484375 421.4453125 773.96484375 c 0
 399.369140625 773.96484375 381.4453125 756.041015625 381.4453125 733.905273438 c 2
 382.63671875 -85.7041015625 l 2
 382.668945312 -107.752929688 400.580078125 -125.64453125 422.63671875 -125.64453125 c 2
 686.03515625 -125.64453125 l 2
EndSplineSet
Validated: 9
EndChar

StartChar: uniE145
Encoding: 57669 57669 18
Width: 1000
VStem: 104.068 79.3428<380.272 414.067> 868.101 79.9854<138.712 390.456>
LayerCount: 2
Fore
SplineSet
139.39453125 420.9375 m 0
 117.318359375 420.9375 99.39453125 403.013671875 99.400390625 380.272460938 c 2
 104.068359375 94.4521484375 l 2
 104.423828125 72.681640625 122.208007812 55.1171875 144.266601562 55.1181640625 c 2
 901.473632812 58.9072265625 l 2
 923.094726562 59.0146484375 940.682617188 76.314453125 941.254882812 97.82421875 c 2
 941.254882812 97.82421875 948.071289062 354.0546875 948.0859375 355.13671875 c 0
 948.0859375 377.212890625 930.162109375 395.13671875 908.0859375 395.13671875 c 0
 886.37109375 395.13671875 868.674804688 377.795898438 868.100585938 356.21875 c 2
 862.314453125 138.711914062 l 1
 183.411132812 135.314453125 l 1
 179.388671875 381.602539062 l 2
 179.033203125 403.373046875 161.249023438 420.9375 139.39453125 420.9375 c 0
EndSplineSet
Validated: 41
EndChar

StartChar: uniE146
Encoding: 57670 57670 19
Width: 1000
HStem: 565.078 80<479.887 515.508> 673.574 80<606.937 642.559>
VStem: 698.555 80<-139.233 -103.556> 825.625 80<-30.7173 4.95996>
LayerCount: 2
Fore
SplineSet
515.5078125 645.078125 m 2
 493.431640625 645.078125 475.5078125 627.154296875 475.5078125 605.078125 c 0
 475.5078125 583.001953125 493.431640625 565.078125 515.5078125 565.078125 c 2
 697.615234375 565.078125 l 1
 698.5546875 -103.670898438 l 2
 698.5859375 -125.720703125 716.497070312 -143.61328125 738.5546875 -143.61328125 c 0
 760.630859375 -143.61328125 778.5546875 -125.689453125 778.5546875 -103.555664062 c 2
 777.55859375 605.135742188 l 2
 777.52734375 627.185546875 759.616210938 645.078125 737.55859375 645.078125 c 2
 515.5078125 645.078125 l 2
642.55859375 753.57421875 m 2
 620.482421875 753.57421875 602.55859375 735.650390625 602.55859375 713.57421875 c 0
 602.55859375 691.498046875 620.482421875 673.57421875 642.55859375 673.57421875 c 2
 824.685546875 673.57421875 l 1
 825.625 4.8447265625 l 2
 825.65625 -17.205078125 843.567382812 -35.09765625 865.625 -35.09765625 c 0
 887.701171875 -35.09765625 905.625 -17.173828125 905.625 4.9599609375 c 2
 904.62890625 713.631835938 l 2
 904.59765625 735.681640625 886.686523438 753.57421875 864.62890625 753.57421875 c 2
 642.55859375 753.57421875 l 2
359.211914062 248.935546875 m 0
 359.211914062 294.596679688 436.427734375 349.3046875 436.427734375 419.16015625 c 0
 436.427734375 447.971679688 423.5546875 480.181640625 382.819335938 509.98046875 c 0
 356.534179688 529.208007812 319.23828125 510.30078125 319.23828125 477.67578125 c 0
 319.23828125 464.4140625 325.706054688 452.650390625 335.657226562 445.37109375 c 0
 360.739257812 427.0234375 358.799804688 417.705078125 351.33984375 402.163085938 c 0
 339.1015625 376.668945312 310.650390625 345.474609375 293.408203125 308.291992188 c 0
 281.10546875 281.760742188 253.119140625 210.256835938 340.864257812 136.19921875 c 0
 366.759765625 114.342773438 406.640625 132.913085938 406.640625 166.77734375 c 0
 406.640625 179.037109375 401.11328125 190.015625 392.416992188 197.35546875 c 0
 363.008789062 222.176757812 359.211914062 238.025390625 359.211914062 248.935546875 c 0
158.834960938 131.825195312 m 0
 132.764648438 152.666992188 93.88671875 133.952148438 93.88671875 100.56640625 c 0
 93.88671875 87.921875 99.7666015625 76.640625 108.938476562 69.3076171875 c 0
 275.967773438 -64.220703125 473.588867188 -82.7626953125 629.295898438 86.63671875 c 0
 652.779296875 112.185546875 634.478515625 153.69140625 599.84375 153.69140625 c 0
 588.196289062 153.69140625 577.704101562 148.702148438 570.391601562 140.74609375 c 0
 504.112304688 68.6396484375 437.764648438 44.3251953125 374.497070312 44.3251953125 c 0
 298.598632812 44.3251953125 221.556640625 81.68359375 158.834960938 131.825195312 c 0
93.4462890625 255.430664062 m 0
 69.015625 282.651367188 23.671875 265.162109375 23.671875 228.73046875 c 0
 23.671875 218.473632812 27.541015625 209.11328125 33.8974609375 202.030273438 c 0
 95.2646484375 133.655273438 111.4609375 59.12890625 43.544921875 -35.759765625 c 0
 24.7041015625 -62.0849609375 43.650390625 -99.00390625 76.09375 -99.00390625 c 0
 89.5048828125 -99.00390625 101.383789062 -92.3896484375 108.642578125 -82.248046875 c 0
 142.626953125 -34.765625 230.078125 103.196289062 93.4462890625 255.430664062 c 0
EndSplineSet
Validated: 37
EndChar

StartChar: uniE147
Encoding: 57671 57671 20
Width: 1000
HStem: 685.104 79.9883<536.582 817.378>
VStem: 504.883 79.998<66.664 101.85 102.219 644.529>
LayerCount: 2
Fore
SplineSet
222.0703125 -147.3046875 m 0
 252.916015625 -147.3046875 272.111328125 -113.639648438 256.625976562 -87.15625 c 2
 212.015625 -10.865234375 l 1
 415.918945312 -92.4091796875 648.110351562 -136.970703125 910.756835938 28.9716796875 c 0
 944.491210938 50.28515625 929.182617188 102.8125 889.43359375 102.8125 c 0
 881.59765625 102.8125 874.284179688 100.5546875 868.110351562 96.6533203125 c 0
 604.165039062 -70.109375 379.194335938 -3.681640625 132.370117188 111.188476562 c 0
 97.158203125 127.576171875 61.345703125 88.3173828125 80.9716796875 54.75390625 c 2
 187.514648438 -127.453125 l 2
 194.456054688 -139.323242188 207.338867188 -147.3046875 222.0703125 -147.3046875 c 0
550.33203125 652.48046875 m 0
 528.400390625 652.48046875 510.568359375 634.791992188 510.333984375 612.916015625 c 0
 504.8828125 102.502929688 504.8828125 102.502929688 504.8828125 102.28515625 c 0
 504.8828125 80.208984375 522.806640625 62.28515625 544.8828125 62.28515625 c 0
 566.814453125 62.28515625 584.646484375 79.9736328125 584.880859375 101.849609375 c 2
 584.880859375 101.849609375 590.330078125 612.044921875 590.33203125 612.48046875 c 0
 590.33203125 634.556640625 572.408203125 652.48046875 550.33203125 652.48046875 c 0
213.8203125 514.818359375 m 0
 198.791992188 488.33984375 218.008789062 455.1171875 248.6328125 455.1171875 c 0
 263.548828125 455.1171875 276.568359375 463.298828125 283.4453125 475.416015625 c 0
 347.942382812 589.053710938 386.3359375 638.692382812 518.004882812 664.358398438 c 0
 580.500976562 676.541015625 665.5078125 683.049804688 782.822265625 685.103515625 c 0
 804.5703125 685.484375 822.109375 703.258789062 822.109375 725.09765625 c 0
 822.109375 747.173828125 804.185546875 765.09765625 781.396484375 765.091796875 c 0
 567.815429688 761.3515625 447.158203125 743.745117188 363.891601562 693.21484375 c 0
 295.47265625 651.693359375 256.999023438 590.896484375 213.8203125 514.818359375 c 0
EndSplineSet
Validated: 41
EndChar

StartChar: uniE148
Encoding: 57672 57672 21
Width: 1000
LayerCount: 2
Fore
SplineSet
263.032226562 362.009765625 m 0
 236.561523438 378.489257812 201.93359375 359.349609375 201.93359375 328.02734375 c 0
 201.93359375 313.692382812 209.491210938 301.108398438 220.834960938 294.044921875 c 0
 398.197265625 183.624023438 658.086914062 96.77734375 945.46484375 313.060546875 c 0
 976.049804688 336.078125 959.553710938 385.0390625 921.4453125 385.0390625 c 0
 912.434570312 385.0390625 904.116210938 382.052734375 897.42578125 377.017578125 c 0
 712.181640625 237.6015625 506.916015625 210.173828125 263.032226562 362.009765625 c 0
190.236328125 530.943359375 m 0
 168.995117188 564.797851562 116.328125 549.540039062 116.328125 509.7265625 c 0
 116.328125 501.935546875 118.560546875 494.661132812 122.419921875 488.509765625 c 0
 251.387695312 282.962890625 173.614257812 176.829101562 114.151367188 122.009765625 c 0
 87.453125 97.3955078125 105.072265625 52.59765625 141.25 52.59765625 c 0
 151.700195312 52.59765625 161.219726562 56.6142578125 168.348632812 63.185546875 c 0
 260.6640625 148.293945312 336.701171875 297.508789062 190.236328125 530.943359375 c 0
EndSplineSet
Validated: 37
EndChar

StartChar: uniE149
Encoding: 57673 57673 22
Width: 1000
HStem: 594.516 80<644.495 713.787>
VStem: 108.697 79.3428<294.862 328.657> 302.032 80<460.224 568.639> 872.729 79.9854<53.2832 305.046>
LayerCount: 2
Fore
SplineSet
144.0234375 335.52734375 m 0
 121.947265625 335.52734375 104.0234375 317.603515625 104.029296875 294.862304688 c 2
 108.697265625 9.0419921875 l 2
 109.052734375 -12.728515625 126.836914062 -30.29296875 148.89453125 -30.2919921875 c 2
 906.1015625 -26.5224609375 l 2
 927.723632812 -26.4150390625 945.311523438 -9.115234375 945.883789062 12.39453125 c 2
 945.883789062 12.39453125 952.700195312 268.64453125 952.71484375 269.7265625 c 0
 952.71484375 291.802734375 934.791015625 309.7265625 912.71484375 309.7265625 c 0
 891 309.7265625 873.302734375 292.385742188 872.729492188 270.80859375 c 2
 866.943359375 53.283203125 l 1
 188.040039062 49.9033203125 l 1
 184.017578125 296.192382812 l 2
 183.662109375 317.962890625 165.877929688 335.52734375 144.0234375 335.52734375 c 0
556.423828125 604.427734375 m 0
 407.997070312 696.3046875 302.032226562 640.051757812 302.032226562 535.53515625 c 0
 302.032226562 444.282226562 378.639648438 321.004882812 520.153320312 184.724609375 c 0
 534.265625 171.134765625 556.004882812 169.822265625 571.599609375 181.325195312 c 0
 724.670898438 294.233398438 797.520507812 443.649414062 797.520507812 548.512695312 c 0
 797.520507812 634.306640625 749.049804688 674.515625 695.868164062 674.515625 c 0
 648.564453125 674.515625 599.9453125 644.25 556.423828125 604.427734375 c 0
382.032226562 535.53515625 m 0
 382.032226562 554.353515625 386.633789062 570.689453125 417.841796875 570.689453125 c 0
 444.068359375 570.689453125 487.735351562 556.666015625 537.788085938 520.69921875 c 0
 553.758789062 509.22265625 575.875976562 511.038085938 589.768554688 525.326171875 c 0
 604.455078125 540.430664062 659.579101562 594.515625 695.868164062 594.515625 c 0
 700.686523438 594.515625 707.461914062 594.515625 712.846679688 579.961914062 c 0
 732.059570312 528.04296875 695.001953125 385.743164062 550.963867188 266.661132812 c 1
 484.348632812 333.953125 440.150390625 392.493164062 413.93359375 439.846679688 c 0
 390.405273438 482.34375 382.032226562 515.346679688 382.032226562 535.53515625 c 0
EndSplineSet
Validated: 41
EndChar

StartChar: uniE150
Encoding: 57680 57680 23
Width: 1000
LayerCount: 2
Fore
SplineSet
160.37109375 765.17578125 m 0
 129.7265625 765.17578125 110.512695312 731.913085938 125.581054688 705.434570312 c 2
 440.307617188 152.387695312 l 2
 455.274414062 126.087890625 493.005859375 125.284179688 509.052734375 150.987304688 c 2
 848.134765625 694.092773438 l 2
 864.66015625 720.5625 845.524414062 755.234375 814.1796875 755.234375 c 0
 799.862304688 755.234375 787.291992188 747.696289062 780.224609375 736.375976562 c 2
 476.690429688 250.206054688 l 1
 195.161132812 744.916992188 l 2
 188.278320312 757.01171875 175.270507812 765.17578125 160.37109375 765.17578125 c 0
165.76171875 457.2265625 m 0
 135.118164062 457.2265625 115.903320312 423.96484375 130.970703125 397.486328125 c 2
 445.697265625 -155.580078125 l 2
 460.6640625 -181.881835938 498.396484375 -182.684570312 514.443359375 -156.98046875 c 2
 853.525390625 386.14453125 l 2
 870.05078125 412.61328125 850.9140625 447.28515625 819.5703125 447.28515625 c 0
 805.252929688 447.28515625 792.682617188 439.747070312 785.615234375 428.42578125 c 2
 482.081054688 -57.759765625 l 1
 200.552734375 436.966796875 l 2
 193.669921875 449.0625 180.661132812 457.2265625 165.76171875 457.2265625 c 0
EndSplineSet
Validated: 524329
EndChar

StartChar: uniE151
Encoding: 57681 57681 24
Width: 1000
Flags: W
VStem: 486.851 80<604.186 703.815> 557.052 80<439.472 536.949> 768.542 77.877<331.895 423.962>
LayerCount: 2
Fore
SplineSet
345.7265625 424.444335938 m 0x20
 323.919921875 457.337890625 272.36328125 441.685546875 272.36328125 402.3828125 c 0
 272.36328125 394.231445312 274.806640625 386.646484375 279 380.321289062 c 0
 335.127929688 295.65625 363.180664062 192.345703125 363.180664062 89.798828125 c 0
 363.180664062 22.69921875 351.180664062 -44.078125 327.831054688 -104.731445312 c 0
 314.884765625 -138.361328125 350.166015625 -170.813476562 382.5859375 -155.098632812 c 0
 586.012695312 -56.4912109375 786.259765625 123.278320312 846.418945312 378.94140625 c 0
 852.313476562 403.989257812 833.27734375 428.125 807.48046875 428.125 c 0
 788.563476562 428.125 772.696289062 414.96484375 768.541992188 397.30859375 c 0
 723.544921875 206.086914062 587.017578125 58.4345703125 430.380859375 -37.8203125 c 1
 461.391601562 114.000976562 437.154296875 286.532226562 345.7265625 424.444335938 c 0x20
637.051757812 490.600585938 m 0x60
 637.051757812 568.623046875 566.850585938 607.154296875 566.850585938 650.9765625 c 0
 566.850585938 663.21484375 571.771484375 683.051757812 596.54296875 714.72265625 c 0
 616.982421875 740.854492188 598.215820312 779.3359375 565.01953125 779.3359375 c 0
 552.221679688 779.3359375 540.819335938 773.3125 533.49609375 763.94921875 c 0
 502.23046875 723.974609375 486.850585938 687.029296875 486.850585938 650.9765625 c 0xa0
 486.850585938 572.489257812 557.051757812 533.373046875 557.051757812 490.600585938 c 0
 557.051757812 477.678710938 551.119140625 455.252929688 519.3828125 418.44140625 c 0
 497.125 392.623046875 515.633789062 352.34375 549.6875 352.34375 c 0
 561.795898438 352.34375 572.654296875 357.735351562 579.9921875 366.24609375 c 0
 618.3046875 410.686523438 637.051757812 450.918945312 637.051757812 490.600585938 c 0x60
EndSplineSet
Validated: 41
EndChar

StartChar: uniE152
Encoding: 57682 57682 25
Width: 1000
Flags: W
HStem: -71.5254 80<380.144 557.801> 341.189 80<386.717 488.912>
VStem: 613.021 80<57.6929 197.237>
LayerCount: 2
Fore
SplineSet
613.020507812 117.22265625 m 0
 613.020507812 48.9853515625 546.692382812 8.474609375 471.68359375 8.474609375 c 0
 413.245117188 8.474609375 356.831054688 33.3740234375 329.89453125 72.3232421875 c 0
 290.642578125 129.09375 314.456054688 229.078125 358.143554688 289.124023438 c 0
 363.732421875 296.805664062 397.549804688 341.189453125 432.794921875 341.189453125 c 0
 478.6796875 341.189453125 558.258789062 274.682617188 595.366210938 190.642578125 c 0
 606.874023438 164.580078125 613.020507812 138.8359375 613.020507812 117.22265625 c 0
432.794921875 421.189453125 m 0
 288.174804688 421.189453125 168.948242188 164.4453125 264.05078125 26.8955078125 c 0
 310.684570312 -40.533203125 393.583007812 -71.525390625 471.68359375 -71.525390625 c 0
 594.189453125 -71.525390625 693.020507812 5.1435546875 693.020507812 117.22265625 c 0
 693.020507812 253.837890625 549.635742188 421.189453125 432.794921875 421.189453125 c 0
590.323242188 280.58984375 m 2
 563.727539062 255.940429688 581.372070312 211.25 617.5 211.25 c 0
 627.98828125 211.25 637.540039062 215.295898438 644.676757812 221.91015625 c 2
 863.563476562 424.78125 l 2
 881.466796875 441.375 880.471679688 469.958984375 861.45703125 485.28125 c 2
 639.07421875 664.48046875 l 2
 613.02734375 685.469726562 574.00390625 666.776367188 574.00390625 633.3203125 c 0
 574.00390625 620.732421875 579.831054688 609.494140625 588.93359375 602.16015625 c 2
 775.271484375 452.005859375 l 1
 590.323242188 280.58984375 l 2
EndSplineSet
Validated: 37
EndChar

StartChar: uniE154
Encoding: 57684 57684 26
Width: 1000
Flags: W
HStem: 0.692383 179.073<544.97 702.383> 162.018 80<172.546 277.163> 340.632 179.075<672.378 829.805> 501.951 80<299.948 404.562>
LayerCount: 2
Fore
SplineSet
200.862304688 486.524414062 m 0x10
 183.138671875 460.110351562 202.1875 424.27734375 234.1015625 424.27734375 c 0
 247.947265625 424.27734375 260.159179688 431.327148438 267.340820312 442.030273438 c 0
 307.293945312 501.573242188 336.158203125 501.951171875 346.20703125 501.951171875 c 0x10
 427.865234375 501.951171875 535.20703125 340.631835938 672.377929688 340.631835938 c 0
 737.28125 340.631835938 800.704101562 376.7890625 861.450195312 455.250976562 c 0
 881.702148438 481.409179688 862.913085938 519.70703125 829.8046875 519.70703125 c 0x20
 816.935546875 519.70703125 805.477539062 513.616210938 798.159179688 504.163085938 c 0
 695.145507812 371.109375 625.038085938 418.655273438 519.520507812 498.333007812 c 0
 463.536132812 540.607421875 408.784179688 581.951171875 346.20703125 581.951171875 c 0
 269.741210938 581.951171875 221.798828125 517.7265625 200.862304688 486.524414062 c 0x10
73.458984375 146.58203125 m 0
 55.736328125 120.16796875 74.78515625 84.3359375 106.69921875 84.3359375 c 0
 120.544921875 84.3359375 132.7578125 91.38671875 139.939453125 102.08984375 c 0
 179.893554688 161.638671875 208.7578125 162.017578125 218.807617188 162.017578125 c 0x40
 300.465820312 162.017578125 407.803710938 0.6923828125 544.969726562 0.6923828125 c 0
 609.87109375 0.6923828125 673.2890625 36.8505859375 734.029296875 115.310546875 c 0
 754.280273438 141.46875 735.490234375 179.765625 702.3828125 179.765625 c 0x80
 689.513671875 179.765625 678.0546875 173.674804688 670.736328125 164.220703125 c 0
 567.739257812 31.177734375 497.64453125 78.7080078125 392.122070312 158.39453125 c 0
 336.137695312 200.671875 281.385742188 242.017578125 218.807617188 242.017578125 c 0x40
 142.3359375 242.017578125 94.390625 177.779296875 73.458984375 146.58203125 c 0
EndSplineSet
Validated: 41
EndChar

StartChar: uniE155
Encoding: 57685 57685 27
Width: 1000
Flags: W
HStem: 117.633 50.7031<472.522 503.853> 508.132 179.075<641.714 799.141> 669.451 80<269.296 373.904>
VStem: 433.749 79.9746<-137.869 -103.916> 641.096 80<232.95 353.966>
LayerCount: 2
Fore
SplineSet
170.216796875 654.0234375 m 0xb8
 152.494140625 627.608398438 171.54296875 591.77734375 203.45703125 591.77734375 c 0
 217.303710938 591.77734375 229.515625 598.828125 236.697265625 609.53125 c 0
 276.64453125 669.072265625 305.50390625 669.451171875 315.552734375 669.451171875 c 0xb8
 397.202148438 669.451171875 504.544921875 508.131835938 641.713867188 508.131835938 c 0
 706.6171875 508.131835938 770.040039062 544.2890625 830.786132812 622.750976562 c 0
 851.038085938 648.909179688 832.249023438 687.20703125 799.140625 687.20703125 c 0xd8
 786.271484375 687.20703125 774.813476562 681.116210938 767.495117188 671.663085938 c 0
 664.489257812 538.619140625 594.391601562 586.141601562 488.857421875 665.833984375 c 0
 432.875 708.109375 378.125976562 749.451171875 315.552734375 749.451171875 c 0
 239.0859375 749.451171875 191.145507812 685.216796875 170.216796875 654.0234375 c 0xb8
540.299804688 117.6328125 m 0
 647.727539062 117.6328125 721.095703125 197.5625 721.095703125 291.723632812 c 0
 721.095703125 351.709960938 690.499023438 413.235351562 628.600585938 455.74609375 c 0
 602.213867188 473.868164062 565.995117188 454.853515625 565.995117188 422.75 c 0
 565.995117188 409.059570312 572.887695312 396.966796875 583.388671875 389.754882812 c 0
 625.381835938 360.9140625 641.095703125 324.244140625 641.095703125 291.723632812 c 0
 641.095703125 204.454101562 530.184570312 139.03125 365.098632812 279.154296875 c 0
 339.223632812 301.118164062 299.237304688 282.563476562 299.237304688 248.6484375 c 0
 299.237304688 236.4296875 304.727539062 225.482421875 313.375 218.142578125 c 0
 395.387695312 148.530273438 472.522460938 117.6328125 540.299804688 117.6328125 c 0
481.776367188 168.3359375 m 0
 460.171875 168.3359375 442.545898438 151.171875 441.80078125 129.748046875 c 0
 433.749023438 -101.796875 433.749023438 -101.796875 433.749023438 -102.50390625 c 0
 433.749023438 -124.580078125 451.671875 -142.50390625 473.749023438 -142.50390625 c 0
 495.352539062 -142.50390625 512.979492188 -125.33984375 513.723632812 -103.916015625 c 2
 513.723632812 -103.916015625 521.750976562 126.923828125 521.776367188 128.3359375 c 0
 521.776367188 150.413085938 503.852539062 168.3359375 481.776367188 168.3359375 c 0
EndSplineSet
Validated: 37
EndChar

StartChar: uniE156
Encoding: 57686 57686 28
Width: 1000
Flags: W
HStem: 245.097 80<447.544 510.663>
VStem: 310.551 80.0117<620.274 665.62> 323.074 80.0244<343.146 482.807> 712.192 80.0127<180.055 222.452>
LayerCount: 2
Fore
SplineSet
589.303710938 582.283203125 m 0xb0
 455.083984375 665.323242188 323.07421875 557.5625 323.07421875 400.671875 c 0
 323.07421875 361.720703125 331.454101562 320.965820312 349.875 281.439453125 c 0
 372.05078125 233.852539062 380.095703125 185.703125 380.095703125 141.083007812 c 0
 380.095703125 89.263671875 369.038085938 42 357.212890625 8.2412109375 c 0
 349.548828125 -13.6396484375 340.545898438 -30.6953125 337.21875 -36.537109375 c 0
 309.856445312 -60.849609375 327.125 -106.452148438 363.868164062 -106.452148438 c 0
 388.682617188 -106.452148438 401.051757812 -85.86328125 406.475585938 -76.8056640625 c 0
 432.729492188 -32.9619140625 483.975585938 100.861328125 447.340820312 245.203125 c 1
 449.048828125 245.203125 450.75390625 245.096679688 452.453125 245.096679688 c 0
 573.37890625 245.096679688 729.56640625 408.396484375 644.010742188 532.015625 c 0
 630.712890625 551.229492188 612.272460938 568.07421875 589.303710938 582.283203125 c 0xb0
403.098632812 403.69921875 m 0
 404.3984375 483.421875 461.015625 567.58203125 547.297851562 514.201171875 c 0
 585.853515625 490.349609375 588.434570312 466.108398438 588.434570312 454.3515625 c 0
 588.434570312 396.061523438 506.091796875 325.096679688 452.453125 325.096679688 c 0
 439.905273438 325.096679688 434.1171875 328.345703125 429.258789062 334.629882812 c 0
 424.896484375 340.26953125 419.325195312 352.286132812 418.060546875 374.741210938 c 0
 417.40234375 386.4453125 411.701171875 396.810546875 403.098632812 403.69921875 c 0
273.852539062 758.934570312 m 0
 219.189453125 758.934570312 179.420898438 701.44140625 179.420898438 641.270507812 c 0
 179.420898438 558.986328125 254.467773438 538.665039062 294.616210938 538.665039062 c 0
 350.840820312 538.665039062 390.5625 572.672851562 390.5625 622.602539062 c 0xd0
 390.5625 680.981445312 335.2890625 758.934570312 273.852539062 758.934570312 c 0
261.404296875 629.890625 m 0
 256.389648438 637.5234375 261.327148438 669.817382812 274.055664062 678.560546875 c 0
 293.244140625 669.319335938 310.603515625 638.168945312 310.55078125 622.049804688 c 0
 297.954101562 613.905273438 266.578125 622.015625 261.404296875 629.890625 c 0
671.834960938 317.486328125 m 0
 616.157226562 317.486328125 574.8125 260.538085938 574.8125 200.762695312 c 0
 574.8125 119.456054688 651.1171875 98.9130859375 693.584960938 98.9130859375 c 0
 752.6484375 98.9130859375 792.205078125 133.744140625 792.205078125 182.322265625 c 0
 792.205078125 241.131835938 733.98046875 317.486328125 671.834960938 317.486328125 c 0
712.192382812 182.809570312 m 0
 697.505859375 174.565429688 666.236328125 180.5546875 656.595703125 190.674804688 c 0
 652.099609375 199.153320312 656.301757812 223.904296875 667.5625 234.663085938 c 0
 669.891601562 236.887695312 671.19140625 237.33984375 671.922851562 237.463867188 c 0
 687.62109375 233.27734375 711.283203125 201.817382812 712.192382812 182.809570312 c 0
EndSplineSet
Validated: 41
EndChar

StartChar: uniE157
Encoding: 57687 57687 29
Width: 1000
Flags: W
HStem: 270.06 79.999<149.047 727.562 727.956 749.811>
VStem: 706.934 79.998<-163.336 -128.068> 714.221 79.998<481.561 746.617>
LayerCount: 2
Fore
SplineSet
144.66796875 310.05859375 m 0x80
 144.66796875 288.055664062 162.471679688 270.178710938 184.446289062 270.059570312 c 0
 727.624023438 267.109375 727.624023438 267.109375 727.734375 267.109375 c 0
 749.810546875 267.109375 767.734375 285.033203125 767.734375 307.109375 c 0
 767.734375 329.112304688 749.930664062 346.989257812 727.956054688 347.108398438 c 2
 727.956054688 347.108398438 184.889648438 350.057617188 184.66796875 350.05859375 c 0
 162.591796875 350.05859375 144.66796875 332.134765625 144.66796875 310.05859375 c 0x80
754.21875 750.99609375 m 0
 732.259765625 750.99609375 714.41015625 733.263671875 714.220703125 711.349609375 c 0xa0
 706.93359375 -127.538085938 706.93359375 -127.538085938 706.93359375 -127.71484375 c 0
 706.93359375 -149.791015625 724.857421875 -167.71484375 746.93359375 -167.71484375 c 0
 768.892578125 -167.71484375 786.7421875 -149.982421875 786.931640625 -128.068359375 c 2xc0
 786.931640625 -128.068359375 794.216796875 710.642578125 794.21875 710.99609375 c 0xa0
 794.21875 733.072265625 776.294921875 750.99609375 754.21875 750.99609375 c 0
EndSplineSet
Validated: 5
EndChar

StartChar: uniE158
Encoding: 57688 57688 30
Width: 1000
Flags: W
HStem: -124.469 80<403.184 664.347>
VStem: 455.801 336.953<264.082 369.004> 461.453 79.9922<395.846 686.09>
LayerCount: 2
Fore
SplineSet
501.4453125 690.46875 m 0xa0
 479.641601562 690.46875 461.888671875 672.985351562 461.453125 651.28515625 c 0xa0
 455.80078125 369.412109375 455.80078125 369.412109375 455.80078125 369.00390625 c 0
 455.80078125 352.267578125 466.1015625 337.91796875 480.705078125 331.955078125 c 2
 737.658203125 227.033203125 l 2
 763.783203125 216.365234375 792.75390625 235.638671875 792.75390625 264.08203125 c 0xc0
 792.75390625 280.818359375 782.453125 295.16796875 767.849609375 301.130859375 c 2
 536.34375 395.662109375 l 1
 536.34375 395.662109375 541.4375 649.65234375 541.4453125 650.46875 c 0
 541.4453125 672.544921875 523.521484375 690.46875 501.4453125 690.46875 c 0xa0
534.694335938 -44.46875 m 0
 294.7734375 -44.46875 17.2431640625 152.040039062 226.450195312 545.237304688 c 0
 240.5234375 571.686523438 221.272460938 603.984375 191.11328125 603.984375 c 0
 175.809570312 603.984375 162.500976562 595.37109375 155.776367188 582.731445312 c 0
 -79.896484375 139.794921875 229.244140625 -124.46875 534.694335938 -124.46875 c 0
 819.002929688 -124.46875 1081.82714844 108.515625 842.493164062 582.862304688 c 0
 835.905273438 595.918945312 822.370117188 604.8828125 806.7578125 604.8828125 c 0
 776.966796875 604.8828125 757.698242188 573.311523438 771.022460938 546.903320312 c 0
 831.759765625 426.525390625 856.0078125 326.740234375 856.0078125 247.374023438 c 0
 856.0078125 38.0146484375 689.530273438 -44.46875 534.694335938 -44.46875 c 0
EndSplineSet
Validated: 41
EndChar

StartChar: uniE159
Encoding: 57689 57689 31
Width: 1000
Flags: W
LayerCount: 2
Fore
SplineSet
51.9873046875 -90.9951171875 m 2
 25.6455078125 -115.729492188 43.3505859375 -160.15625 79.35546875 -160.15625 c 0
 89.9384765625 -160.15625 99.56640625 -156.038085938 106.723632812 -149.317382812 c 2
 954.340820312 646.561523438 l 2
 980.682617188 671.295898438 962.977539062 715.72265625 926.97265625 715.72265625 c 0
 916.389648438 715.72265625 906.76171875 711.604492188 899.604492188 704.883789062 c 2
 51.9873046875 -90.9951171875 l 2
240.421875 495.072265625 m 2
 214.87890625 502.75 188.90625 483.583984375 188.90625 456.7578125 c 0
 188.90625 438.68359375 200.919921875 423.393554688 217.390625 418.443359375 c 2
 529.96875 324.498046875 l 2
 555.51171875 316.8203125 581.484375 335.986328125 581.484375 362.8125 c 0
 581.484375 380.88671875 569.470703125 396.176757812 553 401.126953125 c 2
 240.421875 495.072265625 l 2
EndSplineSet
Validated: 37
EndChar

StartChar: uniE15A
Encoding: 57690 57690 32
Width: 1000
Flags: W
VStem: 392.169 79.998<-91.199 -55.2754> 580.528 79.998<-95.6139 -59.7227 456.07 489.567>
LayerCount: 2
Fore
SplineSet
294.049804688 575.392578125 m 2
 269.953125 549.997070312 288.139648438 507.87109375 323.06640625 507.87109375 c 0
 334.484375 507.87109375 344.791992188 512.666015625 352.083007812 520.349609375 c 2
 387.495117188 557.669921875 l 1
 392.168945312 -55.896484375 l 2
 392.3359375 -77.830078125 410.1953125 -95.5859375 432.16796875 -95.5859375 c 0
 454.244140625 -95.5859375 472.16796875 -77.662109375 472.166992188 -55.275390625 c 2
 466.737304688 657.439453125 l 2
 466.46484375 693.18359375 422.428710938 710.688476562 397.721679688 684.650390625 c 2
 294.049804688 575.392578125 l 2
617.01171875 496.34765625 m 0
 594.935546875 496.34765625 577.01171875 478.423828125 577.012695312 456.0703125 c 2
 580.528320312 -60.27734375 l 2
 580.677734375 -82.2265625 598.54296875 -100 620.52734375 -100 c 0
 642.603515625 -100 660.52734375 -82.076171875 660.526367188 -59.72265625 c 2
 657.010742188 456.625 l 2
 656.861328125 478.57421875 638.99609375 496.34765625 617.01171875 496.34765625 c 0
EndSplineSet
Validated: 41
EndChar

StartChar: uniE15B
Encoding: 57691 57691 33
Width: 1000
Flags: W
VStem: 558.967 79.998<498.616 763.317>
LayerCount: 2
Fore
SplineSet
468.465820312 58.6142578125 m 2
 442.943359375 82.2060546875 401.328125 63.9248046875 401.328125 29.23828125 c 0
 401.328125 17.630859375 406.282226562 7.171875 414.190429688 -0.1376953125 c 2
 564.502929688 -139.083007812 l 2
 589.912109375 -162.5703125 631.336914062 -144.56640625 631.638671875 -110.063476562 c 2
 631.638671875 -110.063476562 638.962890625 727.338867188 638.96484375 727.6953125 c 0
 638.96484375 749.771484375 621.041015625 767.6953125 598.96484375 767.6953125 c 0
 577.006835938 767.6953125 559.158203125 749.96484375 558.966796875 728.051757812 c 2
 552.432617188 -19.0029296875 l 1
 468.465820312 58.6142578125 l 2
EndSplineSet
Validated: 41
EndChar

StartChar: uniE15C
Encoding: 57692 57692 34
Width: 1000
Flags: W
HStem: 143.574 80<120.046 155.772 909.931 944.24>
VStem: 477.012 80.5811<-149.31 -114.141 520.02 555.189>
LayerCount: 2
Fore
SplineSet
80.9453125 444.407226562 m 2
 49.328125 421.90625 65.4638671875 371.796875 104.1015625 371.796875 c 0
 112.728515625 371.796875 120.721679688 374.534179688 127.2578125 379.186523438 c 2
 510.979492188 652.282226562 l 1
 908.663085938 378.814453125 l 2
 935.048828125 360.670898438 971.2890625 379.68359375 971.2890625 411.796875 c 0
 971.2890625 425.478515625 964.405273438 437.565429688 953.915039062 444.779296875 c 2
 533.211914062 734.076171875 l 2
 531.329101562 735.370117188 509.696289062 749.551757812 487.4296875 733.704101562 c 2
 80.9453125 444.407226562 l 2
477.1875 520.098632812 m 0
 477.174804688 513.756835938 477.94921875 101.927734375 477.01171875 -114.140625 c 0
 477.01171875 -136.216796875 494.935546875 -154.140625 517.01171875 -154.140625 c 0
 539.029296875 -154.140625 556.916015625 -136.3125 557.01171875 -114.317382812 c 0
 557.451171875 -13.13671875 557.592773438 68.4697265625 557.592773438 138.805664062 c 0
 557.592773438 142.6171875 557.1875 346.333984375 557.1875 520.01953125 c 0
 557.1875 542.095703125 539.263671875 560.01953125 517.1875 560.01953125 c 0
 495.137695312 560.01953125 477.23046875 542.138671875 477.1875 520.098632812 c 0
115.6640625 183.57421875 m 0
 115.6640625 161.498046875 133.587890625 143.57421875 155.772460938 143.57421875 c 2
 910.147460938 145.5859375 l 2
 932.174804688 145.64453125 950.0390625 163.545898438 950.0390625 185.5859375 c 0
 950.0390625 207.662109375 932.115234375 225.5859375 909.930664062 225.5859375 c 2
 155.555664062 223.57421875 l 2
 133.528320312 223.515625 115.6640625 205.614257812 115.6640625 183.57421875 c 0
EndSplineSet
Validated: 37
EndChar

StartChar: uniE15D
Encoding: 57693 57693 35
Width: 1000
Flags: W
VStem: 498.328 79.9922<327.047 663.854>
LayerCount: 2
Fore
SplineSet
717.674804688 510.520507812 m 0
 802.549804688 394.305664062 846.053710938 205.0546875 768.114257812 92.7705078125 c 0
 653.18359375 -72.8125 317.865234375 -81.8466796875 227.69140625 107.294921875 c 0
 156.248046875 257.161132812 319.810546875 511.154296875 477.141601562 591.489257812 c 0
 500.979492188 603.661132812 539.103515625 618.870117188 574.03515625 614.184570312 c 0
 621.198242188 607.853515625 673.836914062 570.544921875 717.674804688 510.520507812 c 0
833.877929688 47.2294921875 m 0
 989.1328125 270.8984375 789.529296875 695.063476562 560.48828125 695.063476562 c 0
 341.995117188 695.063476562 41.837890625 311.23046875 155.43359375 72.939453125 c 0
 272.65625 -172.935546875 683.791015625 -169.004882812 833.877929688 47.2294921875 c 0
538.3203125 681.77734375 m 0
 516.509765625 681.77734375 498.752929688 664.283203125 498.328125 642.573242188 c 0
 491.640625 300.80859375 491.640625 300.80859375 491.640625 300.41015625 c 0
 491.640625 283.795898438 501.791992188 269.533203125 516.225585938 263.493164062 c 2
 820.288085938 136.247070312 l 2
 846.454101562 125.296875 875.703125 144.57421875 875.703125 173.1640625 c 0
 875.703125 189.778320312 865.551757812 204.041015625 851.118164062 210.081054688 c 2
 572.165039062 326.819335938 l 1
 572.165039062 326.819335938 578.3125 640.981445312 578.3203125 641.77734375 c 0
 578.3203125 663.853515625 560.396484375 681.77734375 538.3203125 681.77734375 c 0
EndSplineSet
Validated: 37
EndChar

StartChar: uniE15E
Encoding: 57694 57694 36
Width: 1000
Flags: W
VStem: 418.491 79.1895<162.447 285.845> 532.964 79.1895<261.245 384.642>
LayerCount: 2
Fore
SplineSet
557.669921875 -26.912109375 m 0
 731.159179688 -133.012695312 971.7109375 83.2529296875 936.6796875 297.052734375 c 0
 930.725585938 333.401367188 902.220703125 474.11328125 807.357421875 558.622070312 c 0
 729.86328125 627.658203125 623.396484375 638.844726562 517.275390625 531.3125 c 0
 492.416992188 506.123046875 510.452148438 463.22265625 545.7421875 463.22265625 c 0
 556.875976562 463.22265625 566.954101562 467.78125 574.208984375 475.1328125 c 0
 654.689453125 556.684570312 713.314453125 535.279296875 754.178710938 498.875 c 0
 824.293945312 436.413085938 860.0859375 309.716796875 860.0859375 254.850585938 c 0
 860.0859375 120.182617188 713.603515625 -12.7275390625 610.412109375 35.4248046875 c 0
 550.1796875 63.53125 513.211914062 147.548828125 497.680664062 256.00390625 c 0
 494.90625 275.37890625 478.223632812 290.29296875 458.0859375 290.29296875 c 0
 433.788085938 290.29296875 415.033203125 268.729492188 418.491210938 244.58203125 c 0
 427.3203125 182.926757812 454.092773438 36.4326171875 557.669921875 -26.912109375 c 0
472.971679688 574.000976562 m 0
 299.479492188 680.099609375 58.9140625 463.834960938 93.9453125 250.018554688 c 0
 99.904296875 213.666015625 128.424804688 72.9609375 223.287109375 -11.5419921875 c 0
 300.823242188 -80.611328125 407.28125 -91.720703125 513.349609375 15.7578125 c 0
 538.208007812 40.947265625 520.172851562 83.84765625 484.8828125 83.84765625 c 0
 473.749023438 83.84765625 463.670898438 79.2890625 456.416015625 71.9375 c 0
 375.942382812 -9.607421875 317.321289062 11.810546875 276.463867188 48.20703125 c 0
 206.345703125 110.666992188 170.5390625 237.359375 170.5390625 292.220703125 c 0
 170.5390625 426.900390625 317.032226562 559.817382812 420.229492188 511.663085938 c 0
 480.463867188 483.556640625 517.432617188 399.540039062 532.963867188 291.0859375 c 0
 535.73828125 271.7109375 552.420898438 256.796875 572.55859375 256.796875 c 0
 596.856445312 256.796875 615.611328125 278.360351562 612.153320312 302.5078125 c 0
 603.32421875 364.16015625 576.552734375 510.65625 472.971679688 574.000976562 c 0
EndSplineSet
Validated: 37
EndChar

StartChar: uniE15F
Encoding: 57695 57695 37
Width: 1000
Flags: W
VStem: 462.031 167.193<554.062 693.789>
LayerCount: 2
Fore
SplineSet
210.751953125 51.9404296875 m 0
 184.274414062 68.13671875 149.921875 48.9794921875 149.921875 17.79296875 c 0
 149.921875 3.3447265625 157.598632812 -9.32421875 169.091796875 -16.3544921875 c 0
 332.697265625 -116.431640625 575.643554688 -197.836914062 844.724609375 1.138671875 c 0
 875.63671875 23.9970703125 859.251953125 73.3203125 820.9765625 73.3203125 c 0
 812.087890625 73.3203125 803.872070312 70.4150390625 797.228515625 65.501953125 c 0
 626.653320312 -60.6318359375 437.045898438 -86.4833984375 210.751953125 51.9404296875 c 0
493.247070312 131.907226562 m 0
 519.65234375 114.0390625 555.625 133.076171875 555.625 165.05859375 c 0
 555.625 178.84765625 548.6328125 191.016601562 538.002929688 198.209960938 c 0
 459.836914062 251.104492188 480.466796875 285.833984375 545.79296875 373.087890625 c 0
 585.69921875 426.388671875 629.224609375 484.524414062 629.224609375 554.061523438 c 0
 629.224609375 613.323242188 596.338867188 670.89453125 526.618164062 725.333007812 c 0
 500.481445312 745.741210938 462.03125 726.970703125 462.03125 693.7890625 c 0
 462.03125 680.979492188 468.065429688 669.568359375 477.444335938 662.245117188 c 0
 590.912109375 573.647460938 552.116210938 515 481.71484375 420.967773438 c 0
 444.173828125 370.825195312 407.260742188 321.522460938 407.260742188 264.565429688 c 0
 407.260742188 193.737304688 466.784179688 149.815429688 493.247070312 131.907226562 c 0
EndSplineSet
Validated: 41
EndChar

StartChar: uniE160
Encoding: 57696 57696 38
Width: 1000
Flags: W
HStem: -171.141 80<407.158 634.811> 340.88 79.998<718.508 754.438 850.507 851.242>
VStem: 108.373 79.2832<271.494 413.968>
LayerCount: 2
Fore
SplineSet
176.766601562 268.701171875 m 0
 176.766601562 328.595703125 187.65625 368.864257812 187.65625 378.53515625 c 0
 187.65625 400.611328125 169.732421875 418.53515625 147.65625 418.53515625 c 0
 128.16796875 418.53515625 111.916015625 404.567382812 108.373046875 386.10546875 c 0
 41.1455078125 35.7548828125 278.181640625 -171.140625 521.399414062 -171.140625 c 0
 746.572265625 -171.140625 967.819335938 8.03125 926.974609375 386.25 c 0
 924.809570312 406.290039062 907.818359375 421.9140625 886.889648438 421.913085938 c 2
 753.803710938 420.877929688 l 2
 731.873046875 420.70703125 714.12109375 402.849609375 714.12109375 380.87890625 c 0
 714.12109375 358.802734375 732.044921875 340.87890625 754.438476562 340.879882812 c 2
 850.506835938 341.626953125 l 1
 869.173828125 40.3994140625 695.985351562 -91.140625 521.399414062 -91.140625 c 0
 356.061523438 -91.140625 176.766601562 29.291015625 176.766601562 268.701171875 c 0
EndSplineSet
Validated: 41
EndChar

StartChar: uniE166
Encoding: 57702 57702 39
Width: 1000
Flags: W
HStem: 263.301 80<65.8827 101.504> 407.207 80<217.504 253.125>
VStem: 872.891 80<5.98037 41.6016>
LayerCount: 2
Fore
SplineSet
872.890625 41.6015625 m 2
 872.890625 19.525390625 890.814453125 1.6015625 912.890625 1.6015625 c 0
 934.966796875 1.6015625 952.890625 19.525390625 952.890625 41.6015625 c 2
 952.890625 302.12890625 l 2
 952.890625 324.185546875 934.999023438 342.096679688 912.94921875 342.12890625 c 2
 101.50390625 343.30078125 l 2
 79.427734375 343.30078125 61.50390625 325.376953125 61.50390625 303.30078125 c 0
 61.50390625 281.244140625 79.3955078125 263.333007812 101.4453125 263.30078125 c 2
 872.890625 262.186523438 l 1
 872.890625 41.6015625 l 2
213.125 447.20703125 m 0
 213.125 425.137695312 231.037109375 407.217773438 253.104492188 407.20703125 c 2
 753.671875 406.953125 l 2
 791.643554688 406.953125 808.228515625 455.620117188 777.912109375 478.764648438 c 2
 678.751953125 554.467773438 l 2
 652.559570312 574.46484375 614.51171875 555.64453125 614.51171875 522.65625 c 0
 614.51171875 509.689453125 620.6953125 498.155273438 630.271484375 490.844726562 c 1
 253.125 487.20703125 l 2
 231.048828125 487.20703125 213.125 469.283203125 213.125 447.20703125 c 0
EndSplineSet
Validated: 41
EndChar

StartChar: uniE167
Encoding: 57703 57703 40
Width: 1000
Flags: W
VStem: 291.487 79.9941<-160.842 71.4293> 424.066 79.9922<174.424 745.197> 434.789 79.9922<-146.603 424.169> 566.46 79.1504<-158.346 -9.06295>
LayerCount: 2
Fore
SplineSet
331.484375 -165.234375 m 0x90
 353.560546875 -165.234375 371.484375 -147.310546875 371.481445312 -124.708007812 c 0
 369.428710938 34.07421875 298.376953125 448.826171875 178.331054688 624.321289062 c 0
 156.211914062 656.657226562 105.29296875 640.788085938 105.29296875 601.77734375 c 0
 105.29296875 593.41796875 107.86328125 585.654296875 112.254882812 579.233398438 c 0
 215.889648438 427.729492188 289.4453125 32.244140625 291.487304688 -125.760742188 c 0
 291.76953125 -147.594726562 309.583984375 -165.234375 331.484375 -165.234375 c 0x90
566.459960938 -116.926757812 m 0
 562.911132812 -141.11328125 581.6796875 -162.7734375 606.03515625 -162.7734375 c 0
 626.125976562 -162.7734375 642.77734375 -147.9296875 645.610351562 -128.620117188 c 0
 680.1015625 106.4609375 765.184570312 490.672851562 894.048828125 615.13671875 c 0
 919.841796875 640.048828125 902.008789062 683.90625 866.26953125 683.90625 c 0
 855.482421875 683.90625 845.6875 679.626953125 838.490234375 672.67578125 c 0
 774.458007812 610.830078125 717.569335938 499.765625 667.307617188 339.309570312 c 0
 614.830078125 171.778320312 582.149414062 -9.9990234375 566.459960938 -116.926757812 c 0
474.78515625 -150.99609375 m 0
 496.861328125 -150.99609375 514.78515625 -133.072265625 514.78125 -110.463867188 c 2xb0
 504.05859375 710.122070312 l 2
 503.7734375 731.954101562 485.961914062 749.58984375 464.0625 749.58984375 c 0
 441.986328125 749.58984375 424.0625 731.666015625 424.06640625 709.057617188 c 2xd0
 434.7890625 -111.528320312 l 2xb0
 435.07421875 -133.360351562 452.885742188 -150.99609375 474.78515625 -150.99609375 c 0
EndSplineSet
Validated: 41
EndChar

StartChar: uniE168
Encoding: 57704 57704 41
Width: 1000
Flags: W
HStem: 457.48 67.7422<488.843 533.214>
VStem: 287.378 77.9932<643.083 741.188> 472.843 80.4795<-136.026 -100.481 485.323 507.406> 654.848 78.5947<645.168 733.847>
LayerCount: 2
Fore
SplineSet
507.166015625 457.48046875 m 0
 660.108398438 457.48046875 783.013671875 556.752929688 733.442382812 710.672851562 c 0
 728.270507812 726.732421875 713.044921875 738.37890625 695.087890625 738.37890625 c 0
 672.87890625 738.37890625 654.84765625 720.5625 654.84765625 698.618164062 c 0
 654.84765625 685.590820312 664.106445312 671.461914062 664.106445312 643.884765625 c 0
 664.106445312 565.327148438 573.510742188 537.002929688 507.166015625 537.002929688 c 0
 442.041992188 537.002929688 352.604492188 564.380859375 352.604492188 641.58984375 c 0
 352.604492188 673.68359375 365.37109375 690.953125 365.37109375 705.9921875 c 0
 365.37109375 727.9375 347.33984375 745.75390625 325.130859375 745.75390625 c 0
 307.825195312 745.75390625 293.055664062 734.935546875 287.377929688 719.775390625 c 0
 227.853515625 560.8359375 351.193359375 457.48046875 507.166015625 457.48046875 c 0
511.051757812 525.22265625 m 0
 488.842773438 525.22265625 470.811523438 507.40625 470.811523438 485.323242188 c 2
 472.842773438 -100.759765625 l 2
 472.91796875 -122.640625 490.919921875 -140.381835938 513.083007812 -140.381835938 c 0
 535.291992188 -140.381835938 553.323242188 -122.565429688 553.322265625 -100.481445312 c 2
 551.291992188 485.600585938 l 2
 551.215820312 507.481445312 533.213867188 525.22265625 511.051757812 525.22265625 c 0
EndSplineSet
Validated: 37
EndChar

StartChar: uniE169
Encoding: 57705 57705 42
Width: 1000
Flags: W
VStem: 465.456 77.9248<321.092 406.658>
LayerCount: 2
Fore
SplineSet
83.33984375 -106.77734375 m 0
 83.33984375 -136.561523438 114.899414062 -155.831054688 141.306640625 -142.518554688 c 0
 302.522460938 -61.2470703125 443.728515625 51.78125 511.3671875 234.225585938 c 1
 587.135742188 55.71875 706.05859375 -85.5576171875 887.997070312 -163.450195312 c 0
 914.198242188 -174.66796875 943.7109375 -155.387695312 943.7109375 -126.66015625 c 0
 943.7109375 -110.161132812 933.69921875 -95.9814453125 919.424804688 -89.8701171875 c 0
 724.217773438 -6.2958984375 609.740234375 158.276367188 543.380859375 382.432617188 c 0
 538.481445312 398.984375 523.151367188 411.07421875 505.01953125 411.07421875 c 0
 484.955078125 411.07421875 468.321289062 396.26953125 465.456054688 376.997070312 c 0
 434.96875 171.977539062 315.129882812 34.70703125 105.373046875 -71.0361328125 c 0
 92.30859375 -77.62109375 83.33984375 -91.16015625 83.33984375 -106.77734375 c 0
498.026367188 717.439453125 m 0
 440.819335938 717.439453125 398.838867188 657.833984375 398.838867188 595.705078125 c 0
 398.838867188 510.09375 478.80859375 489.838867188 520.5625 489.838867188 c 0
 550.708007812 489.838867188 589.201171875 498.8984375 610.392578125 534.146484375 c 0
 650.064453125 600.077148438 574.12890625 717.439453125 498.026367188 717.439453125 c 0
481.228515625 583.083007812 m 0
 476.15234375 590.564453125 479.100585938 620.525390625 492.916992188 634.075195312 c 0
 495.66796875 636.7734375 497.23828125 637.282226562 498.102539062 637.418945312 c 0
 515.235351562 632.642578125 541.622070312 597.4375 541.354492188 574.889648438 c 0
 533.15234375 567.887695312 508.208007812 568.147460938 491.174804688 576.147460938 c 0
 484.712890625 579.182617188 481.580078125 582.565429688 481.228515625 583.083007812 c 0
EndSplineSet
Validated: 41
EndChar

StartChar: uniE16B
Encoding: 57707 57707 43
Width: 1000
Flags: W
HStem: 671.666 79.9883<616.557 895.248>
VStem: 451.68 79.998<-157.164 -121.979> 458.986 79.998<336.277 596.93>
LayerCount: 2
Fore
SplineSet
498.984375 601.30859375 m 0xa0
 477.052734375 601.30859375 459.220703125 583.620117188 458.986328125 561.744140625 c 0xa0
 451.6796875 -121.325195312 451.6796875 -121.325195312 451.6796875 -121.54296875 c 0
 451.6796875 -143.619140625 469.603515625 -161.54296875 491.6796875 -161.54296875 c 0
 513.611328125 -161.54296875 531.443359375 -143.854492188 531.677734375 -121.978515625 c 2xc0
 531.677734375 -121.978515625 538.982421875 560.873046875 538.984375 561.30859375 c 0
 538.984375 583.384765625 521.060546875 601.30859375 498.984375 601.30859375 c 0xa0
107.765625 423.618164062 m 0
 92.6669921875 397.138671875 111.879882812 363.84765625 142.5390625 363.84765625 c 0
 157.426757812 363.84765625 170.424804688 371.998046875 177.3125 384.077148438 c 0
 264.844726562 537.5859375 319.048828125 608.13671875 502.104492188 643.6484375 c 0
 587.526367188 660.219726562 702.5234375 668.913085938 860.689453125 671.666015625 c 0
 882.439453125 672.044921875 899.98046875 689.8203125 899.98046875 711.66015625 c 0
 899.98046875 733.736328125 882.056640625 751.66015625 859.271484375 751.654296875 c 0
 571.475585938 746.643554688 413.00390625 722.838867188 304.743164062 657.450195312 c 0
 216.126953125 603.926757812 165.774414062 525.3515625 107.765625 423.618164062 c 0
EndSplineSet
Validated: 41
EndChar

StartChar: uniE16C
Encoding: 57708 57708 44
Width: 1000
Flags: W
HStem: 406.747 80<637.23 810.413>
VStem: 157.221 80<8.95413 277.589> 492.484 80<508.351 622.084> 851.351 80<222.277 366.861>
LayerCount: 2
Fore
SplineSet
210.630859375 305.06640625 m 1
 352.528320312 276.61328125 572.484375 420.3359375 572.484375 570.279296875 c 0
 572.484375 614.353515625 553.27734375 681.21484375 454.133789062 732.760742188 c 0
 193.49609375 868.264648438 -30.7158203125 589.301757812 107.590820312 339.881835938 c 0
 144.193359375 273.877929688 157.220703125 207.740234375 157.220703125 146.625976562 c 0
 157.220703125 75.6298828125 139.2421875 10.9873046875 119.866210938 -35.4990234375 c 0
 115.477539062 -46.029296875 100.947265625 -79.474609375 85.01171875 -100.30078125 c 0
 51.650390625 -121.721679688 66.7890625 -173.994140625 106.743164062 -173.994140625 c 0
 125.37109375 -173.994140625 138.171875 -163.745117188 152.641601562 -143.443359375 c 0
 181.447265625 -103.02734375 237.220703125 8.630859375 237.220703125 146.625976562 c 0
 237.220703125 196.849609375 229.704101562 250.592773438 210.630859375 305.06640625 c 1
492.484375 570.279296875 m 0
 492.484375 484.958007812 350.125 381.387695312 249.27734375 381.387695312 c 0
 186.916992188 381.387695312 172.340820312 420.984375 169.577148438 462.239257812 c 0
 168.552734375 477.537109375 158.911132812 490.4921875 145.46875 496.284179688 c 0
 145.462890625 632.6640625 267.600585938 739.56640625 417.311523438 661.731445312 c 0
 461.403320312 638.80859375 492.484375 608.939453125 492.484375 570.279296875 c 0
725.23046875 486.747070312 m 0
 563.40234375 486.747070312 416.844726562 353.172851562 532.6796875 154.377929688 c 0
 539.61328125 142.477539062 552.51171875 134.47265625 567.265625 134.47265625 c 0
 598.083984375 134.47265625 617.283203125 168.084960938 601.8515625 194.567382812 c 0
 511.8515625 349.02734375 640.734375 406.747070312 725.23046875 406.747070312 c 0
 764.616210938 406.747070312 851.350585938 392.717773438 851.350585938 307.418945312 c 0
 851.350585938 279.640625 841.865234375 241.52734375 815.276367188 193.403320312 c 0
 800.651367188 166.934570312 819.883789062 134.1015625 850.3125 134.1015625 c 0
 865.391601562 134.1015625 878.533203125 142.463867188 885.348632812 154.799804688 c 0
 916.46484375 211.115234375 931.350585938 261.659179688 931.350585938 307.418945312 c 0
 931.350585938 419.176757812 839.92578125 486.747070312 725.23046875 486.747070312 c 0
EndSplineSet
Validated: 41
EndChar

StartChar: uniE16D
Encoding: 57709 57709 45
Width: 1000
Flags: W
HStem: 291.387 80<27.4285 62.5977 921.035 956.656>
LayerCount: 2
Fore
SplineSet
22.59765625 332.3046875 m 0
 22.59765625 310.2421875 40.4970703125 292.328125 62.5537109375 292.3046875 c 0
 921.013671875 291.38671875 921.013671875 291.38671875 921.03515625 291.38671875 c 0
 943.111328125 291.38671875 961.03515625 309.310546875 961.03515625 331.38671875 c 0
 961.03515625 353.44921875 943.135742188 371.36328125 921.079101562 371.38671875 c 2
 62.59765625 372.3046875 l 2
 40.521484375 372.3046875 22.59765625 354.380859375 22.59765625 332.3046875 c 0
705.653320312 525.884765625 m 2
 726.90625 551.888671875 708.248046875 591.171875 674.66796875 591.171875 c 0
 662.1796875 591.171875 651.020507812 585.436523438 643.682617188 576.458984375 c 2
 293.155273438 147.572265625 l 2
 271.90234375 121.568359375 290.560546875 82.28515625 324.140625 82.28515625 c 0
 336.62890625 82.28515625 347.788085938 88.0205078125 355.125976562 96.998046875 c 2
 705.653320312 525.884765625 l 2
EndSplineSet
Validated: 37
EndChar

StartChar: uniE16E
Encoding: 57710 57710 46
Width: 1000
Flags: W
HStem: 311.436 80.0098<525.512 604.242> 508.748 217.058<394.815 651.728>
VStem: 309.395 79.0752<-132.37 -58.3163> 613.928 80<401.588 478.423> 868.198 80<362.136 514.476>
LayerCount: 2
Fore
SplineSet
313.717773438 -57.3203125 m 0
 313.717773438 -78.765625 309.39453125 -87.501953125 309.39453125 -96.77734375 c 0
 309.39453125 -118.853515625 327.318359375 -136.77734375 349.39453125 -136.77734375 c 0
 368.525390625 -136.77734375 384.538085938 -123.317382812 388.469726562 -105.359375 c 0
 417.307617188 26.34765625 323.614257812 127.379882812 239.717773438 217.848632812 c 0
 125.026367188 341.522460938 63.146484375 417.1015625 184.783203125 532.50390625 c 0
 355.650390625 677.1171875 668.51171875 688.82421875 833.940429688 534.677734375 c 0
 858.766601562 499.697265625 868.198242188 467.090820312 868.198242188 436.943359375 c 0
 868.198242188 287.916992188 631.684570312 163.088867188 485.140625 227.659179688 c 0
 483.231445312 228.5 481.245117188 229.196289062 479.194335938 229.733398438 c 0
 435.194335938 241.260742188 409.973632812 261.9765625 395.071289062 285.620117188 c 0
 343.321289062 367.725585938 410.408203125 508.748046875 509.64453125 508.748046875 c 0
 533.140625 508.748046875 561.654296875 500.41796875 592.760742188 478.796875 c 0
 608.541992188 468.54296875 613.927734375 455.580078125 613.927734375 441.698242188 c 0
 613.927734375 416.415039062 594.5078125 391.435546875 561.1328125 391.4453125 c 0
 539.056640625 391.4453125 521.1328125 373.521484375 521.1328125 351.4453125 c 0
 521.1328125 329.555664062 538.752929688 311.75 562.568359375 311.435546875 c 0
 642.149414062 311.435546875 693.927734375 376.428710938 693.927734375 441.698242188 c 0
 693.927734375 480.645507812 675.080078125 520.709960938 636.262695312 545.9296875 c 0
 465.23828125 664.807617188 297.071289062 515.969726562 297.071289062 351.837890625 c 0
 297.071289062 314.455078125 306.202148438 276.587890625 327.342773438 243.047851562 c 0
 353.505859375 201.537109375 397.110351562 169.235351562 455.853515625 153.150390625 c 0
 652.643554688 69.25 948.198242188 227.545898438 948.198242188 436.943359375 c 0
 948.198242188 486.278320312 931.494140625 536.8359375 896.466796875 584.729492188 c 0
 893.943359375 588.181640625 770.314453125 725.805664062 519.633789062 725.805664062 c 0
 379.221679688 725.805664062 236.8671875 681.373046875 133.146484375 593.58984375 c 0
 -2.9765625 464.444335938 36.091796875 356.740234375 77.462890625 289.846679688 c 0
 152.391601562 168.694335938 313.717773438 64.6708984375 313.717773438 -57.3203125 c 0
EndSplineSet
Validated: 41
EndChar

StartChar: uniE16F
Encoding: 57711 57711 47
Width: 1000
Flags: W
HStem: 110.273 80<35.2186 70.8398> 471.805 80<669.056 810.473>
VStem: 870.312 79.0342<114.652 272.127>
LayerCount: 2
Fore
SplineSet
885.369140625 275.145507812 m 0
 885.369140625 210.516601562 870.3125 161.319335938 870.3125 150.2734375 c 0
 870.3125 128.197265625 888.236328125 110.2734375 910.3125 110.2734375 c 0
 929.377929688 110.2734375 945.344726562 123.640625 949.346679688 141.505859375 c 0
 1013.26953125 426.88671875 873.94140625 551.8046875 741.301757812 551.8046875 c 0
 599.09765625 551.8046875 461.467773438 412.271484375 523.76171875 190.2734375 c 1
 70.83984375 190.2734375 l 2
 48.763671875 190.2734375 30.83984375 172.349609375 30.83984375 150.2734375 c 0
 30.83984375 128.197265625 48.763671875 110.2734375 70.83984375 110.2734375 c 2
 579.78515625 110.2734375 l 2
 608.19921875 110.2734375 627.471679688 139.1875 616.860351562 165.3046875 c 0
 536.180664062 363.884765625 642.280273438 471.8046875 741.301757812 471.8046875 c 0
 817.970703125 471.8046875 885.369140625 408.94921875 885.369140625 275.145507812 c 0
EndSplineSet
Validated: 41
EndChar

StartChar: uniE170
Encoding: 57712 57712 48
Width: 1000
Flags: W
VStem: 162.834 181.131<-20.9375 138.994> 327.495 80<411.072 517.391> 544.902 80.0967<261.581 314.233> 633.361 181.131<-27.5 132.432> 798.022 80<404.509 510.829>
LayerCount: 2
Fore
SplineSet
310.376953125 617.526367188 m 0x60
 283.95703125 635.168945312 248.203125 616.114257812 248.203125 584.23828125 c 0
 248.203125 570.361328125 255.28515625 558.125 266.029296875 550.950195312 c 0
 327.032226562 510.212890625 327.495117188 480.69921875 327.495117188 470.345703125 c 0x60
 327.495117188 387.1328125 162.833984375 278.166015625 162.833984375 138.994140625 c 0
 162.833984375 73.2294921875 199.616210938 8.978515625 279.581054688 -52.6396484375 c 0
 305.751953125 -72.8056640625 343.96484375 -54.0048828125 343.96484375 -20.9375 c 0xa0
 343.96484375 -8.03515625 337.842773438 3.4482421875 328.348632812 10.7646484375 c 0
 192.05078125 115.790039062 240.954101562 187.4296875 322.256835938 294.588867188 c 0
 365.369140625 351.412109375 407.495117188 406.936523438 407.495117188 470.345703125 c 0
 407.495117188 547.610351562 342.44921875 596.109375 310.376953125 617.526367188 c 0x60
780.904296875 610.963867188 m 0
 754.484375 628.606445312 718.73046875 609.551757812 718.73046875 577.67578125 c 0
 718.73046875 563.798828125 725.8125 551.5625 736.556640625 544.387695312 c 0
 797.559570312 503.650390625 798.022460938 474.13671875 798.022460938 463.783203125 c 0x28
 798.022460938 380.5703125 633.361328125 271.603515625 633.361328125 132.431640625 c 0
 633.361328125 66.6669921875 670.143554688 2.416015625 750.108398438 -59.2021484375 c 0
 776.279296875 -79.3681640625 814.4921875 -60.5673828125 814.4921875 -27.5 c 0x30
 814.4921875 -14.59765625 808.370117188 -3.1142578125 798.875976562 4.2021484375 c 0
 662.578125 109.227539062 711.481445312 180.8671875 792.784179688 288.026367188 c 0
 835.896484375 344.849609375 878.022460938 400.374023438 878.022460938 463.783203125 c 0x28
 878.022460938 541.047851562 812.9765625 589.546875 780.904296875 610.963867188 c 0
499.354492188 412.715820312 m 0
 441.288085938 412.715820312 398.604492188 352.005859375 398.604492188 288.8046875 c 0
 398.604492188 201.350585938 480.639648438 181.184570312 522.546875 181.184570312 c 0
 584.45703125 181.184570312 624.999023438 217.721679688 624.999023438 268.64453125 c 0
 624.999023438 330.650390625 564.426757812 412.715820312 499.354492188 412.715820312 c 0
481.239257812 275.264648438 m 0
 475.680664062 283.450195312 478.890625 314.739257812 493.383789062 328.953125 c 0
 496.469726562 331.98046875 498.299804688 332.544921875 499.408203125 332.700195312 c 0
 518.330078125 327.1953125 545.356445312 290.978515625 544.90234375 266.97265625 c 0
 530.798828125 254.888671875 488.920898438 263.953125 481.239257812 275.264648438 c 0
EndSplineSet
Validated: 41
EndChar

StartChar: uniE171
Encoding: 57713 57713 49
Width: 1000
Flags: W
HStem: 31.1123 80.1602<922.466 957.674> 38.1641 80.1602<48.9987 313.664> 202.982 80.1621<408.196 563.017>
VStem: 291.792 79.8379<316.487 441.947>
LayerCount: 2
Fore
SplineSet
483.734375 283.14453125 m 0x30
 424.680664062 283.14453125 371.629882812 314.516601562 371.629882812 368.556640625 c 0
 371.629882812 385.654296875 376.51953125 406.59765625 385.903320312 427.989257812 c 0
 417.841796875 500.79296875 487.208007812 555.41796875 519.916992188 550.979492188 c 0
 533.905273438 549.084960938 554.880859375 536.022460938 573.75 509.928710938 c 0
 608.913085938 461.299804688 628.497070312 379.587890625 597.341796875 334.25390625 c 0
 576.318359375 303.651367188 531.139648438 283.14453125 483.734375 283.14453125 c 0x30
692.799804688 392.596679688 m 0
 692.799804688 505.493164062 612.060546875 631.37109375 516.340820312 631.37109375 c 0
 414.337890625 631.37109375 291.791992188 486.903320312 291.791992188 368.556640625 c 0
 291.791992188 270.463867188 377.434570312 202.982421875 483.734375 202.982421875 c 0
 579.666015625 202.982421875 692.799804688 259.327148438 692.799804688 392.596679688 c 0
44.62890625 78.2431640625 m 0
 44.62890625 56.236328125 62.33203125 38.34765625 84.20703125 38.1640625 c 0x70
 921.954101562 31.1123046875 921.954101562 31.1123046875 922.125 31.1123046875 c 0
 944.15625 31.1123046875 962.043945312 49.072265625 962.043945312 71.193359375 c 0
 962.043945312 93.2001953125 944.340820312 111.088867188 922.465820312 111.272460938 c 2xb0
 922.465820312 111.272460938 84.888671875 118.323242188 84.5478515625 118.32421875 c 0x70
 62.515625 118.32421875 44.62890625 100.364257812 44.62890625 78.2431640625 c 0
EndSplineSet
Validated: 41
EndChar

StartChar: uniE172
Encoding: 57714 57714 50
Width: 1000
Flags: W
HStem: 403.131 80<461.07 594.61>
VStem: 104.068 79.3428<380.272 414.067> 868.101 79.9854<138.712 390.456>
LayerCount: 2
Fore
SplineSet
531.071289062 483.130859375 m 0
 404.486328125 483.130859375 292.500976562 374.716796875 380.8046875 219.002929688 c 0
 387.6796875 206.87890625 400.704101562 198.69140625 415.625 198.69140625 c 0
 446.243164062 198.69140625 465.459960938 231.90234375 450.4453125 258.379882812 c 0
 387.233398438 369.848632812 481.168945312 403.130859375 531.071289062 403.130859375 c 0
 547.655273438 403.130859375 612.470703125 399.24609375 612.470703125 338.518554688 c 0
 612.470703125 319.659179688 606.125 292.462890625 587.2265625 257.321289062 c 0
 572.999023438 230.865234375 592.24609375 198.41796875 622.48046875 198.41796875 c 0
 637.721679688 198.41796875 650.983398438 206.959960938 657.734375 219.514648438 c 0
 747.796875 386.987304688 647.440429688 483.130859375 531.071289062 483.130859375 c 0
139.39453125 420.9375 m 0
 117.318359375 420.9375 99.39453125 403.013671875 99.400390625 380.272460938 c 2
 104.068359375 94.4521484375 l 2
 104.423828125 72.681640625 122.208007812 55.1171875 144.266601562 55.1181640625 c 2
 901.473632812 58.9072265625 l 2
 923.094726562 59.0146484375 940.682617188 76.314453125 941.254882812 97.82421875 c 2
 941.254882812 97.82421875 948.071289062 354.0546875 948.0859375 355.13671875 c 0
 948.0859375 377.212890625 930.162109375 395.13671875 908.0859375 395.13671875 c 0
 886.37109375 395.13671875 868.674804688 377.795898438 868.100585938 356.21875 c 2
 862.314453125 138.711914062 l 1
 183.411132812 135.314453125 l 1
 179.388671875 381.602539062 l 2
 179.033203125 403.373046875 161.249023438 420.9375 139.39453125 420.9375 c 0
EndSplineSet
Validated: 41
EndChar

StartChar: uniE173
Encoding: 57715 57715 51
Width: 1000
Flags: W
HStem: 308.616 80<378.658 639.194>
VStem: 191.664 79.7324<109.529 225.494> 365.195 79.916<-178.889 -125.657> 430.005 80<479.942 548.813> 513.721 80<628.522 700.261> 728.809 80<171.273 247.323>
LayerCount: 2
Fore
SplineSet
365.790039062 -125.325195312 m 0xec
 365.790039062 -132.341796875 365.1953125 -143.178710938 365.1953125 -143.359375 c 0
 365.1953125 -165.435546875 383.119140625 -183.359375 405.1953125 -183.359375 c 0
 426.396484375 -183.359375 443.766601562 -166.830078125 445.111328125 -145.965820312 c 0
 453.599609375 -14.2734375 380.662109375 40.302734375 327.795898438 79.859375 c 0
 278.705078125 116.591796875 271.396484375 127.577148438 271.396484375 155.73046875 c 0
 271.396484375 278.747070312 415.642578125 308.616210938 504.693359375 308.616210938 c 0
 620.883789062 308.616210938 728.80859375 262.825195312 728.80859375 206.89453125 c 0
 728.80859375 184.818359375 746.732421875 166.89453125 768.80859375 166.89453125 c 0
 790.870117188 166.89453125 808.784179688 184.793945312 808.80859375 206.990234375 c 0
 808.80859375 320.286132812 662.193359375 388.616210938 504.693359375 388.616210938 c 0
 327.079101562 388.616210938 184.358398438 302.322265625 191.6640625 144.239257812 c 0
 194.7890625 76.7080078125 245.266601562 41.708984375 279.934570312 15.767578125 c 0
 330.104492188 -21.771484375 365.790039062 -51.337890625 365.790039062 -125.325195312 c 0xec
533.416992188 771.215820312 m 0
 507.578125 793.370117188 467.40234375 774.844726562 467.40234375 740.83984375 c 0
 467.40234375 728.692382812 472.829101562 717.802734375 481.387695312 710.463867188 c 0
 511.198242188 684.904296875 513.720703125 670.633789062 513.720703125 665.174804688 c 0
 513.720703125 631.4375 430.004882812 585.884765625 430.004882812 512.8515625 c 0
 430.004882812 475.114257812 451.913085938 441.262695312 489.006835938 409.951171875 c 0
 514.901367188 388.091796875 554.78515625 406.661132812 554.78515625 440.52734375 c 0
 554.78515625 452.786132812 549.258789062 463.763671875 540.563476562 471.103515625 c 0
 511.948242188 495.258789062 510.004882812 508.37890625 510.004882812 512.8515625 c 0xdc
 510.004882812 544.840820312 593.720703125 591.306640625 593.720703125 665.174804688 c 0
 593.720703125 703.565429688 571.6484375 738.435546875 533.416992188 771.215820312 c 0
EndSplineSet
Validated: 41
EndChar

StartChar: uniE174
Encoding: 57716 57716 52
Width: 1000
VStem: 343.107 78.1621<16.792 100.947>
LayerCount: 2
Fore
SplineSet
698.826171875 661.666015625 m 0
 769.737304688 661.666015625 761.748046875 567.768554688 710.5625 469.526367188 c 0
 677.030273438 405.166992188 619.768554688 326.458007812 531.631835938 236.516601562 c 0
 521.717773438 245.711914062 511.362304688 254.668945312 500.615234375 263.360351562 c 0
 369.728515625 369.213867188 286.616210938 528.85546875 286.616210938 609.748046875 c 0
 286.616210938 626.051757812 290.24609375 636.022460938 293.442382812 640.65234375 c 0
 304.961914062 657.338867188 345.1328125 649.905273438 379.529296875 637.4296875 c 0
 411.782226562 625.731445312 452.837890625 605.15625 502.409179688 573.760742188 c 0
 518.237304688 563.736328125 539.177734375 566.009765625 552.493164062 579.751953125 c 0
 610.076171875 639.176757812 665.189453125 661.666015625 698.826171875 661.666015625 c 0
830.287109375 599.814453125 m 0
 830.287109375 746.216796875 676.416992188 801.6328125 518.2578125 657.9140625 c 1
 401.33984375 727.509765625 324.221679688 742.227539062 272.857421875 721.874023438 c 0
 198.864257812 692.552734375 175.436523438 589.989257812 262.3984375 428.44921875 c 0
 305.479492188 348.421875 370.626953125 265.615234375 450.361328125 201.131835938 c 0
 494.475585938 165.451171875 529.561523438 125.4375 551.291992188 86.716796875 c 0
 579.62109375 36.2421875 593.991210938 -25.275390625 545.702148438 -76.2763671875 c 0
 512.1640625 -111.692382812 413.270507812 -68.837890625 413.270507812 15.580078125 c 0
 413.270507812 41.6689453125 421.26953125 52.6904296875 421.26953125 65.52734375 c 0
 421.26953125 87.603515625 403.345703125 105.52734375 381.26953125 105.52734375 c 0
 363.377929688 105.52734375 348.213867188 93.7548828125 343.107421875 77.5400390625 c 0
 299.657226562 -60.44140625 408.208984375 -168.80859375 512.703125 -168.80859375 c 0
 545.192382812 -168.80859375 578.801757812 -157.6484375 603.790039062 -131.262695312 c 0
 639.90625 -93.1162109375 657.270507812 -46.9326171875 657.270507812 0.2568359375 c 0
 657.270507812 41.8486328125 644.041992188 104.219726562 586.100585938 177.823242188 c 1
 681.0703125 274.283203125 830.287109375 449.720703125 830.287109375 599.814453125 c 0
EndSplineSet
Validated: 41
EndChar

StartChar: uniE17A
Encoding: 57722 57722 53
Width: 1000
Flags: W
HStem: -13.1953 705.868<319.582 676.922>
LayerCount: 2
Fore
SplineSet
280.944335938 118.509765625 m 0
 189.290039062 308.7734375 297.178710938 632.19921875 500.801757812 611.725585938 c 0
 686.91015625 593.021484375 873.553710938 329.990234375 793.641601562 147.28515625 c 0
 749.041015625 45.3154296875 626.950195312 -13.1953125 514.780273438 -13.1953125 c 0
 413.653320312 -13.1953125 322.748046875 31.7001953125 280.944335938 118.509765625 c 0
866.975585938 115.287109375 m 0
 974.31640625 360.702148438 726.893554688 692.672851562 482.155273438 692.672851562 c 0
 225.510742188 692.672851562 95.9541015625 318.173828125 208.821289062 83.873046875 c 0
 303.056640625 -111.8125 574.249023438 -144.047851562 753.737304688 -19.0791015625 c 0
 807.248046875 18.181640625 844.770507812 64.51953125 866.975585938 115.287109375 c 0
82.4462890625 -76.1748046875 m 2
 57.728515625 -101.404296875 75.79296875 -144.16015625 111.015625 -144.16015625 c 0
 122.202148438 -144.16015625 132.322265625 -139.55859375 139.584960938 -132.145507812 c 2
 918.334960938 662.717773438 l 2
 943.052734375 687.947265625 924.98828125 730.703125 889.765625 730.703125 c 0
 878.579101562 730.703125 868.458984375 726.1015625 861.196289062 718.688476562 c 2
 82.4462890625 -76.1748046875 l 2
EndSplineSet
Validated: 37
EndChar

StartChar: vo
Encoding: 57636 57636 54
Width: 500
Flags: W
HStem: 427.027 50.707<221.592 252.916>
VStem: 182.812 79.9756<171.51 205.463> 390.166 80<542.345 663.363>
LayerCount: 2
Fore
SplineSet
289.369140625 427.02734375 m 0
 396.798828125 427.02734375 470.166015625 506.958984375 470.166015625 601.12109375 c 0
 470.166015625 661.104492188 439.575195312 722.626953125 377.688476562 765.141601562 c 0
 351.301757812 783.267578125 315.078125 764.25390625 315.078125 732.1484375 c 0
 315.078125 718.459960938 321.96875 706.368164062 332.467773438 699.155273438 c 0
 374.455078125 670.3125 390.166015625 633.642578125 390.166015625 601.12109375 c 0
 390.166015625 513.846679688 279.251953125 448.42578125 114.163085938 588.552734375 c 0
 88.287109375 610.515625 48.30078125 591.961914062 48.30078125 558.046875 c 0
 48.30078125 545.827148438 53.7919921875 534.880859375 62.4384765625 527.541015625 c 0
 144.454101562 457.926757812 221.591796875 427.02734375 289.369140625 427.02734375 c 0
230.83984375 477.734375 m 0
 209.236328125 477.734375 191.609375 460.5703125 190.864257812 439.146484375 c 0
 182.8125 207.58203125 182.8125 207.58203125 182.8125 206.875 c 0
 182.8125 184.798828125 200.736328125 166.875 222.8125 166.875 c 0
 244.416015625 166.875 262.04296875 184.0390625 262.788085938 205.462890625 c 2
 262.788085938 205.462890625 270.815429688 436.322265625 270.83984375 437.734375 c 0
 270.83984375 459.810546875 252.916015625 477.734375 230.83984375 477.734375 c 0
EndSplineSet
Validated: 37
EndChar

StartChar: uniE17B
Encoding: 57723 57723 55
Width: 1000
Flags: W
VStem: 742.512 76.8516<623.041 710.751>
LayerCount: 2
Fore
SplineSet
305.844726562 701.784179688 m 0
 283.073242188 732.873046875 233.5546875 716.548828125 233.5546875 678.18359375 c 0
 233.5546875 669.360351562 236.41796875 661.200195312 241.264648438 654.583007812 c 0
 390.14453125 451.32421875 350.166992188 197.337890625 298.423828125 -77.7880859375 c 0
 293.793945312 -102.405273438 312.702148438 -125.21484375 337.734375 -125.21484375 c 0
 351.827148438 -125.21484375 364.227539062 -117.911132812 371.353515625 -106.885742188 c 0
 408.06640625 -50.08203125 448.935546875 8.345703125 490.94921875 68.388671875 c 0
 618.036132812 250.014648438 756.442382812 446.3984375 819.36328125 663.5078125 c 0
 826.744140625 688.977539062 807.59765625 714.6484375 780.9375 714.6484375 c 0
 762.7265625 714.6484375 747.340820312 702.452148438 742.51171875 685.7890625 c 0
 684.666015625 486.189453125 552.62109375 296.056640625 425.357421875 114.176757812 c 0
 419.693359375 106.083007812 414.041015625 98.0048828125 408.407226562 89.9423828125 c 1
 438.649414062 300.801757812 440.51171875 517.9296875 305.844726562 701.784179688 c 0
EndSplineSet
Validated: 41
EndChar

StartChar: uniE17C
Encoding: 57724 57724 56
Width: 1000
HStem: 197.48 80<85.5363 121.35 894.49 927.842> 197.48 49.1016<267.334 312.425 687.429 732.399> 394.933 80<570.298 724.983> 556.731 80<236.272 379.085>
LayerCount: 2
Fore
SplineSet
81.15234375 237.48046875 m 0xb0
 81.15234375 215.404296875 99.076171875 197.48046875 121.349609375 197.48046875 c 2
 894.884765625 201.23046875 l 2
 916.87109375 201.337890625 934.6875 219.219726562 934.6875 241.23046875 c 0
 934.6875 263.306640625 916.763671875 281.23046875 894.490234375 281.23046875 c 2
 120.955078125 277.48046875 l 2
 98.96875 277.373046875 81.15234375 259.491210938 81.15234375 237.48046875 c 0xb0
121.159179688 237.48828125 m 1
 894.681640625 241.232421875 l 1025
642.661132812 474.932617188 m 0
 524.697265625 474.932617188 457.23828125 636.731445312 311.555664062 636.731445312 c 0
 244.24609375 636.731445312 172.059570312 602.083984375 85.1953125 522.15234375 c 0
 58.4599609375 497.55078125 76.0703125 452.71484375 112.265625 452.71484375 c 0
 122.702148438 452.71484375 132.2109375 456.720703125 139.3359375 463.27734375 c 0
 219.374023438 536.926757812 273.725585938 556.731445312 311.555664062 556.731445312 c 0
 419.172851562 556.731445312 486.748046875 394.932617188 642.661132812 394.932617188 c 0
 722.813476562 394.932617188 812.337890625 438.15234375 926.407226562 544.803710938 c 0
 952.83203125 569.510742188 935.146484375 614.0234375 899.1015625 614.0234375 c 0
 888.549804688 614.0234375 878.946289062 609.928710938 871.795898438 603.243164062 c 0
 763.951171875 502.411132812 691.868164062 474.932617188 642.661132812 474.932617188 c 0
146.305664062 -50.109375 m 2
 136.645507812 -76.0712890625 155.895507812 -104.04296875 183.80859375 -104.04296875 c 0
 200.986328125 -104.04296875 215.649414062 -93.19140625 221.311523438 -77.9765625 c 2
 322.014648438 192.6484375 l 2
 331.674804688 218.610351562 312.424804688 246.58203125 284.51171875 246.58203125 c 0x70
 267.333984375 246.58203125 252.670898438 235.73046875 247.008789062 220.515625 c 2
 146.305664062 -50.109375 l 2
807.0703125 -115.09765625 m 0
 834.290039062 -115.09765625 853.491210938 -88.4091796875 845.109375 -62.703125 c 2
 752.6875 220.75390625 l 2
 747.46484375 236.771484375 732.399414062 248.359375 714.6484375 248.359375 c 0
 687.428710938 248.359375 668.227539062 221.670898438 676.609375 195.96484375 c 2
 769.03125 -87.4921875 l 2
 774.25390625 -103.509765625 789.319335938 -115.09765625 807.0703125 -115.09765625 c 0
EndSplineSet
Validated: 43
EndChar

StartChar: uniE17F
Encoding: 57727 57727 57
Width: 1000
Flags: W
HStem: 311.334 383.464<282.848 647.03> 335.16 80<580.788 650.082>
VStem: 238.33 80<200.871 309.285>
LayerCount: 2
Fore
SplineSet
519.283203125 694.797851562 m 0xa0
 242.762695312 694.797851562 -46.203125 407.6796875 168.8671875 -90.09375 c 0
 175.006835938 -104.302734375 189.15234375 -114.2578125 205.60546875 -114.2578125 c 0
 234.389648438 -114.2578125 253.670898438 -84.6376953125 242.34375 -58.421875 c 0
 -18.345703125 544.935546875 536.116210938 759.993164062 736.3515625 516.359375 c 0
 762.360351562 484.713867188 889.3984375 327.34375 730.64453125 -60.1337890625 c 0
 719.938476562 -86.2646484375 739.211914062 -115.2734375 767.67578125 -115.2734375 c 0
 784.395507812 -115.2734375 798.733398438 -104.9921875 804.70703125 -90.4130859375 c 0
 1024.43359375 445.880859375 774.776367188 694.797851562 519.283203125 694.797851562 c 0xa0
492.712890625 345.072265625 m 0
 344.287109375 436.94921875 238.330078125 380.696289062 238.330078125 276.181640625 c 0
 238.330078125 184.930664062 314.93359375 61.65234375 456.442382812 -74.6298828125 c 0
 470.553710938 -88.220703125 492.29296875 -89.5341796875 507.887695312 -78.03125 c 0
 660.965820312 34.875 733.817382812 184.2890625 733.817382812 289.15234375 c 0
 733.817382812 374.948242188 685.34375 415.16015625 632.16015625 415.16015625 c 0x60
 584.85546875 415.16015625 536.235351562 384.89453125 492.712890625 345.072265625 c 0
318.330078125 276.181640625 m 0
 318.330078125 295.004882812 322.93359375 311.333984375 354.133789062 311.333984375 c 0xa0
 380.358398438 311.333984375 424.0234375 297.310546875 474.077148438 261.34375 c 0
 490.047851562 249.8671875 512.165039062 251.682617188 526.057617188 265.970703125 c 0
 540.755859375 281.0859375 595.872070312 335.16015625 632.16015625 335.16015625 c 0
 636.978515625 335.16015625 643.756835938 335.16015625 649.143554688 320.603515625 c 0
 668.357421875 268.681640625 631.296875 126.383789062 487.254882812 7.3056640625 c 1
 420.642578125 74.5986328125 376.446289062 133.138671875 350.229492188 180.493164062 c 0
 326.702148438 222.990234375 318.330078125 255.993164062 318.330078125 276.181640625 c 0
EndSplineSet
Validated: 41
EndChar

StartChar: uniE180
Encoding: 57728 57728 58
Width: 1000
Flags: W
HStem: -179.581 80<167.723 345.364> -164.12 80<656.844 834.5> 293.858 80<425.066 602.723>
VStem: 32.4941 80<-50.3934 89.8306> 289.838 80<423.067 563.274> 521.628 80<-34.9047 105.305>
LayerCount: 2
Fore
SplineSet
253.814453125 -99.5810546875 m 0xbc
 178.854492188 -99.5810546875 112.494140625 -59.123046875 112.494140625 9.1455078125 c 0
 112.494140625 30.763671875 118.641601562 56.5107421875 130.151367188 82.5771484375 c 0
 144.521484375 115.120117188 166.911132812 147.705078125 192.08984375 173.934570312 c 0
 197.319335938 179.383789062 255.235351562 238.5625 298.041015625 232.80078125 c 0
 317.765625 230.145507812 344.200195312 212.939453125 367.37890625 181.083007812 c 0
 411.064453125 121.04296875 434.881835938 21.056640625 395.61328125 -35.7236328125 c 0
 368.684570312 -74.6728515625 312.260742188 -99.5810546875 253.814453125 -99.5810546875 c 0xbc
461.45703125 -81.1513671875 m 0
 556.58203125 56.3955078125 437.344726562 313.140625 292.745117188 313.140625 c 0
 175.897460938 313.140625 32.494140625 145.775390625 32.494140625 9.1455078125 c 0
 32.494140625 -102.966796875 131.365234375 -179.581054688 253.814453125 -179.581054688 c 0
 331.921875 -179.581054688 414.829101562 -148.58984375 461.45703125 -81.1513671875 c 0
742.956054688 -84.1201171875 m 0x7c
 667.931640625 -84.1201171875 601.627929688 -43.6005859375 601.627929688 24.625 c 0
 601.627929688 46.2392578125 607.774414062 71.9853515625 619.284179688 98.0498046875 c 0
 633.653320312 130.591796875 656.041992188 163.17578125 681.21875 189.405273438 c 0
 686.448242188 194.853515625 744.360351562 254.030273438 787.162109375 248.26953125 c 0
 806.892578125 245.609375 833.32421875 228.397460938 856.504882812 196.537109375 c 0
 900.184570312 136.502929688 924.01171875 36.5234375 884.751953125 -20.2587890625 c 0
 857.811523438 -59.2197265625 801.395507812 -84.1201171875 742.956054688 -84.1201171875 c 0x7c
950.599609375 -65.6787109375 m 0
 1045.71582031 71.8896484375 926.426757812 328.609375 781.8671875 328.609375 c 0
 665.028320312 328.609375 521.627929688 161.249023438 521.627929688 24.625 c 0
 521.627929688 -87.470703125 620.484375 -164.120117188 742.956054688 -164.120117188 c 0
 821.060546875 -164.120117188 903.966796875 -133.120117188 950.599609375 -65.6787109375 c 0
511.17578125 373.858398438 m 0
 436.17578125 373.858398438 369.837890625 414.360351562 369.837890625 482.595703125 c 0
 369.837890625 504.209960938 375.985351562 529.955078125 387.495117188 556.018554688 c 0
 401.864257812 588.560546875 424.254882812 621.143554688 449.432617188 647.373046875 c 0
 454.663085938 652.822265625 512.579101562 712 555.384765625 706.23828125 c 0
 575.110351562 703.583007812 601.546875 686.375 624.727539062 654.514648438 c 0
 668.411132812 594.475585938 692.232421875 494.489257812 652.974609375 437.709960938 c 0
 626.03515625 398.756835938 569.618164062 373.858398438 511.17578125 373.858398438 c 0
718.822265625 392.290039062 m 0
 813.923828125 529.837890625 694.686523438 786.578125 550.088867188 786.578125 c 0
 433.24609375 786.578125 289.837890625 619.21875 289.837890625 482.595703125 c 0
 289.837890625 370.510742188 388.700195312 293.858398438 511.17578125 293.858398438 c 0
 589.283203125 293.858398438 672.188476562 324.859375 718.822265625 392.290039062 c 0
EndSplineSet
Validated: 41
EndChar

StartChar: uniE181
Encoding: 57729 57729 59
Width: 1000
Flags: W
LayerCount: 2
Fore
SplineSet
922.299804688 120.455078125 m 2
 936.427734375 146.907226562 917.177734375 179.2578125 886.9921875 179.2578125 c 0
 871.709960938 179.2578125 858.418945312 170.669921875 851.684570312 158.060546875 c 2
 803.352539062 67.564453125 l 1
 764.248046875 307.7578125 676.953125 555.479492188 374.955078125 716.772460938 c 0
 348.502929688 730.900390625 316.15234375 711.650390625 316.15234375 681.46484375 c 0
 316.15234375 666.18359375 324.740234375 652.891601562 337.349609375 646.157226562 c 0
 641.134765625 483.909179688 706.844726562 231.040039062 740.571289062 -65.056640625 c 0
 744.96484375 -103.634765625 797.190429688 -113.799804688 815.620117188 -79.291015625 c 2
 922.299804688 120.455078125 l 2
157.24609375 176.875 m 0
 127.060546875 176.875 107.810546875 144.524414062 121.938476562 118.072265625 c 2
 228.618164062 -81.673828125 l 2
 235.352539062 -94.283203125 248.643554688 -102.87109375 263.92578125 -102.87109375 c 0
 284.458007812 -102.87109375 301.397460938 -87.3681640625 303.666992188 -67.439453125 c 0
 337.427734375 228.956054688 403.25390625 481.607421875 706.888671875 643.774414062 c 0
 719.498046875 650.508789062 728.0859375 663.80078125 728.0859375 679.08203125 c 0
 728.0859375 709.268554688 695.735351562 728.517578125 669.283203125 714.389648438 c 0
 367.040039062 552.965820312 279.923828125 304.961914062 240.885742188 65.181640625 c 1
 192.553710938 155.677734375 l 2
 185.819335938 168.287109375 172.528320312 176.875 157.24609375 176.875 c 0
EndSplineSet
Validated: 37
EndChar

StartChar: uniE183
Encoding: 57731 57731 60
Width: 1000
Flags: W
HStem: 335.749 79.6396<431.271 587.921>
VStem: 313.728 80.3623<-23.9185 56.6347 448.838 574.164> 418.489 80.3154<-135.143 12.6068> 625.519 104.907<176.115 232.997>
LayerCount: 2
Fore
SplineSet
507.715820312 415.388671875 m 0
 447.892578125 415.388671875 394.08984375 446.765625 394.08984375 500.861328125 c 0
 394.08984375 517.970703125 399.046875 538.91015625 408.551757812 560.291015625 c 0
 440.88671875 633.029296875 511.138671875 687.682617188 544.369140625 683.240234375 c 0
 558.59765625 681.337890625 579.842773438 668.252929688 598.946289062 642.171875 c 0
 634.564453125 593.546875 654.384765625 511.85546875 622.805664062 466.500976562 c 0
 601.489257812 435.875 555.72265625 415.388671875 507.715820312 415.388671875 c 0
719.009765625 524.888671875 m 0
 719.009765625 637.559570312 637.381835938 763.109375 540.731445312 763.109375 c 0
 437.665039062 763.109375 313.727539062 618.944335938 313.727539062 500.861328125 c 0
 313.727539062 403.022460938 400.298828125 335.749023438 507.715820312 335.749023438 c 0
 604.607421875 335.749023438 719.009765625 391.884765625 719.009765625 524.888671875 c 0
467.92578125 100.411132812 m 1
 404.904296875 221.478515625 261.32421875 157.821289062 309.436523438 -3.8642578125 c 0
 314.345703125 -20.361328125 329.755859375 -32.416015625 347.983398438 -32.416015625 c 0
 370.16015625 -32.416015625 388.165039062 -14.5732421875 388.165039062 7.4033203125 c 0
 388.165039062 19.3486328125 380.157226562 33.3369140625 380.157226562 57.7724609375 c 0
 380.157226562 69.70703125 382.369140625 76.9921875 384.206054688 80.9833984375 c 1
 401.314453125 65.275390625 419.32421875 16.6396484375 419.32421875 -66.3037109375 c 0
 419.32421875 -75.4560546875 418.489257812 -99.529296875 418.489257812 -99.865234375 c 0
 418.489257812 -121.841796875 436.494140625 -139.684570312 458.669921875 -139.684570312 c 0
 480.193359375 -139.684570312 497.786132812 -122.87890625 498.8046875 -101.797851562 c 0
 500.125976562 -74.4619140625 501.788085938 -40.072265625 523.362304688 22.0126953125 c 0
 528.936523438 38.0537109375 568.892578125 148.416015625 641.942382812 234.84765625 c 1
 631.756835938 194.8828125 625.518554688 186.451171875 625.518554688 174.225585938 c 0
 625.518554688 152.248046875 643.522460938 134.40625 665.69921875 134.40625 c 0
 683.426757812 134.40625 698.48828125 145.806640625 703.818359375 161.607421875 c 0
 721.71484375 214.662109375 730.42578125 251.733398438 730.42578125 281.661132812 c 0
 730.42578125 342.239257812 687.859375 349.306640625 674.547851562 349.306640625 c 0
 657.887695312 349.306640625 636.724609375 343.204101562 604.999023438 312.552734375 c 0
 557.567382812 266.727539062 503.860351562 182.932617188 467.92578125 100.411132812 c 1
EndSplineSet
Validated: 41
EndChar

StartChar: uniE184
Encoding: 57732 57732 61
Width: 1000
Flags: W
HStem: 101.758 77.7705<283.75 380.918>
VStem: 489.891 81.7744<-150.504 -16.7967 731.637 764.651>
LayerCount: 2
Fore
SplineSet
327.6640625 179.528320312 m 0
 302.745117188 184.270507812 279.543945312 165.528320312 279.543945312 140.643554688 c 0
 279.543945312 121.373046875 293.607421875 105.297851562 312.209960938 101.7578125 c 0
 404.32421875 84.2314453125 479.3515625 35.7685546875 490.989257812 -119.09765625 c 0
 492.529296875 -139.5859375 509.989257812 -155.76171875 531.272460938 -155.76171875 c 0
 553.56640625 -155.76171875 571.665039062 -138.012695312 571.665039062 -115.967773438 c 2
 567.75 732.001953125 l 2
 567.650390625 753.779296875 549.588867188 771.4296875 527.357421875 771.4296875 c 0
 505.064453125 771.4296875 486.96484375 753.680664062 486.96484375 731.63671875 c 2
 489.890625 97.84765625 l 1
 446.240234375 143.311523438 388.905273438 167.875976562 327.6640625 179.528320312 c 0
584.958007812 354.649414062 m 2
 564.8203125 328.704101562 583.833007812 291.080078125 617.119140625 291.080078125 c 0
 630.234375 291.080078125 641.8984375 297.223632812 649.279296875 306.733398438 c 2
 801.508789062 502.86328125 l 2
 821.646484375 528.80859375 802.634765625 566.432617188 769.348632812 566.432617188 c 0
 756.233398438 566.432617188 744.569335938 560.2890625 737.188476562 550.779296875 c 2
 584.958007812 354.649414062 l 2
EndSplineSet
Validated: 41
EndChar

StartChar: uniE185
Encoding: 57733 57733 62
Width: 1000
Flags: W
HStem: -81.9727 79.9932<156.955 410.895>
LayerCount: 2
Fore
SplineSet
415.2734375 -41.97265625 m 0
 415.2734375 -20.14453125 397.751953125 -2.376953125 376.017578125 -1.9794921875 c 2
 156.955078125 2.0263671875 l 1
 455.8515625 610.4140625 l 1
 752.942382812 -53.359375 l 2
 766.125976562 -82.8134765625 807.268554688 -85.32421875 823.859375 -57.4853515625 c 2
 967.921875 184.252929688 l 2
 983.703125 210.735351562 964.5234375 244.6875 933.53515625 244.6875 c 0
 918.921875 244.6875 906.12890625 236.833984375 899.1484375 225.122070312 c 2
 794.53125 49.5732421875 l 1
 494.069335938 720.87890625 l 2
 480.271484375 751.70703125 436.528320312 752.525390625 421.615234375 722.169921875 c 2
 57.376953125 -19.216796875 l 2
 44.544921875 -45.333984375 63.3056640625 -76.2744140625 92.556640625 -76.8095703125 c 2
 92.556640625 -76.8095703125 374.529296875 -81.9658203125 375.2734375 -81.97265625 c 0
 397.349609375 -81.97265625 415.2734375 -64.048828125 415.2734375 -41.97265625 c 0
EndSplineSet
Validated: 41
EndChar

StartChar: uniE187
Encoding: 57735 57735 63
Width: 1000
Flags: W
HStem: -63.6328 79.9414<951.953 986.65>
VStem: 27.0508 80<262.598 298.219>
LayerCount: 2
Fore
SplineSet
107.05078125 262.59765625 m 2
 107.05078125 284.673828125 89.126953125 302.59765625 67.05078125 302.59765625 c 0
 44.974609375 302.59765625 27.05078125 284.673828125 27.05078125 262.59765625 c 2
 27.05078125 -23.6328125 l 2
 27.05078125 -45.689453125 44.9423828125 -63.6005859375 66.9912109375 -63.6328125 c 2
 951.953125 -64.921875 l 2
 974.029296875 -64.921875 991.953125 -46.998046875 991.953125 -24.921875 c 0
 991.953125 -2.865234375 974.061523438 15.0458984375 952.012695312 15.078125 c 2
 107.05078125 16.30859375 l 1
 107.05078125 262.59765625 l 2
EndSplineSet
Validated: 9
EndChar

StartChar: uniE188
Encoding: 57736 57736 64
Width: 1000
Flags: W
HStem: 86.8701 80<401.579 582.099>
VStem: 264.384 80<218.319 361.689>
LayerCount: 2
Fore
SplineSet
976.224609375 -38.2275390625 m 2
 1010.61621094 -17.3193359375 995.590820312 35.9765625 955.48828125 35.9765625 c 0
 947.8984375 35.9765625 940.799804688 33.8583984375 934.751953125 30.1806640625 c 2
 871.751953125 -8.119140625 l 1
 945.631835938 186.252929688 984.493164062 407.124023438 832.764648438 656.840820312 c 0
 811.862304688 691.2421875 758.5546875 676.220703125 758.5546875 636.11328125 c 0
 758.5546875 628.52734375 760.670898438 621.431640625 764.344726562 615.385742188 c 0
 918.1015625 362.331054688 856.663085938 146.475585938 750.872070312 -89.9033203125 c 0
 734.987304688 -125.39453125 774.87109375 -160.640625 808.138671875 -140.415039062 c 2
 976.224609375 -38.2275390625 l 2
85.75390625 29.9287109375 m 2
 59.275390625 46.0244140625 25.01953125 26.861328125 25.01953125 -4.27734375 c 0
 25.01953125 -18.765625 32.73828125 -31.4638671875 44.28515625 -38.4833984375 c 2
 212.390625 -140.670898438 l 2
 245.637695312 -160.880859375 285.551757812 -125.668945312 269.654296875 -90.154296875 c 0
 163.866210938 146.173828125 102.390625 362.034179688 256.163085938 615.1328125 c 0
 272.250976562 641.611328125 253.087890625 675.859375 221.953125 675.859375 c 0
 207.461914062 675.859375 194.760742188 668.13671875 187.743164062 656.5859375 c 0
 35.9619140625 406.766601562 74.927734375 185.856445312 148.768554688 -8.3759765625 c 1
 85.75390625 29.9287109375 l 2
489.661132812 166.870117188 m 0
 412.354492188 166.870117188 344.383789062 208.955078125 344.383789062 279.5546875 c 0
 344.383789062 301.969726562 350.716796875 328.55078125 362.5234375 355.416992188 c 0
 377.264648438 388.961914062 400.206054688 422.501953125 426.005859375 449.5078125 c 0
 431.627929688 455.392578125 490.868164062 516.146484375 534.908203125 510.1875 c 0
 555.33984375 507.421875 582.53125 489.578125 606.321289062 456.727539062 c 0
 651.256835938 394.6796875 675.616210938 291.526367188 635.192382812 232.795898438 c 0
 607.419921875 192.447265625 549.5234375 166.870117188 489.661132812 166.870117188 c 0
701.135742188 187.516601562 m 0
 797.828125 327.995117188 676.444335938 590.54296875 529.401367188 590.54296875 c 0
 410.467773438 590.54296875 264.383789062 419.180664062 264.383789062 279.5546875 c 0
 264.383789062 164.985351562 365.189453125 86.8701171875 489.661132812 86.8701171875 c 0
 569.3046875 86.8701171875 653.74609375 118.666015625 701.135742188 187.516601562 c 0
EndSplineSet
Validated: 41
EndChar

StartChar: uniE189
Encoding: 57737 57737 65
Width: 1000
Flags: W
VStem: 195.332 181.772<96.626 256.558> 360.001 80.6445<528.648 635.079> 547.246 181.772<-103.426 56.5078> 711.9 80.6455<328.589 435.024>
LayerCount: 2
Fore
SplineSet
343.640625 734.666992188 m 0x40
 317.025390625 752.439453125 280.716796875 733.559570312 280.716796875 701.809570312 c 0
 280.716796875 688.149414062 287.747070312 676.091796875 298.4375 668.952148438 c 0
 359.127929688 628.42578125 360.000976562 598.907226562 360.000976562 587.927734375 c 0x40
 360.000976562 504.248046875 195.33203125 395.419921875 195.33203125 256.557617188 c 0
 195.33203125 191.202148438 231.911132812 127.044921875 311.952148438 65.3681640625 c 0
 338.291992188 45.0712890625 377.104492188 63.685546875 377.104492188 96.6259765625 c 0x80
 377.104492188 109.313476562 371.040039062 120.618164062 361.610351562 127.883789062 c 0
 224.899414062 233.229492188 274.297851562 305.541015625 355.52734375 412.60546875 c 0
 398.56640625 469.333007812 440.645507812 524.796875 440.645507812 587.927734375 c 0
 440.645507812 664.587890625 376.149414062 712.958984375 343.640625 734.666992188 c 0x40
695.5234375 534.6171875 m 0
 668.909179688 552.387695312 632.6015625 533.506835938 632.6015625 501.758789062 c 0
 632.6015625 488.09765625 639.6328125 476.0390625 650.325195312 468.900390625 c 0
 711.026367188 428.370117188 711.900390625 398.84765625 711.900390625 387.8671875 c 0x10
 711.900390625 304.190429688 547.24609375 195.364257812 547.24609375 56.5078125 c 0
 547.24609375 -8.84765625 583.825195312 -73.005859375 663.8671875 -134.68359375 c 0
 690.206054688 -154.979492188 729.018554688 -136.366210938 729.018554688 -103.42578125 c 0x20
 729.018554688 -90.73828125 722.954101562 -79.43359375 713.525390625 -72.1669921875 c 0
 576.826171875 33.1689453125 626.196289062 105.467773438 707.434570312 212.55078125 c 0
 750.46875 269.275390625 792.545898438 324.737304688 792.545898438 387.8671875 c 0x10
 792.545898438 464.5390625 728.028320312 512.9140625 695.5234375 534.6171875 c 0
EndSplineSet
Validated: 41
EndChar

StartChar: uniE18A
Encoding: 57738 57738 66
Width: 1000
HStem: 666.513 78.498<429.425 677.626>
VStem: 277.621 80<455.015 598.163> 592.734 80<-141.188 -105.644>
LayerCount: 2
Fore
SplineSet
357.62109375 525.563476562 m 0
 357.62109375 613.618164062 443.034179688 704.068359375 634.028320312 666.512695312 c 0
 658.729492188 661.65625 681.77734375 680.590820312 681.77734375 705.76171875 c 0
 681.77734375 725.1875 667.899414062 741.397460938 649.526367188 745.010742188 c 0
 399.721679688 794.12890625 277.62109375 656.913085938 277.62109375 525.563476562 c 0
 277.62109375 395.665039062 395.626953125 277.422851562 593.565429688 332.09375 c 1
 593.565429688 332.09375 592.734375 -105.489257812 592.734375 -105.56640625 c 0
 592.734375 -127.642578125 610.658203125 -145.56640625 632.734375 -145.56640625 c 0
 654.78515625 -145.56640625 672.692382812 -127.684570312 672.734375 -105.643554688 c 2
 672.734375 -105.643554688 673.671875 388.028320312 673.671875 388.10546875 c 0
 673.671875 416.544921875 644.708007812 435.818359375 618.583007812 425.157226562 c 0
 445.020507812 354.328125 357.62109375 436.364257812 357.62109375 525.563476562 c 0
EndSplineSet
Validated: 41
EndChar

StartChar: uniE18B
Encoding: 57739 57739 67
Width: 1000
Flags: W
HStem: 172.1 112.646<811.641 894.861>
VStem: 912.121 80.0713<252.729 301.368>
LayerCount: 2
Fore
SplineSet
236.625976562 258.961914062 m 0
 236.625976562 320.735351562 176.037109375 404.739257812 110.540039062 398.01171875 c 0
 35.4892578125 390.302734375 -0.66796875 280.407226562 37.4267578125 222.040039062 c 0
 58.0419921875 190.42578125 99.6640625 173.611328125 139.2734375 173.611328125 c 0
 195.95703125 173.611328125 236.625976562 207.853515625 236.625976562 258.961914062 c 0
104.487304688 265.655273438 m 0
 98.529296875 274.784179688 104.961914062 310.165039062 118.241210938 318.1640625 c 0
 132.66796875 312.838867188 156.8984375 280.038085938 156.5546875 257.53125 c 0
 150.826171875 252.185546875 128.578125 251.892578125 113.087890625 259.461914062 c 0
 107.359375 262.260742188 104.727539062 265.286132812 104.487304688 265.655273438 c 0
873.579101562 396.869140625 m 0
 818.03515625 396.869140625 777.7890625 338.046875 777.7890625 276.697265625 c 0
 777.7890625 192.260742188 854.870117188 172.099609375 894.861328125 172.099609375 c 0
 951.723632812 172.099609375 992.192382812 206.498046875 992.192382812 257.45703125 c 0
 992.192382812 316.962890625 936.030273438 396.869140625 873.579101562 396.869140625 c 0
860.044921875 264.165039062 m 0
 854.124023438 273.239257812 860.520507812 308.630859375 873.80859375 316.640625 c 0
 888.233398438 311.3203125 912.465820312 278.528320312 912.12109375 256.024414062 c 0
 906.40625 250.66796875 884.16015625 250.383789062 868.666992188 257.954101562 c 0
 862.932617188 260.755859375 860.291015625 263.787109375 860.044921875 264.165039062 c 0
195.176757812 344.205078125 m 2
 165.430664062 320.797851562 182.198242188 272.75390625 219.8828125 272.75390625 c 0
 229.204101562 272.75390625 237.78515625 275.94921875 244.588867188 281.302734375 c 2
 372.978515625 382.33203125 l 1
 588.169921875 87.8046875 l 2
 601.071289062 70.146484375 625.6015625 66.1650390625 643.338867188 78.541015625 c 2
 834.491210938 211.919921875 l 2
 866.46875 234.232421875 850.463867188 284.74609375 811.640625 284.74609375 c 0
 803.147460938 284.74609375 795.26953125 282.09375 788.790039062 277.572265625 c 2
 629.694335938 166.561523438 l 1
 413.138671875 462.95703125 l 2
 399.73046875 481.30859375 373.859375 484.809570312 356.114257812 470.845703125 c 2
 195.176757812 344.205078125 l 2
EndSplineSet
Validated: 37
EndChar

StartChar: uniE191
Encoding: 57745 57745 68
Width: 1000
Flags: W
HStem: 295.991 80<417.796 556.624>
VStem: 313.888 80<399.967 515.345>
LayerCount: 2
Fore
SplineSet
201.579101562 118.620117188 m 0
 167.573242188 97.4716796875 182.563476562 43.9892578125 222.309570312 43.9892578125 c 0
 229.904296875 43.9892578125 237.00390625 46.154296875 243.041015625 49.908203125 c 0
 478.069335938 196.077148438 675.958984375 169.791015625 854.583007812 35.4833984375 c 0
 880.661132812 15.875 917.94140625 34.884765625 917.94140625 67.8515625 c 0
 917.94140625 81.109375 911.609375 92.8798828125 901.845703125 100.220703125 c 0
 702.963867188 249.760742188 469.9765625 285.541015625 201.579101562 118.620117188 c 0
155.017578125 327.969726562 m 0
 133.771484375 361.803710938 81.7548828125 346.333984375 81.7548828125 306.3828125 c 0
 81.7548828125 298.442382812 84.0263671875 291.036132812 87.9453125 284.794921875 c 0
 211.807617188 87.5546875 137.080078125 -13.6376953125 80.2119140625 -66.00390625 c 0
 53.408203125 -90.685546875 70.8359375 -136.095703125 106.90625 -136.095703125 c 0
 117.178710938 -136.095703125 126.545898438 -132.134765625 133.6015625 -125.637695312 c 0
 222.065429688 -44.1767578125 297.7578125 100.666992188 155.017578125 327.969726562 c 0
485.40625 375.991210938 m 0
 437.587890625 375.991210938 393.887695312 400.681640625 393.887695312 444.125 c 0
 393.887695312 448.697265625 395.095703125 500.53515625 448.5859375 556.390625 c 0
 449.125976562 556.955078125 490.192382812 599.366210938 515.978515625 595.887695312 c 0
 525.922851562 594.543945312 543.020507812 584.521484375 558.848632812 562.71875 c 0
 588.018554688 522.538085938 604.567382812 454.447265625 579.18359375 417.659179688 c 0
 562.33984375 393.239257812 525.067382812 375.991210938 485.40625 375.991210938 c 0
671.731445312 464.827148438 m 0
 671.731445312 564.904296875 599.895507812 676.036132812 513.627929688 676.036132812 c 0
 421.9765625 676.036132812 313.887695312 548.796875 313.887695312 444.125 c 0
 313.887695312 356.630859375 390.266601562 295.991210938 485.40625 295.991210938 c 0
 572.497070312 295.991210938 671.731445312 347.607421875 671.731445312 464.827148438 c 0
399.055664062 502.768554688 m 2
 425.337890625 483.517578125 462.65625 502.422851562 462.65625 535.05859375 c 0
 462.65625 548.311523438 456.197265625 560.068359375 446.256835938 567.348632812 c 2
 324.342773438 656.645507812 l 2
 298.060546875 675.896484375 260.7421875 656.991210938 260.7421875 624.35546875 c 0
 260.7421875 611.102539062 267.201171875 599.345703125 277.141601562 592.065429688 c 2
 399.055664062 502.768554688 l 2
EndSplineSet
Validated: 37
EndChar

StartChar: uniE192
Encoding: 57746 57746 69
Width: 1000
VStem: 412.964 79.8145<-110.237 105.087> 520.737 79.8145<-116.213 99.1087>
LayerCount: 2
Fore
SplineSet
123.3203125 389.51171875 m 0
 146.8984375 389.51171875 165.461914062 409.87890625 163.124023438 433.4921875 c 2
 147.640625 589.913085938 l 1
 324.2890625 449.87890625 393.192382812 213.166992188 412.963867188 -77.4375 c 0
 414.37890625 -98.2333984375 431.71875 -114.6875 452.87109375 -114.6875 c 0
 475.956054688 -114.6875 494.35546875 -95.1279296875 492.778320312 -71.9375 c 0
 470.185546875 260.126953125 383.537109375 554.104492188 119.28125 705.365234375 c 0
 91.314453125 721.374023438 56.4443359375 699.018554688 59.6494140625 666.64453125 c 2
 83.5166015625 425.53125 l 2
 85.5166015625 405.3203125 102.586914062 389.51171875 123.3203125 389.51171875 c 0
850.391601562 427.516601562 m 2
 848.053710938 403.90234375 866.6171875 383.53515625 890.1953125 383.53515625 c 0
 910.928710938 383.53515625 927.999023438 399.34375 929.999023438 419.553710938 c 0
 954.0625 662.627929688 954.0625 662.627929688 954.0625 664.62890625 c 0
 954.0625 695.31640625 920.713867188 714.526367188 894.234375 699.369140625 c 0
 629.979492188 548.108398438 543.331054688 254.151367188 520.737304688 -77.9140625 c 0
 519.16015625 -101.10546875 537.559570312 -120.6640625 560.64453125 -120.6640625 c 0
 581.796875 -120.6640625 599.13671875 -104.209960938 600.551757812 -83.4140625 c 0
 620.323242188 207.190429688 689.225585938 443.885742188 865.874023438 583.916992188 c 1
 850.391601562 427.516601562 l 2
EndSplineSet
Validated: 41
EndChar

StartChar: uniE193
Encoding: 57747 57747 70
Width: 1000
VStem: 393.315 79.2021<-100.315 611.151> 399.709 79.9961<-157.799 611.151> 572.012 79.998<-165.699 113.197>
LayerCount: 2
Fore
SplineSet
750.341796875 517.881835938 m 2x20
 775.826171875 494.135742188 817.59765625 512.388671875 817.59765625 547.1484375 c 0
 817.59765625 558.697265625 812.692382812 569.110351562 804.853515625 576.415039062 c 2
 646.455078125 724.012695312 l 2
 621.083007812 747.654296875 579.501953125 729.678710938 579.201171875 695.1015625 c 2
 579.201171875 695.1015625 572.013671875 -129.72265625 572.01171875 -130.078125 c 0
 572.01171875 -152.154296875 589.935546875 -170.078125 612.01171875 -170.078125 c 0
 633.969726562 -170.078125 651.819335938 -152.346679688 652.009765625 -130.43359375 c 2
 658.40625 603.548828125 l 1
 750.341796875 517.881835938 l 2x20
236.229492188 573.655273438 m 2
 209.830078125 548.939453125 227.521484375 504.453125 263.5546875 504.453125 c 0
 274.116210938 504.453125 283.7265625 508.5546875 290.879882812 515.250976562 c 2
 393.315429688 611.151367188 l 1xa0
 399.708984375 -122.54296875 l 2
 399.899414062 -144.456054688 417.749023438 -162.1875 439.70703125 -162.1875 c 0
 461.783203125 -162.1875 479.70703125 -144.263671875 479.705078125 -121.83203125 c 2x60
 472.517578125 702.9921875 l 2xa0
 472.215820312 737.612304688 430.543945312 755.5703125 405.194335938 731.838867188 c 2
 236.229492188 573.655273438 l 2
EndSplineSet
Validated: 41
EndChar

StartChar: uniE194
Encoding: 57748 57748 71
Width: 1000
HStem: 214.137 80<591.237 649.611>
VStem: 271.488 80<94.296 190.849>
LayerCount: 2
Fore
SplineSet
507.2265625 230.899414062 m 0
 369.7109375 314.8125 271.48828125 260.869140625 271.48828125 163.655273438 c 0
 271.48828125 37.0625 427.12109375 -116.241210938 472.078125 -159.504882812 c 0
 486.188476562 -173.08203125 507.912109375 -174.392578125 523.500976562 -162.903320312 c 0
 602.76953125 -104.482421875 657.76953125 -36.251953125 691.2734375 28.9169921875 c 0
 718.064453125 81.02734375 731.583007812 131.313476562 731.583007812 175.51953125 c 0
 731.583007812 256.310546875 685.313476562 294.13671875 635.18359375 294.13671875 c 0
 601.833007812 294.13671875 559.51171875 278.178710938 507.2265625 230.899414062 c 0
351.48828125 163.655273438 m 0
 351.48828125 180 355.125 192.352539062 380.83984375 192.352539062 c 0
 403.7890625 192.352539062 443.182617188 179.901367188 488.602539062 147.291015625 c 0
 504.569335938 135.827148438 526.670898438 137.643554688 540.560546875 151.91796875 c 0
 551.978515625 163.65234375 602.971679688 214.13671875 635.18359375 214.13671875 c 0
 639.145507812 214.13671875 643.421875 214.13671875 647.521484375 203.067382812 c 0
 664.272460938 157.833007812 632.02734375 30.46875 502.84375 -77.482421875 c 1
 443.290039062 -17.06640625 403.732421875 35.4599609375 380.241210938 77.8583984375 c 0
 358.895507812 116.3828125 351.48828125 146.061523438 351.48828125 163.655273438 c 0
611.6484375 722.912109375 m 2
 621.518554688 748.91015625 602.26171875 777.08984375 574.23828125 777.08984375 c 0
 557.153320312 777.08984375 542.5546875 766.354492188 536.828125 751.267578125 c 2
 431.4375 473.650390625 l 2
 421.727539062 448.07421875 440.208984375 420.283203125 467.672851562 419.489257812 c 2
 568.291992188 416.58203125 l 1
 475.930664062 214.106445312 l 2
 463.936523438 187.813476562 483.21875 157.5390625 512.34375 157.5390625 c 0
 528.512695312 157.5390625 542.453125 167.153320312 548.756835938 180.971679688 c 2
 666.120117188 438.256835938 l 2
 677.922851562 464.130859375 659.439453125 493.982421875 630.881835938 494.807617188 c 2
 526.203125 497.83203125 l 1
 611.6484375 722.912109375 l 2
EndSplineSet
Validated: 37
EndChar

StartChar: uniE19C
Encoding: 57756 57756 72
Width: 1000
Flags: W
HStem: 533.32 80<299.965 335.586> 673.574 80<448.187 483.809>
VStem: 518.633 80<-170.971 -135.294> 666.875 80<-30.7173 4.95996>
LayerCount: 2
Fore
SplineSet
335.5859375 613.3203125 m 2
 313.509765625 613.3203125 295.5859375 595.396484375 295.5859375 573.3203125 c 0
 295.5859375 551.244140625 313.509765625 533.3203125 335.5859375 533.3203125 c 2
 517.693359375 533.3203125 l 1
 518.6328125 -135.409179688 l 2
 518.6640625 -157.458984375 536.575195312 -175.3515625 558.6328125 -175.3515625 c 0
 580.708984375 -175.3515625 598.6328125 -157.427734375 598.6328125 -135.293945312 c 2
 597.63671875 573.377929688 l 2
 597.60546875 595.427734375 579.694335938 613.3203125 557.63671875 613.3203125 c 2
 335.5859375 613.3203125 l 2
483.80859375 753.57421875 m 2
 461.732421875 753.57421875 443.80859375 735.650390625 443.80859375 713.57421875 c 0
 443.80859375 691.498046875 461.732421875 673.57421875 483.80859375 673.57421875 c 2
 665.935546875 673.57421875 l 1
 666.875 4.8447265625 l 2
 666.90625 -17.205078125 684.817382812 -35.09765625 706.875 -35.09765625 c 0
 728.951171875 -35.09765625 746.875 -17.173828125 746.875 4.9599609375 c 2
 745.87890625 713.631835938 l 2
 745.84765625 735.681640625 727.936523438 753.57421875 705.87890625 753.57421875 c 2
 483.80859375 753.57421875 l 2
EndSplineSet
Validated: 9
EndChar

StartChar: uniE19D
Encoding: 57757 57757 73
Width: 1000
Flags: W
LayerCount: 2
Fore
SplineSet
255.749023438 382.606445312 m 2
 272.611328125 409.065429688 253.497070312 444.0625 221.9921875 444.0625 c 0
 207.80859375 444.0625 195.338867188 436.6640625 188.235351562 425.518554688 c 2
 37.3955078125 188.838867188 l 2
 20.533203125 162.379882812 39.6474609375 127.3828125 71.15234375 127.3828125 c 0
 77.4140625 127.3828125 83.3427734375 128.825195312 88.6220703125 131.39453125 c 0
 363.134765625 265.022460938 614.362304688 342.903320312 909.23828125 148.048828125 c 0
 935.668945312 130.583984375 971.25 149.654296875 971.25 181.4453125 c 0
 971.25 195.392578125 964.096679688 207.681640625 953.26171875 214.841796875 c 0
 662.196289062 407.177734375 404.806640625 355.365234375 177.637695312 260.043945312 c 1
 255.749023438 382.606445312 l 2
781.28515625 585.924804688 m 0
 724.631835938 585.924804688 684.678710938 523.786132812 684.678710938 459.580078125 c 0
 684.678710938 369.588867188 764.970703125 350.022460938 802.8515625 350.022460938 c 0
 856.666015625 350.022460938 901.03125 383.100585938 901.03125 438.861328125 c 0
 901.03125 500.465820312 845.34765625 585.924804688 781.28515625 585.924804688 c 0
781.57421875 505.40234375 m 0
 804.998046875 493.123046875 824.215820312 449.5234375 820.681640625 435.224609375 c 0
 812.547851562 424.90625 775.045898438 431.432617188 767.634765625 443.486328125 c 0
 760.735351562 454.72265625 766.588867188 494.049804688 781.57421875 505.40234375 c 0
EndSplineSet
Validated: 41
EndChar

StartChar: uniE19E
Encoding: 57758 57758 74
Width: 1000
Flags: W
VStem: 487.809 80.5996<203.86 656.949> 497.971 80.5986<-20.9088 432.141>
LayerCount: 2
Fore
SplineSet
301.80859375 526.29296875 m 2x00
 275.283203125 544.993164062 238.081054688 526.189453125 238.081054688 493.9921875 c 0
 238.081054688 480.682617188 244.745117188 468.89453125 254.963867188 461.690429688 c 2
 781.301757812 90.634765625 l 2
 807.827148438 71.9345703125 845.029296875 90.7373046875 845.029296875 122.935546875 c 0
 845.029296875 136.245117188 838.365234375 148.033203125 828.146484375 155.236328125 c 2
 301.80859375 526.29296875 l 2x00
528.108398438 661.650390625 m 0
 505.86328125 661.650390625 487.802734375 643.86328125 487.80859375 621.2890625 c 2x80
 497.970703125 13.421875 l 2
 498.331054688 -8.181640625 516.25 -25.6103515625 538.26953125 -25.6103515625 c 0
 560.514648438 -25.6103515625 578.575195312 -7.822265625 578.569335938 14.751953125 c 2x40
 568.408203125 622.619140625 l 2x80
 568.046875 644.221679688 550.127929688 661.650390625 528.108398438 661.650390625 c 0
252.857421875 157.079101562 m 2
 222.165039062 134.176757812 238.828125 85.7216796875 277.1640625 85.7216796875 c 0
 286.2890625 85.7216796875 294.7109375 88.7158203125 301.469726562 93.7587890625 c 2
 816.997070312 478.435546875 l 2
 847.689453125 501.337890625 831.026367188 549.791992188 792.690429688 549.791992188 c 0
 783.565429688 549.791992188 775.143554688 546.798828125 768.384765625 541.754882812 c 2
 252.857421875 157.079101562 l 2
EndSplineSet
Validated: 37
EndChar

StartChar: uniE19F
Encoding: 57759 57759 75
Width: 1000
Flags: W
VStem: 96.543 80<93.3046 128.926> 832.637 80<93.3046 128.926>
LayerCount: 2
Fore
SplineSet
96.54296875 128.92578125 m 2
 96.54296875 106.849609375 114.466796875 88.92578125 136.54296875 88.92578125 c 0
 158.619140625 88.92578125 176.54296875 106.849609375 176.54296875 128.92578125 c 2
 176.54296875 428.18359375 l 1
 832.63671875 428.18359375 l 1
 832.63671875 128.92578125 l 2
 832.63671875 106.849609375 850.560546875 88.92578125 872.63671875 88.92578125 c 0
 894.712890625 88.92578125 912.63671875 106.849609375 912.63671875 128.92578125 c 2
 912.63671875 468.18359375 l 2
 912.63671875 490.259765625 894.712890625 508.18359375 872.63671875 508.18359375 c 2
 136.54296875 508.18359375 l 2
 114.466796875 508.18359375 96.54296875 490.259765625 96.54296875 468.18359375 c 2
 96.54296875 128.92578125 l 2
EndSplineSet
Validated: 9
EndChar

StartChar: uniE1A0
Encoding: 57760 57760 76
Width: 1000
Flags: W
VStem: 709.498 80<191.849 364.645>
LayerCount: 2
Fore
SplineSet
344.680664062 712.202148438 m 2
 323.473632812 746.112304688 270.7421875 730.877929688 270.7421875 691.03515625 c 0
 270.7421875 683.264648438 272.962890625 676.008789062 276.803710938 669.868164062 c 2
 520.334960938 280.466796875 l 1
 226.368164062 -42.1162109375 l 2
 203.05078125 -67.703125 221.381835938 -109.04296875 255.9375 -109.04296875 c 0
 267.647460938 -109.04296875 278.188476562 -104 285.506835938 -95.9697265625 c 2
 599.901367188 249.030273438 l 2
 612.096679688 262.412109375 613.666992188 282.1015625 604.270507812 297.124023438 c 2
 344.680664062 712.202148438 l 2
789.498046875 278.849609375 m 0
 789.498046875 427.094726562 681.119140625 542.759765625 521.713867188 446.40625 c 0
 487.225585938 425.55859375 502.208984375 372.1484375 542.36328125 372.1484375 c 0
 549.916015625 372.1484375 556.983398438 374.24609375 563.012695312 377.890625 c 0
 592.8046875 395.899414062 615.9453125 401.690429688 632.274414062 401.690429688 c 0
 689.530273438 401.690429688 709.498046875 328.600585938 709.498046875 278.849609375 c 0
 709.498046875 230.963867188 690.836914062 159.458007812 635.444335938 159.458007812 c 0
 615.3046875 159.458007812 583.993164062 168.868164062 542.391601562 200.124023438 c 0
 516.162109375 219.830078125 478.3984375 200.975585938 478.3984375 168.125 c 0
 478.3984375 155.046875 484.688476562 143.426757812 494.405273438 136.125976562 c 0
 671.461914062 3.103515625 789.498046875 125.580078125 789.498046875 278.849609375 c 0
EndSplineSet
Validated: 37
EndChar

StartChar: uniE1A1
Encoding: 57761 57761 77
Width: 1000
Flags: W
VStem: 40.9805 79.918<660.684 711.775> 348.066 79.623<565.419 719.362>
LayerCount: 2
Fore
SplineSet
120.391601562 660.3984375 m 0
 120.391601562 666.4453125 120.8984375 676.091796875 120.8984375 676.25 c 0
 120.8984375 698.326171875 102.974609375 716.25 80.8984375 716.25 c 0
 59.6865234375 716.25 42.30859375 699.703125 40.98046875 678.82421875 c 0
 28.1201171875 476.745117188 226.420898438 350.313476562 346.444335938 454.836914062 c 1
 348.06640625 -108.9453125 l 2
 348.1796875 -148.079101562 399.423828125 -163.7109375 421.313476562 -131.063476562 c 2
 945.083007812 650.108398438 l 2
 962.793945312 676.5234375 943.744140625 712.34375 911.8359375 712.34375 c 0
 897.985351562 712.34375 885.76953125 705.2890625 878.588867188 694.579101562 c 2
 427.689453125 22.08984375 l 1
 425.78125 685.25390625 l 2
 425.717773438 707.276367188 407.818359375 725.13671875 385.78125 725.13671875 c 0
 363.8046875 725.13671875 345.943359375 707.375 345.782226562 685.435546875 c 0
 345.435546875 638.024414062 338.1953125 554.393554688 294.466796875 515.641601562 c 0
 231.764648438 460.073242188 120.391601562 538.2578125 120.391601562 660.3984375 c 0
EndSplineSet
Validated: 41
EndChar

StartChar: uniE1A2
Encoding: 57762 57762 78
Width: 1000
Flags: W
HStem: 318.828 80<265.983 301.697 727.521 762.783>
LayerCount: 2
Fore
SplineSet
308.123046875 -102.8046875 m 2
 296 -129.111328125 315.283203125 -159.51171875 344.47265625 -159.51171875 c 0
 360.586914062 -159.51171875 374.48828125 -149.961914062 380.822265625 -136.21875 c 2
 510.764648438 145.752929688 l 1
 622.159179688 -138.3125 l 2
 627.9921875 -153.186523438 642.481445312 -163.73046875 659.4140625 -163.73046875 c 0
 687.622070312 -163.73046875 706.88671875 -135.205078125 696.668945312 -109.1484375 c 2
 550.985351562 262.35546875 l 2
 538.178710938 295.013671875 492.094726562 296.409179688 477.380859375 264.48046875 c 2
 308.123046875 -102.8046875 l 2
261.6015625 358.828125 m 0
 261.6015625 336.751953125 279.525390625 318.828125 301.697265625 318.828125 c 2
 727.712890625 319.82421875 l 2
 749.745117188 319.875976562 767.6171875 337.779296875 767.6171875 359.82421875 c 0
 767.6171875 381.900390625 749.693359375 399.82421875 727.521484375 399.82421875 c 2
 301.505859375 398.828125 l 2
 279.473632812 398.776367188 261.6015625 380.873046875 261.6015625 358.828125 c 0
EndSplineSet
Validated: 41
EndChar

StartChar: uniE1A3
Encoding: 57763 57763 79
Width: 1000
VStem: 160.254 80<508.913 589.727> 575.238 79.918<105.021 160.807> 773.265 79.916<431.435 564.806>
LayerCount: 2
Fore
SplineSet
240.25390625 544.63671875 m 0
 240.25390625 647.948242188 512.810546875 710.921875 673.415039062 633.1953125 c 0
 733.79296875 603.974609375 776.891601562 555.537109375 773.264648438 476.2890625 c 0
 771.830078125 444.905273438 750.91796875 426.415039062 706.686523438 392.959960938 c 0
 646.609375 347.51953125 565.782226562 286.356445312 575.23828125 137.969726562 c 0
 576.568359375 117.091796875 593.9453125 100.546875 615.15625 100.546875 c 0
 637.232421875 100.546875 655.15625 118.470703125 655.15625 140.546875 c 0
 655.15625 143.52734375 654.478515625 149.991210938 654.478515625 161.334960938 c 0
 654.478515625 250.377929688 698.071289062 286.149414062 754.879882812 329.118164062 c 0
 794.826171875 359.33203125 849.782226562 398.2265625 853.180664062 472.578125 c 0
 861.413085938 652.498046875 698.918945312 747.997070312 501.633789062 747.997070312 c 0
 326.08203125 747.997070312 160.25390625 671.747070312 160.25390625 544.489257812 c 0
 160.27734375 522.431640625 178.19140625 504.53125 200.25390625 504.53125 c 0
 222.330078125 504.53125 240.25390625 522.455078125 240.25390625 544.63671875 c 0
188.98046875 116.311523438 m 0
 167.051757812 148.989257812 115.7421875 133.251953125 115.7421875 94.0625 c 0
 115.7421875 85.8310546875 118.234375 78.1767578125 122.50390625 71.8134765625 c 0
 301.10546875 -194.333984375 757.00390625 -161.833984375 892.108398438 69.0810546875 c 0
 907.603515625 95.5634765625 888.408203125 129.23828125 857.55859375 129.23828125 c 0
 842.830078125 129.23828125 829.951171875 121.260742188 823.008789062 109.395507812 c 0
 800.063476562 70.1796875 763.0625 37.0380859375 716.09375 12.2119140625 c 0
 556.607421875 -72.0859375 301.193359375 -50.90625 188.98046875 116.311523438 c 0
EndSplineSet
Validated: 524329
EndChar

StartChar: uniE1A4
Encoding: 57764 57764 80
Width: 1000
Flags: W
HStem: 120.89 221.571<686.154 892.422> 240.41 190.994<111.895 258.777>
LayerCount: 2
Fore
SplineSet
77.80078125 301.327148438 m 0x40
 61.5126953125 274.852539062 80.6640625 240.41015625 111.89453125 240.41015625 c 0x40
 126.305664062 240.41015625 138.947265625 248.047851562 145.98828125 259.493164062 c 0
 235.215820312 404.526367188 300.307617188 358.458984375 428.923828125 252.545898438 c 0
 506.173828125 188.932617188 588.80078125 120.889648438 686.154296875 120.889648438 c 0
 767.80859375 120.889648438 847.313476562 169.825195312 925.060546875 279.34375 c 0
 943.7578125 305.681640625 924.796875 342.4609375 892.421875 342.4609375 c 0x80
 878.955078125 342.4609375 867.033203125 335.791992188 859.783203125 325.578125 c 0
 717.259765625 124.8125 616.85546875 201.405273438 479.7265625 314.327148438 c 0
 407.37109375 373.912109375 337.5546875 431.404296875 258.77734375 431.404296875 c 0
 191.158203125 431.404296875 130.965820312 387.745117188 77.80078125 301.327148438 c 0x40
EndSplineSet
Validated: 524329
EndChar

StartChar: uniE1A5
Encoding: 57765 57765 81
Width: 1000
Flags: W
HStem: 246.637 79.9844<194.779 448.738>
VStem: 176.855 59.7705<264.926 308.697> 777.789 62.0352<248.197 291.969> 912.121 80.0713<252.729 301.368>
LayerCount: 2
Fore
SplineSet
236.625976562 258.961914062 m 0
 236.625976562 320.735351562 176.037109375 404.739257812 110.540039062 398.01171875 c 0
 35.4892578125 390.302734375 -0.66796875 280.407226562 37.4267578125 222.040039062 c 0
 58.0419921875 190.42578125 99.6640625 173.611328125 139.2734375 173.611328125 c 0
 195.95703125 173.611328125 236.625976562 207.853515625 236.625976562 258.961914062 c 0
104.487304688 265.655273438 m 0
 98.529296875 274.784179688 104.961914062 310.165039062 118.241210938 318.1640625 c 0
 132.66796875 312.838867188 156.8984375 280.038085938 156.5546875 257.53125 c 0
 150.826171875 252.185546875 128.578125 251.892578125 113.087890625 259.461914062 c 0
 107.359375 262.260742188 104.727539062 265.286132812 104.487304688 265.655273438 c 0
873.579101562 396.869140625 m 0
 818.03515625 396.869140625 777.7890625 338.046875 777.7890625 276.697265625 c 0
 777.7890625 192.260742188 854.870117188 172.099609375 894.861328125 172.099609375 c 0
 951.723632812 172.099609375 992.192382812 206.498046875 992.192382812 257.45703125 c 0
 992.192382812 316.962890625 936.030273438 396.869140625 873.579101562 396.869140625 c 0
860.044921875 264.165039062 m 0
 854.124023438 273.239257812 860.520507812 308.630859375 873.80859375 316.640625 c 0
 888.233398438 311.3203125 912.465820312 278.528320312 912.12109375 256.024414062 c 0
 906.40625 250.66796875 884.16015625 250.383789062 868.666992188 257.954101562 c 0
 862.932617188 260.755859375 860.291015625 263.787109375 860.044921875 264.165039062 c 0
176.85546875 286.62109375 m 0
 176.85546875 264.92578125 194.165039062 247.241210938 215.715820312 246.63671875 c 0
 799.25390625 230.2734375 799.25390625 230.2734375 799.82421875 230.2734375 c 0
 821.900390625 230.2734375 839.82421875 248.197265625 839.82421875 270.2734375 c 0
 839.82421875 291.96875 822.514648438 309.653320312 800.963867188 310.2578125 c 2
 800.963867188 310.2578125 217.995117188 326.60546875 216.85546875 326.62109375 c 0
 194.779296875 326.62109375 176.85546875 308.697265625 176.85546875 286.62109375 c 0
216.850585938 286.616210938 m 1
 799.831054688 270.268554688 l 1025
EndSplineSet
Validated: 524331
EndChar

StartChar: uniE1A6
Encoding: 57766 57766 82
Width: 1000
Flags: W
LayerCount: 2
Fore
SplineSet
231.58984375 775.14453125 m 2
 205.274414062 794.08203125 168.26171875 775.14453125 168.26171875 742.65625 c 0
 168.26171875 729.282226562 174.83984375 717.432617188 184.93359375 710.16796875 c 2
 755.25390625 299.745117188 l 1
 177.01171875 -110.9609375 l 2
 145.357421875 -133.443359375 161.48046875 -183.59375 200.13671875 -183.59375 c 0
 208.75 -183.59375 216.731445312 -180.865234375 223.26171875 -176.2265625 c 2
 847.1484375 266.8984375 l 2
 869.529296875 282.793945312 869.634765625 315.983398438 847.3515625 332.01953125 c 2
 231.58984375 775.14453125 l 2
EndSplineSet
Validated: 524329
EndChar

StartChar: uniE1A7
Encoding: 57767 57767 83
Width: 1000
Flags: W
HStem: 69.0488 80<705.525 842.202> 152.185 82.3828<74.619 296.275> 449.16 80<635.274 801.34>
VStem: 876.114 80.0039<190.148 372.888>
LayerCount: 2
Fore
SplineSet
956.118164062 281.391601562 m 0
 956.118164062 435.2578125 847.834960938 529.16015625 720.737304688 529.16015625 c 0
 635.01171875 529.16015625 545.822265625 485.75 487.088867188 398.177734375 c 0
 378.150390625 235.754882812 181.131835938 225.473632812 124.991210938 234.567382812 c 0
 92.9091796875 252.463867188 55.3857421875 220.565429688 67.931640625 185.982421875 c 0
 75.892578125 164.0390625 96.125 152.184570312 159.374023438 152.184570312 c 0
 240.219726562 152.184570312 390.15625 175.474609375 503.112304688 291.3828125 c 1
 533.094726562 169.39453125 667.436523438 69.048828125 783.810546875 69.048828125 c 0
 848.39453125 69.048828125 955.109375 104.3203125 956.118164062 281.391601562 c 0
783.810546875 149.048828125 m 0
 684.072265625 149.048828125 544.174804688 269.3984375 583.747070312 383.6796875 c 0
 584.69921875 386.427734375 585.359375 389.3125 585.690429688 392.294921875 c 0
 626.053710938 431.323242188 675.0703125 449.16015625 720.737304688 449.16015625 c 0
 794.169921875 449.16015625 876.122070312 401.126953125 876.114257812 279.94140625 c 0
 875.830078125 230.859375 864.94921875 199.640625 851.731445312 181.129882812 c 0
 835.838867188 158.873046875 813.768554688 149.048828125 783.810546875 149.048828125 c 0
EndSplineSet
Validated: 524329
EndChar

StartChar: uniE1A8
Encoding: 57768 57768 84
Width: 1000
Flags: W
HStem: -136.777 80<340.677 673.183>
VStem: 38.8311 79.916<111.494 276.988> 309.395 79.918<652.568 715.994> 876.289 80<68.4098 162.746>
LayerCount: 2
Fore
SplineSet
504.513671875 -56.77734375 m 0
 334.576171875 -56.77734375 109.017578125 7.9306640625 118.747070312 221.275390625 c 0
 121.073242188 272.265625 155.93359375 301.34375 215.565429688 346.560546875 c 0
 296.885742188 408.221679688 401.739257812 487.765625 389.3125 683.04296875 c 0
 387.984375 703.921875 370.606445312 720.46875 349.39453125 720.46875 c 0
 327.318359375 720.46875 309.39453125 702.544921875 309.39453125 680.46875 c 0
 309.39453125 680.18359375 310.323242188 664.801757812 310.323242188 651.96484375 c 0
 310.323242188 521.647460938 244.229492188 468.6796875 167.294921875 410.34375 c 0
 111.915039062 368.3515625 43.11328125 318.828125 38.8310546875 224.974609375 c 0
 27.857421875 -15.6708984375 248.34375 -136.77734375 504.513671875 -136.77734375 c 0
 734.801757812 -136.77734375 956.2890625 -37.998046875 956.2890625 127.173828125 c 0
 956.264648438 149.229492188 938.350585938 167.12890625 916.2890625 167.12890625 c 0
 894.212890625 167.12890625 876.2890625 149.205078125 876.2890625 126.974609375 c 0
 876.2890625 18.96484375 692.65625 -56.77734375 504.513671875 -56.77734375 c 0
EndSplineSet
Validated: 524329
EndChar

StartChar: uniE1AA
Encoding: 57770 57770 85
Width: 1000
Flags: W
HStem: 361.349 300.25<231.409 605.413> 365.353 79.998<166.986 189.283 928.217 964.053>
LayerCount: 2
Fore
SplineSet
532.462890625 494.255859375 m 0x00
 600.048828125 394.162109375 634.243164062 231.05859375 572.874023438 135.4296875 c 0
 484.0234375 -3.037109375 224.534179688 -12.1982421875 154.180664062 147.411132812 c 0
 97.7275390625 275.49609375 227.619140625 493.936523438 351.44140625 562.323242188 c 0
 366.293945312 570.525390625 396.4453125 584.790039062 422.967773438 580.943359375 c 0
 456.544921875 576.068359375 497.575195312 545.924804688 532.462890625 494.255859375 c 0x00
640.250976562 92.3046875 m 0
 766.200195312 288.565429688 605.413085938 661.598632812 413.584960938 661.598632812 c 0x80
 231.409179688 661.598632812 -11.1142578125 324.060546875 80.9365234375 115.206054688 c 0
 176.971679688 -102.663085938 516.440429688 -100.646484375 640.250976562 92.3046875 c 0
149.0625 401.34765625 m 0
 149.0625 379.271484375 166.986328125 361.34765625 189.283203125 361.348632812 c 2x80
 928.658203125 365.352539062 l 2
 950.633789062 365.470703125 968.4375 383.348632812 968.4375 405.3515625 c 0
 968.4375 427.427734375 950.513671875 445.3515625 928.216796875 445.350585938 c 2x40
 188.841796875 441.346679688 l 2
 166.866210938 441.228515625 149.0625 423.350585938 149.0625 401.34765625 c 0
EndSplineSet
Validated: 37
EndChar

StartChar: uniE1AB
Encoding: 57771 57771 86
Width: 1000
Flags: W
HStem: -59.3564 80<472.428 575.163> 259.866 80.0088<722.58 788.438 788.438 824.09> 653.604 80.0684<843.555 878.252>
VStem: 161.699 80<-171.832 653.604> 629.886 82.6729<339.952 388.051> 642.537 80.043<111.658 259.866>
LayerCount: 2
Fore
SplineSet
642.537109375 259.940429688 m 1xf4
 643.404296875 236.201171875 642.555664062 199.739257812 632.884765625 151.94921875 c 0
 613.668945312 57.0283203125 562.359375 20.6435546875 525.0390625 20.6435546875 c 0
 465.079101562 20.6435546875 404.069335938 103.110351562 388.770507812 260.176757812 c 1
 642.537109375 259.940429688 l 1xf4
394.290039062 340.171875 m 1
 401.0625 372.455078125 426.836914062 463.282226562 502.48828125 463.282226562 c 0
 552.5703125 463.282226562 606.13671875 418.84765625 629.885742188 339.952148438 c 1xf8
 394.290039062 340.171875 l 1
525.0390625 -59.3564453125 m 0
 616.06640625 -59.3564453125 688.1328125 21.59765625 711.294921875 136.01953125 c 0
 718.44140625 171.327148438 723.977539062 214.078125 722.580078125 259.866210938 c 1xf4
 788.438476562 259.866210938 788.438476562 259.866210938 788.438476562 259.8046875 c 1
 810.515625 259.8046875 828.4765625 277.728515625 828.4765625 299.8046875 c 0
 828.4765625 321.868164062 810.573242188 339.784179688 788.514648438 339.8046875 c 0
 763.196289062 339.8046875 737.877929688 339.875 712.55859375 339.875 c 0
 691.821289062 430.32421875 641.37109375 495.806640625 577.786132812 525.907226562 c 0
 468.862304688 577.470703125 330.943359375 515.600585938 309.346679688 314.22265625 c 0
 307.192382812 309.311523438 305.99609375 303.885742188 306.038085938 296.344726562 c 0
 312.969726562 143.486328125 354.59375 39.9111328125 417.678710938 -16.005859375 c 0
 449.342773438 -44.0732421875 486.741210938 -59.3564453125 525.0390625 -59.3564453125 c 0
201.69921875 -176.2109375 m 0
 223.725585938 -176.2109375 241.6171875 -158.369140625 241.69921875 -136.362304688 c 2
 244.63671875 653.603515625 l 1
 843.51953125 652.578125 843.51953125 652.578125 843.5546875 652.578125 c 0
 865.630859375 652.578125 883.5546875 670.501953125 883.5546875 692.578125 c 0
 883.5546875 714.631835938 865.668945312 732.540039062 843.625 732.578125 c 0
 204.8203125 733.671875 204.8203125 733.671875 204.78515625 733.671875 c 0
 182.758789062 733.671875 164.8671875 715.830078125 164.78515625 693.823242188 c 2
 164.78515625 693.823242188 161.69921875 -136.059570312 161.69921875 -136.2109375 c 0
 161.69921875 -158.287109375 179.623046875 -176.2109375 201.69921875 -176.2109375 c 0
EndSplineSet
Validated: 41
EndChar

StartChar: uniE1AC
Encoding: 57772 57772 87
Width: 1000
Flags: W
VStem: 216.395 80<452.282 581.543>
LayerCount: 2
Fore
SplineSet
524.547851562 609.78125 m 1
 344.991210938 724.103515625 216.39453125 661.901367188 216.39453125 536.328125 c 0
 216.39453125 428.6796875 306.692382812 278.381835938 485.044921875 106.728515625 c 0
 499.155273438 93.1484375 520.881835938 91.8369140625 536.471679688 103.329101562 c 0
 642.615234375 181.568359375 716.021484375 272.784179688 760.578125 359.4609375 c 0
 796.2109375 428.779296875 813.865234375 495.327148438 813.865234375 552.475585938 c 0
 813.865234375 588.2578125 805.918945312 657.626953125 747.950195312 687.6015625 c 0
 710.439453125 706.997070312 637.5390625 715.549804688 524.547851562 609.78125 c 1
296.39453125 536.328125 m 0
 296.39453125 559.705078125 302.053710938 589.868164062 350.807617188 589.868164062 c 0
 386.512695312 589.868164062 442.509765625 571.344726562 505.923828125 525.80859375 c 0
 521.890625 514.342773438 543.994140625 516.158203125 557.884765625 530.43359375 c 0
 581.748046875 554.958984375 649.125976562 619.5234375 697.076171875 619.5234375 c 0
 705.200195312 619.5234375 718.689453125 618.63671875 727.439453125 595.004882812 c 0
 753.711914062 524.0546875 702.807617188 339.208007812 515.919921875 188.46484375 c 1
 428.967773438 275.344726562 371.40625 351.017578125 337.341796875 412.5078125 c 0
 307.533203125 466.315429688 296.39453125 508.774414062 296.39453125 536.328125 c 0
242.654296875 -136.419921875 m 2
 267.323242188 -162.95703125 311.953125 -145.298828125 311.953125 -109.19921875 c 0
 311.953125 -98.6884765625 307.890625 -89.1201171875 301.251953125 -81.978515625 c 2
 236.631835938 -12.4658203125 l 1
 447.98046875 -77.3828125 679.168945312 -105.236328125 890.618164062 34.9580078125 c 0
 923.509765625 56.7666015625 907.856445312 108.3203125 868.5546875 108.3203125 c 0
 860.403320312 108.3203125 852.817382812 105.876953125 846.491210938 101.682617188 c 0
 633.5546875 -39.4990234375 392.721679688 8.41015625 111.838867188 115.7578125 c 0
 85.8291015625 125.698242188 57.578125 106.440429688 57.578125 78.37890625 c 0
 57.578125 67.8681640625 61.640625 58.2998046875 68.279296875 51.158203125 c 2
 242.654296875 -136.419921875 l 2
EndSplineSet
Validated: 41
EndChar

StartChar: uniE1AD
Encoding: 57773 57773 88
Width: 1000
Flags: W
VStem: 40.9805 79.918<660.684 711.775> 348.066 80<-144.446 -108.711 565.419 719.362> 534.552 79.998<-156.494 -120.652 355.789 390.212> 712.794 79.998<-161.67 -125.828 350.613 385.036>
LayerCount: 2
Fore
SplineSet
120.391601562 660.3984375 m 0
 120.391601562 666.4453125 120.8984375 676.091796875 120.8984375 676.25 c 0
 120.8984375 698.326171875 102.974609375 716.25 80.8984375 716.25 c 0
 59.6865234375 716.25 42.30859375 699.703125 40.98046875 678.82421875 c 0
 28.1201171875 476.745117188 226.420898438 350.313476562 346.444335938 454.836914062 c 1
 348.06640625 -108.9453125 l 2
 348.129882812 -130.967773438 366.029296875 -148.828125 388.06640625 -148.828125 c 0
 410.142578125 -148.828125 428.06640625 -130.904296875 428.06640625 -108.7109375 c 2
 425.78125 685.25390625 l 2
 425.717773438 707.276367188 407.818359375 725.13671875 385.78125 725.13671875 c 0
 363.8046875 725.13671875 345.943359375 707.375 345.782226562 685.435546875 c 0
 345.435546875 638.024414062 338.1953125 554.393554688 294.466796875 515.641601562 c 0
 231.764648438 460.073242188 120.391601562 538.2578125 120.391601562 660.3984375 c 0
571.89453125 396.015625 m 0
 549.818359375 396.015625 531.89453125 378.091796875 531.895507812 355.7890625 c 2
 534.551757812 -121.10546875 l 2
 534.673828125 -143.078125 552.549804688 -160.87890625 574.55078125 -160.87890625 c 0
 596.626953125 -160.87890625 614.55078125 -142.955078125 614.549804688 -120.65234375 c 2
 611.893554688 356.2421875 l 2
 611.771484375 378.21484375 593.895507812 396.015625 571.89453125 396.015625 c 0
750.13671875 390.83984375 m 0
 728.060546875 390.83984375 710.13671875 372.916015625 710.137695312 350.61328125 c 2
 712.793945312 -126.28125 l 2
 712.916015625 -148.25390625 730.791992188 -166.0546875 752.79296875 -166.0546875 c 0
 774.869140625 -166.0546875 792.79296875 -148.130859375 792.791992188 -125.828125 c 2
 790.135742188 351.06640625 l 2
 790.013671875 373.0390625 772.137695312 390.83984375 750.13671875 390.83984375 c 0
EndSplineSet
Validated: 41
EndChar

StartChar: uniE1AE
Encoding: 57774 57774 89
Width: 1000
Flags: W
HStem: 411.046 80<597.117 765.298> 631.932 80<498.678 609.162>
VStem: 399.796 80<458.546 634.842>
LayerCount: 2
Fore
SplineSet
573.868164062 308.651367188 m 1
 535.421875 368.416015625 479.795898438 468.645507812 479.795898438 548.290039062 c 0
 479.795898438 573.552734375 486.515625 631.931640625 548.631835938 631.931640625 c 0
 624.002929688 631.931640625 719.120117188 536.883789062 617.228515625 357.166015625 c 0
 611.080078125 346.3203125 595.681640625 328.7890625 573.868164062 308.651367188 c 1
511.659179688 257.543945312 m 1
 381.55859375 159.357421875 178.458007812 43.6328125 112.079101562 7.4755859375 c 0
 99.62890625 0.693359375 91.171875 -12.51171875 91.171875 -27.67578125 c 0
 91.171875 -58.001953125 123.801757812 -77.2421875 150.264648438 -62.8271484375 c 0
 175.415039062 -49.126953125 406.224609375 78.3056640625 556.55078125 191.192382812 c 1
 641.159179688 69.458984375 756.779296875 -83.212890625 757.06640625 -83.5927734375 c 0
 780.130859375 -114.079101562 828.984375 -97.55078125 828.984375 -59.4921875 c 0
 828.984375 -50.4453125 825.974609375 -42.095703125 820.90234375 -35.3916015625 c 2
 820.90234375 -35.3916015625 702.072265625 121.796875 619.05859375 241.477539062 c 0
 648.379882812 267.049804688 672.069335938 291.682617188 686.873046875 317.794921875 c 0
 822.84765625 557.62890625 678.709960938 711.931640625 548.631835938 711.931640625 c 0
 470.434570312 711.931640625 399.795898438 656.125 399.795898438 548.290039062 c 0
 399.795898438 442.694335938 465.114257812 328.947265625 511.659179688 257.543945312 c 1
696.923828125 491.045898438 m 0
 531.647460938 491.045898438 356.76171875 703.079101562 159.305664062 573.833984375 c 0
 123.479492188 550.383789062 88.7666015625 516.690429688 54.357421875 471.00390625 c 0
 34.6064453125 444.779296875 53.4560546875 406.97265625 86.328125 406.97265625 c 0
 99.388671875 406.97265625 110.99609375 413.24609375 118.298828125 422.94140625 c 0
 192.76171875 521.810546875 253.381835938 535.576171875 295.1640625 535.576171875 c 0
 415.869140625 535.576171875 542.44921875 411.045898438 696.923828125 411.045898438 c 0
 813.162109375 411.045898438 901.474609375 484.21484375 970.180664062 570.408203125 c 0
 990.96875 596.48828125 972.247070312 635.3125 938.88671875 635.3125 c 0
 926.221679688 635.3125 914.923828125 629.4140625 907.592773438 620.216796875 c 0
 818.359375 508.26953125 746.799804688 491.045898438 696.923828125 491.045898438 c 0
EndSplineSet
Validated: 37
EndChar

StartChar: uniE1AF
Encoding: 57775 57775 90
Width: 1000
HStem: -132.914 80<442.121 538.374>
VStem: 315.303 80.0098<8.30695 161.676> 618.669 81.1553<69.1281 180.511 180.883 602.331>
LayerCount: 2
Fore
SplineSet
487.388671875 -132.9140625 m 0
 585.672851562 -132.9140625 690.844726562 -28.4658203125 693.434570312 180.510742188 c 2
 693.434570312 180.510742188 699.821289062 694.552734375 699.82421875 695.05859375 c 0
 699.82421875 729.77734375 658.139648438 748.045898438 632.634765625 724.385742188 c 2
 449.626953125 554.620117188 l 2
 423.048828125 529.965820312 440.697265625 485.29296875 476.81640625 485.29296875 c 0
 487.311523438 485.29296875 496.868164062 489.34375 504.005859375 495.965820312 c 2
 618.668945312 602.331054688 l 1
 613.440429688 181.520507812 l 2
 611.530273438 27.37109375 543.850585938 -52.9140625 487.388671875 -52.9140625 c 0
 438.670898438 -52.9140625 394.66015625 8.373046875 395.3125 126.0546875 c 0
 395.3125 148.130859375 377.388671875 166.0546875 355.3125 166.0546875 c 0
 333.3203125 166.0546875 315.44921875 148.267578125 315.313476562 126.306640625 c 0
 315.306640625 125.185546875 315.302734375 124.067382812 315.302734375 122.952148438 c 0
 315.302734375 -54.0341796875 402.311523438 -132.9140625 487.388671875 -132.9140625 c 0
EndSplineSet
Validated: 41
EndChar

StartChar: uniE1B5
Encoding: 57781 57781 91
Width: 1000
Flags: W
HStem: 154.928 76.1602<597.497 675.065>
LayerCount: 2
Fore
SplineSet
365.244140625 579.93359375 m 0
 433.809570312 606.575195312 539.096679688 498.418945312 709.3203125 585.5625 c 0
 722.264648438 592.188476562 731.1328125 605.662109375 731.1328125 621.19140625 c 0
 731.1328125 651.081054688 699.366210938 670.346679688 672.9453125 656.8203125 c 0
 550.82421875 594.302734375 482.375976562 664.444335938 390.526367188 664.444335938 c 0
 350.104492188 664.444335938 310.243164062 649.857421875 271.358398438 609.051757812 c 0
 215.697265625 550.654296875 227.638671875 447.924804688 329.235351562 338.532226562 c 0
 398.190429688 264.287109375 501.637695312 195.12109375 626.325195312 154.927734375 c 0
 652.008789062 146.6484375 678.59375 165.844726562 678.59375 193.0078125 c 0
 678.59375 210.805664062 666.9453125 225.903320312 650.862304688 231.087890625 c 0
 539.298828125 267.05078125 446.59375 329.705078125 387.858398438 392.947265625 c 0
 371.016601562 411.081054688 318.301757812 471.946289062 318.301757812 523.368164062 c 0
 318.301757812 537.364257812 322.047851562 546.303710938 329.266601562 553.877929688 c 0
 343.32421875 568.629882812 354.981445312 575.946289062 365.244140625 579.93359375 c 0
269.19140625 -135.330078125 m 2
 293.366210938 -163.236328125 339.43359375 -145.928710938 339.43359375 -109.16015625 c 0
 339.43359375 -99.1572265625 335.75390625 -90.0068359375 329.67578125 -82.990234375 c 2
 239.879882812 20.6689453125 l 1
 451.336914062 -46.8857421875 685.606445312 -69.1904296875 933.387695312 70.1064453125 c 0
 945.58203125 76.962890625 953.828125 90.0263671875 953.828125 105 c 0
 953.828125 135.5546875 920.744140625 154.77734375 894.268554688 139.893554688 c 0
 635.138671875 -5.7841796875 389.4296875 38.6826171875 122.828125 149.344726562 c 0
 96.67578125 160.19921875 67.51953125 140.923828125 67.51953125 112.3828125 c 0
 67.51953125 102.379882812 71.19921875 93.2294921875 77.27734375 86.212890625 c 2
 269.19140625 -135.330078125 l 2
EndSplineSet
Validated: 524329
EndChar

StartChar: uniE1B7
Encoding: 57783 57783 92
Width: 1000
LayerCount: 2
Fore
SplineSet
289.487304688 362.622070312 m 2
 263.579101562 384.409179688 223.767578125 365.828125 223.767578125 331.997070312 c 0
 223.767578125 319.7109375 229.318359375 308.711914062 238.046875 301.37109375 c 2
 700.05859375 -87.14453125 l 2
 725.966796875 -108.931640625 765.779296875 -90.3505859375 765.779296875 -56.5185546875 c 0
 765.779296875 -44.2333984375 760.227539062 -33.2333984375 751.499023438 -25.8935546875 c 2
 289.487304688 362.622070312 l 2
231.809570312 -29.61328125 m 2
 201.901367188 -52.947265625 218.619140625 -101.166992188 256.384765625 -101.166992188 c 0
 265.645507812 -101.166992188 274.17578125 -98.0126953125 280.958984375 -92.720703125 c 2
 762.833984375 283.236328125 l 2
 792.7421875 306.5703125 776.025390625 354.790039062 738.259765625 354.790039062 c 0
 728.998046875 354.790039062 720.467773438 351.635742188 713.684570312 346.34375 c 2
 231.809570312 -29.61328125 l 2
118.190429688 642.975585938 m 0
 91.80859375 661.162109375 55.52734375 642.15234375 55.52734375 610.01953125 c 0
 55.52734375 596.353515625 62.3955078125 584.280273438 72.8642578125 577.063476562 c 0
 287.926757812 428.815429688 601.217773438 314.059570312 946.950195312 602.169921875 c 0
 975.603515625 626.046875 958.504882812 672.91015625 921.3671875 672.91015625 c 0
 911.640625 672.91015625 902.720703125 669.431640625 895.784179688 663.650390625 c 0
 665.805664062 472.001953125 414.078125 439.014648438 118.190429688 642.975585938 c 0
EndSplineSet
Validated: 524325
EndChar

StartChar: uniE1B8
Encoding: 57784 57784 93
Width: 1000
Flags: W
HStem: 131.271 79.9961<192.318 228.305 788.336 820.845>
LayerCount: 2
Fore
SplineSet
241.888671875 -108.010742188 m 2
 232.55078125 -133.913085938 251.791015625 -161.5625 279.53125 -161.5625 c 0
 296.8515625 -161.5625 311.616210938 -150.529296875 317.173828125 -135.114257812 c 2
 503.021484375 380.393554688 l 1
 654.518554688 -139.879882812 l 2
 659.36328125 -156.518554688 674.736328125 -168.69140625 692.9296875 -168.69140625 c 0
 719.611328125 -168.69140625 738.760742188 -142.982421875 731.340820312 -117.502929688 c 2
 545.481445312 520.778320312 l 2
 534.737304688 557.676757812 482.486328125 559.362304688 469.427734375 523.141601562 c 2
 241.888671875 -108.010742188 l 2
187.9296875 171.26953125 m 0
 187.9296875 149.193359375 205.853515625 131.26953125 228.3046875 131.271484375 c 2
 789.0859375 136.427734375 l 2
 810.990234375 136.62890625 828.7109375 154.474609375 828.7109375 176.42578125 c 0
 828.7109375 198.501953125 810.787109375 216.42578125 788.3359375 216.423828125 c 2
 227.5546875 211.267578125 l 2
 205.650390625 211.06640625 187.9296875 193.220703125 187.9296875 171.26953125 c 0
EndSplineSet
Validated: 524325
EndChar

StartChar: uniE1B9
Encoding: 57785 57785 94
Width: 1000
Flags: W
VStem: 66.0352 80<-135.559 -99.7871>
LayerCount: 2
Fore
SplineSet
106.03515625 -139.94140625 m 0
 128.111328125 -139.94140625 146.03515625 -122.017578125 146.03515625 -99.787109375 c 2
 144.1796875 391.229492188 l 1
 510.979492188 652.282226562 l 1
 908.663085938 378.814453125 l 2
 935.048828125 360.670898438 971.2890625 379.68359375 971.2890625 411.796875 c 0
 971.2890625 425.478515625 964.405273438 437.565429688 953.915039062 444.779296875 c 2
 533.211914062 734.076171875 l 2
 531.329101562 735.370117188 509.696289062 749.551757812 487.4296875 733.704101562 c 2
 80.9453125 444.407226562 l 2
 70.75390625 437.154296875 64.1015625 425.24609375 64.1015625 411.642578125 c 2
 66.03515625 -100.095703125 l 2
 66.1181640625 -122.1015625 84.009765625 -139.94140625 106.03515625 -139.94140625 c 0
EndSplineSet
Validated: 524329
EndChar

StartChar: uniE1BA
Encoding: 57786 57786 95
Width: 1000
Flags: W
VStem: 333.146 79.998<-190.886 -154.953> 570.898 79.999<-180.895 -145.527 -145.066 524.258>
LayerCount: 2
Fore
SplineSet
407.067382812 618.176757812 m 1
 445.951171875 582.4609375 500.8203125 554.301757812 561.012695312 591.39453125 c 0
 597.069335938 613.614257812 626.377929688 653.375 655.698242188 712.630859375 c 0
 668.755859375 739.01953125 649.482421875 770.33203125 619.82421875 770.33203125 c 0
 604.1015625 770.33203125 590.485351562 761.241210938 583.950195312 748.033203125 c 0
 572.515625 724.924804688 534.841796875 654.099609375 502.626953125 654.099609375 c 0
 470.65234375 654.099609375 422.750976562 719.13671875 398.763671875 752.72265625 c 0
 376.283203125 784.198242188 326.190429688 768.322265625 326.192382812 729.19140625 c 2
 333.145507812 -155.59375 l 2
 333.318359375 -177.5234375 351.174804688 -195.2734375 373.14453125 -195.2734375 c 0
 395.220703125 -195.2734375 413.14453125 -177.349609375 413.143554688 -154.953125 c 2
 407.067382812 618.176757812 l 1
614.86328125 531.09375 m 0
 592.87109375 531.09375 575.000976562 513.307617188 574.864257812 491.34765625 c 0
 570.8984375 -145.146484375 570.8984375 -145.146484375 570.8984375 -145.2734375 c 0
 570.8984375 -167.349609375 588.822265625 -185.2734375 610.8984375 -185.2734375 c 0
 632.890625 -185.2734375 650.760742188 -167.487304688 650.897460938 -145.52734375 c 2
 650.897460938 -145.52734375 654.862304688 490.83984375 654.86328125 491.09375 c 0
 654.86328125 513.169921875 636.939453125 531.09375 614.86328125 531.09375 c 0
EndSplineSet
Validated: 524329
EndChar

StartChar: uniE1BB
Encoding: 57787 57787 96
Width: 1000
Flags: W
HStem: 635.879 80<99.2616 859.252 859.777 893.854>
LayerCount: 2
Fore
SplineSet
94.8828125 675.87890625 m 0
 94.8828125 653.844726562 112.736328125 635.948242188 134.75390625 635.87890625 c 0
 859.583984375 633.59375 859.583984375 633.59375 859.6484375 633.59375 c 0
 881.724609375 633.59375 899.6484375 651.517578125 899.6484375 673.59375 c 0
 899.6484375 695.627929688 881.794921875 713.524414062 859.77734375 713.59375 c 2
 859.77734375 713.59375 135.01171875 715.87890625 134.8828125 715.87890625 c 0
 112.806640625 715.87890625 94.8828125 697.955078125 94.8828125 675.87890625 c 0
621.541015625 456.865234375 m 0
 685.475585938 374.325195312 544.741210938 250.546875 446.666015625 296.639648438 c 0
 428.708984375 305.080078125 411.041992188 319.286132812 394.793945312 343.098632812 c 0
 370.138671875 452.25390625 458.163085938 556.44140625 573.609375 494.82421875 c 0
 596.787109375 482.452148438 611.92578125 469.278320312 621.541015625 456.865234375 c 0
445.616210938 212.384765625 m 1
 574.973632812 179.366210938 717.860351562 290.401367188 717.860351562 411.448242188 c 0
 717.860351562 457.580078125 696.23828125 520.053710938 611.1953125 565.44921875 c 0
 411.168945312 672.2109375 236.541992188 453.413085938 342.57421875 257.106445312 c 0
 368.53125 209.049804688 377.78515625 160.905273438 377.78515625 116.256835938 c 0
 377.78515625 64.3935546875 364.936523438 16.8681640625 351.114257812 -17.1796875 c 0
 347.201171875 -26.8193359375 338.05078125 -47.9365234375 327.719726562 -62.474609375 c 0
 296.825195312 -85.2587890625 312.983398438 -134.694335938 351.541992188 -134.694335938 c 0
 369.744140625 -134.694335938 381.861328125 -124.8671875 394.163085938 -107.143554688 c 0
 424.395507812 -63.587890625 483.251953125 68.0380859375 445.616210938 212.384765625 c 1
EndSplineSet
Validated: 524329
EndChar

StartChar: uniE1BD
Encoding: 57789 57789 97
Width: 1000
Flags: W
HStem: 345.315 80<444.4 615.209>
VStem: 493.34 79.9727<725.088 760.304>
LayerCount: 2
Fore
SplineSet
514.61328125 345.315429688 m 0
 642.2109375 345.315429688 811.541015625 114.890625 749.728515625 -0.599609375 c 0
 678.282226562 -134.075195312 346.962890625 -109.000976562 286.080078125 32.052734375 c 0
 237.84375 143.7890625 395.579101562 345.315429688 514.61328125 345.315429688 c 0
842.69921875 56.0830078125 m 0
 842.69921875 220.92578125 670.63671875 425.315429688 514.61328125 425.315429688 c 0
 364.243164062 425.315429688 197.286132812 235.376953125 197.286132812 77.8515625 c 0
 197.286132812 -82.4208984375 375.461914062 -168.626953125 544.234375 -168.626953125 c 0
 704.124023438 -168.626953125 842.69921875 -91.8154296875 842.69921875 56.0830078125 c 0
532.59765625 765.13671875 m 0
 510.521484375 765.13671875 492.59765625 747.212890625 492.59765625 725.087890625 c 2
 493.33984375 100.966796875 l 2
 493.357421875 86.0615234375 501.545898438 73.0546875 513.662109375 66.189453125 c 2
 735.947265625 -59.767578125 l 2
 762.42578125 -74.771484375 795.625 -55.5537109375 795.625 -24.94140625 c 0
 795.625 -10.015625 787.432617188 3.01171875 775.302734375 9.884765625 c 2
 573.3125 124.341796875 l 1
 572.59765625 725.185546875 l 2
 572.59765625 747.239257812 554.658203125 765.13671875 532.59765625 765.13671875 c 0
EndSplineSet
Validated: 524325
EndChar

StartChar: uniE1BE
Encoding: 57790 57790 98
Width: 1000
Flags: W
HStem: 541.105 80<449.5 569.395>
VStem: 365 80<-157.161 -121.409 707.386 741.238> 573.105 80<-139.505 -103.761 706.808 741.134>
LayerCount: 2
Fore
SplineSet
529.798828125 541.10546875 m 0
 672.348632812 541.10546875 822.333007812 270.748046875 717.498046875 138.202148438 c 0
 613.6953125 6.962890625 308.616210938 1.8232421875 228.904296875 148.563476562 c 0
 167.8125 261.037109375 312.41015625 458.965820312 453.662109375 522.258789062 c 0
 481.686523438 534.81640625 508.106445312 541.10546875 529.798828125 541.10546875 c 0
780.275390625 88.6337890625 m 0
 926.681640625 273.73828125 740.35546875 621.10546875 529.798828125 621.10546875 c 0
 329.649414062 621.10546875 50.755859375 308.926757812 158.556640625 110.459960938 c 0
 177.879882812 74.888671875 205.610351562 45.8935546875 237.861328125 23.4931640625 c 0
 391.6953125 -83.3544921875 666.630859375 -55.05078125 780.275390625 88.6337890625 c 0
402.28515625 747.51953125 m 0
 380.208984375 747.51953125 362.28515625 729.595703125 362.28515625 707.385742188 c 2
 365 -121.676757812 l 2
 365.072265625 -143.69140625 382.967773438 -161.54296875 405 -161.54296875 c 0
 427.076171875 -161.54296875 445 -143.619140625 445 -121.409179688 c 2
 442.28515625 707.653320312 l 2
 442.212890625 729.66796875 424.317382812 747.51953125 402.28515625 747.51953125 c 0
613.10546875 -143.88671875 m 0
 635.181640625 -143.88671875 653.10546875 -125.962890625 653.10546875 -103.760742188 c 2
 650.60546875 707.059570312 l 2
 650.537109375 729.078125 632.640625 746.93359375 610.60546875 746.93359375 c 0
 588.529296875 746.93359375 570.60546875 729.009765625 570.60546875 706.807617188 c 2
 573.10546875 -104.012695312 l 2
 573.173828125 -126.03125 591.0703125 -143.88671875 613.10546875 -143.88671875 c 0
EndSplineSet
Validated: 524325
EndChar

StartChar: uniE1BF
Encoding: 57791 57791 99
Width: 1000
Flags: W
HStem: -153.228 79.9707<394.173 430.574>
VStem: 649.513 79.999<-67.4697 652.457>
LayerCount: 2
Fore
SplineSet
689.51171875 656.8359375 m 0
 667.506835938 656.8359375 649.626953125 639.028320312 649.512695312 617.049804688 c 2
 645.92578125 -67.4697265625 l 1
 428.41015625 -73.2568359375 l 2
 406.833007812 -73.8310546875 389.4921875 -91.52734375 389.4921875 -113.2421875 c 0
 389.4921875 -135.6953125 408.025390625 -153.828125 430.57421875 -153.227539062 c 2
 686.8046875 -146.411132812 l 2
 708.310546875 -145.838867188 725.608398438 -128.256835938 725.721679688 -106.639648438 c 2
 725.721679688 -106.639648438 729.510742188 616.622070312 729.51171875 616.8359375 c 0
 729.51171875 638.912109375 711.587890625 656.8359375 689.51171875 656.8359375 c 0
283.37890625 755.64453125 m 0
 255.881835938 755.64453125 236.658203125 728.4453125 245.546875 702.630859375 c 2
 485.4296875 5.970703125 l 2
 490.833984375 -9.7255859375 505.740234375 -21.015625 523.26171875 -21.015625 c 0
 550.758789062 -21.015625 569.982421875 6.18359375 561.09375 31.998046875 c 2
 321.2109375 728.658203125 l 2
 315.806640625 744.354492188 300.900390625 755.64453125 283.37890625 755.64453125 c 0
283.375976562 715.647460938 m 1
 523.259765625 18.98046875 l 1025
EndSplineSet
Validated: 524331
EndChar

StartChar: uniE1C0
Encoding: 57792 57792 100
Width: 1000
Flags: W
VStem: 347.07 79.9639<-152.613 121.653> 653.328 80<358.789 393.789 426.019 558.771>
LayerCount: 2
Fore
SplineSet
334.599609375 479.65625 m 0
 334.599609375 400.140625 352.022460938 384.865234375 352.022460938 131.793945312 c 0
 352.022460938 0.93359375 347.106445312 -115.49609375 347.0703125 -117.20703125 c 0
 347.0703125 -139.283203125 364.994140625 -157.20703125 387.0703125 -157.20703125 c 0
 408.573242188 -157.20703125 426.13671875 -140.202148438 427.034179688 -118.91796875 c 0
 427.76953125 -101.484375 441.819335938 244.8125 419.369140625 411.9296875 c 0
 392.969726562 608.443359375 481.78125 699.275390625 559.831054688 659.057617188 c 0
 603.286132812 636.666992188 653.328125 565.322265625 653.328125 426.018554688 c 0
 653.328125 408.086914062 652.51953125 396.383789062 652.51953125 393.7890625 c 0
 652.51953125 371.712890625 670.443359375 353.7890625 692.51953125 353.7890625 c 0
 713.926757812 353.7890625 731.428710938 370.641601562 732.470703125 391.791992188 c 0
 733.045898438 403.473632812 733.328125 414.881835938 733.328125 426.018554688 c 0
 733.328125 783.228515625 445.20703125 836.271484375 359.08203125 621.12109375 c 0
 343.301757812 581.702148438 334.599609375 534.459960938 334.599609375 479.65625 c 0
EndSplineSet
Validated: 524329
EndChar

StartChar: uniE1C1
Encoding: 57793 57793 101
Width: 1000
Flags: W
HStem: 660.673 77.9121<304.322 401.647>
LayerCount: 2
Fore
SplineSet
516.264648438 278.51953125 m 1
 692.881835938 202.1953125 889.116210938 352.807617188 889.116210938 515.717773438 c 0
 889.116210938 583.321289062 854.498046875 662.23828125 748.546875 717.690429688 c 0
 492.76953125 851.55859375 272.418945312 576.274414062 408.103515625 329.959960938 c 0
 443.8828125 265.01171875 456.625976562 199.91015625 456.625976562 139.743164062 c 0
 456.625976562 69.8427734375 439.038085938 6.1884765625 420.08984375 -39.5751953125 c 0
 415.76953125 -50.009765625 401.661132812 -82.6923828125 386.108398438 -103.223632812 c 0
 353.0078125 -124.80078125 368.262695312 -176.767578125 408.06640625 -176.767578125 c 0
 426.713867188 -176.767578125 439.45703125 -166.5078125 453.75390625 -146.3125 c 0
 493.573242188 -90.0634765625 574.427734375 87.2333984375 516.264648438 278.51953125 c 1
782.95703125 590.09375 m 0
 864.1484375 484.458007812 741.415039062 338.099609375 614.147460938 338.099609375 c 0
 561.59765625 338.099609375 505.138671875 361.434570312 455.118164062 430.657226562 c 0
 454.44140625 431.59375 453.724609375 432.500976562 452.970703125 433.374023438 c 0
 416.6328125 587.698242188 546.80078125 732.979492188 711.53125 646.762695312 c 0
 745.150390625 629.16796875 767.963867188 609.600585938 782.95703125 590.09375 c 0
193.161132812 159.543945312 m 0
 164.515625 135.663085938 181.616210938 88.80859375 218.75 88.80859375 c 0
 228.479492188 88.80859375 237.40234375 92.2900390625 244.338867188 98.0732421875 c 0
 383.739257812 214.2890625 354.302734375 326.739257812 329.35546875 386.676757812 c 0
 292.580078125 475.032226562 214.03125 557.775390625 232.290039062 594.974609375 c 0
 242.77734375 616.33984375 287.973632812 640.392578125 374.91015625 660.672851562 c 0
 392.603515625 664.799804688 405.80078125 680.685546875 405.80078125 699.62890625 c 0
 405.80078125 725.393554688 381.72265625 744.423828125 356.69140625 738.584960938 c 0
 249.5078125 713.58203125 99.8359375 663.486328125 165.745117188 516.561523438 c 0
 197.936523438 444.80078125 270.391601562 367.64453125 270.391601562 290.307617188 c 0
 270.391601562 253.375 255.034179688 211.126953125 193.161132812 159.543945312 c 0
EndSplineSet
Validated: 524329
EndChar

StartChar: uniE1C2
Encoding: 57794 57794 102
Width: 1000
Flags: W
LayerCount: 2
Fore
SplineSet
83.6298828125 497.592773438 m 2
 61.845703125 471.68359375 80.427734375 431.875 114.2578125 431.875 c 0
 126.544921875 431.875 137.545898438 437.426757812 144.885742188 446.157226562 c 2
 236.07421875 554.615234375 l 1
 236.07421875 -90.546875 l 2
 236.07421875 -127.767578125 283.116210938 -144.817382812 306.924804688 -115.997070312 c 2
 930.538085938 638.885742188 l 2
 951.991210938 664.854492188 933.362304688 704.3359375 899.6875 704.3359375 c 0
 887.275390625 704.3359375 876.17578125 698.669921875 868.836914062 689.786132812 c 2
 316.07421875 20.66796875 l 1
 316.07421875 664.3359375 l 2
 316.07421875 701.388671875 269.393554688 718.536132812 245.446289062 690.053710938 c 2
 83.6298828125 497.592773438 l 2
EndSplineSet
Validated: 524329
EndChar

StartChar: uniE1C3
Encoding: 57795 57795 103
Width: 1000
Flags: W
HStem: 84.3438 80<611.003 683.458>
VStem: 698.477 77.7236<253.301 342.184> 713.865 80<491.018 616.049>
LayerCount: 2
Fore
SplineSet
399.423828125 308.54296875 m 1xa0
 566.962890625 249.599609375 793.865234375 395.48828125 793.865234375 557.0625 c 0
 793.865234375 606.375976562 772.174804688 684.895507812 653.80078125 746.2578125 c 0
 384.887695312 885.684570312 153.877929688 598.565429688 296.598632812 341.9296875 c 0
 334.66015625 273.491210938 348.205078125 204.908203125 348.205078125 141.5546875 c 0
 348.205078125 67.9521484375 329.521484375 0.9775390625 309.381835938 -47.2041015625 c 0
 304.879882812 -57.974609375 289.552734375 -93.1630859375 272.92578125 -114.6875 c 0
 239.276367188 -135.93359375 254.283203125 -188.544921875 294.404296875 -188.544921875 c 0
 313.041015625 -188.544921875 325.942382812 -178.306640625 340.760742188 -157.57421875 c 0
 384.479492188 -96.40625 474.291992188 100.649414062 399.423828125 308.54296875 c 1xa0
713.865234375 557.0625 m 0
 713.865234375 469.463867188 589.802734375 375.137695312 479.978515625 375.137695312 c 0
 430.46875 375.137695312 387.4453125 392.936523438 356.577148438 437.749023438 c 0
 352.239257812 444.047851562 346.143554688 449.043945312 339 452.026367188 c 0
 302.305664062 614.615234375 441.776367188 766.068359375 617.05859375 675.1875 c 0
 665.390625 650.133789062 713.865234375 611.44921875 713.865234375 557.0625 c 0
708.109375 251.950195312 m 0
 708.109375 201.646484375 673.669921875 164.34375 644.921875 164.34375 c 0
 614.211914062 164.34375 596.33203125 207.234375 588.4921875 237.758789062 c 0
 584.059570312 255.020507812 568.3828125 267.79296875 549.74609375 267.79296875 c 0
 523.60546875 267.79296875 504.521484375 243.05078125 511 217.827148438 c 0
 520.555664062 180.620117188 534.961914062 150.734375 554.474609375 128.114257812 c 0
 579.08203125 99.5859375 611.725585938 84.34375 644.921875 84.34375 c 0
 737.8515625 84.34375 819.532226562 197.366210938 776.200195312 319.887695312 c 0
 770.706054688 335.421875 755.881835938 346.5625 738.4765625 346.5625 c 0
 716.400390625 346.5625 698.4765625 328.638671875 698.4765625 306.5625 c 0xc0
 698.4765625 292.318359375 708.109375 281.038085938 708.109375 251.950195312 c 0
EndSplineSet
Validated: 524329
EndChar

StartChar: uniE1C4
Encoding: 57796 57796 104
Width: 1000
Flags: W
HStem: 263.689 80<421.575 599.231>
VStem: 286.354 80<392.906 533.112>
LayerCount: 2
Fore
SplineSet
71.9921875 -109.4921875 m 0
 71.9921875 -139.288085938 103.575195312 -158.557617188 129.983398438 -145.221679688 c 2
 949.690429688 268.723632812 l 2
 962.741210938 275.314453125 971.69921875 288.845703125 971.69921875 304.453125 c 0
 971.69921875 334.249023438 940.116210938 353.518554688 913.708007812 340.182617188 c 2
 94.0009765625 -73.7626953125 l 2
 80.9501953125 -80.353515625 71.9921875 -93.884765625 71.9921875 -109.4921875 c 0
111.983398438 -109.500976562 m 1
 931.701171875 304.462890625 l 1025
507.69140625 343.689453125 m 0
 432.662109375 343.689453125 366.354492188 384.209960938 366.354492188 452.4375 c 0
 366.354492188 474.05078125 372.500976562 499.794921875 384.008789062 525.857421875 c 0
 398.375976562 558.396484375 420.762695312 590.977539062 445.9375 617.205078125 c 0
 451.166992188 622.653320312 509.081054688 681.83203125 551.881835938 676.063476562 c 0
 571.607421875 673.408203125 598.05078125 656.19921875 621.231445312 624.338867188 c 0
 664.915039062 564.299804688 688.736328125 464.313476562 649.478515625 407.534179688 c 0
 622.541015625 368.583984375 566.129882812 343.689453125 507.69140625 343.689453125 c 0
715.326171875 362.114257812 m 0
 810.419921875 499.651367188 691.209960938 756.404296875 546.580078125 756.404296875 c 0
 429.740234375 756.404296875 286.354492188 589.053710938 286.354492188 452.4375 c 0
 286.354492188 340.338867188 385.21484375 263.689453125 507.69140625 263.689453125 c 0
 585.791992188 263.689453125 668.693359375 294.685546875 715.326171875 362.114257812 c 0
909.745117188 -156.263671875 m 2
 936.173828125 -169.918945312 968.06640625 -150.657226562 968.06640625 -120.703125 c 0
 968.06640625 -105.227539062 959.258789062 -91.79296875 946.387695312 -85.142578125 c 2
 158.516601562 321.947265625 l 2
 132.087890625 335.602539062 100.1953125 316.340820312 100.1953125 286.38671875 c 0
 100.1953125 270.911132812 109.002929688 257.4765625 121.874023438 250.826171875 c 2
 909.745117188 -156.263671875 l 2
928.06640625 -120.704101562 m 1
 140.198242188 286.390625 l 1025
EndSplineSet
Validated: 524331
EndChar

StartChar: uniE1C5
Encoding: 57797 57797 105
Width: 1000
Flags: W
HStem: 264.735 80<188.041 361.225>
VStem: 402.164 80<80.2626 224.846> 902.599 80<480.716 616.612>
LayerCount: 2
Fore
SplineSet
592.735351562 293.333007812 m 1
 766.616210938 228.022460938 982.598632812 384.754882812 982.598632812 552.396484375 c 0
 982.598632812 610.610351562 955.578125 692.069335938 840.12890625 751.921875 c 0
 571.215820312 891.348632812 340.206054688 604.229492188 482.926757812 347.59375 c 0
 520.98828125 279.155273438 534.533203125 210.572265625 534.533203125 147.21875 c 0
 534.533203125 73.6162109375 515.849609375 6.6416015625 495.709960938 -41.5400390625 c 0
 491.208007812 -52.310546875 475.880859375 -87.4990234375 459.25390625 -109.0234375 c 0
 425.604492188 -130.26953125 440.611328125 -182.880859375 480.732421875 -182.880859375 c 0
 499.369140625 -182.880859375 512.270507812 -172.642578125 527.088867188 -151.91015625 c 0
 569.047851562 -93.2041015625 654.751953125 92.8271484375 592.735351562 293.333007812 c 1
902.598632812 552.396484375 m 0
 902.598632812 438.899414062 733.926757812 315.873046875 610.876953125 372.401367188 c 0
 584.490234375 384.5234375 559.459960938 404.922851562 537.401367188 438.181640625 c 0
 534.768554688 442.151367188 531.4453125 445.625976562 527.604492188 448.431640625 c 0
 483.365234375 614.677734375 624.916992188 773.385742188 803.38671875 680.8515625 c 0
 853.228515625 655.012695312 902.598632812 613.895507812 902.598632812 552.396484375 c 0
276.041015625 344.735351562 m 0
 114.216796875 344.735351562 -32.345703125 211.165039062 83.4794921875 12.3671875 c 0
 90.4130859375 0.466796875 103.3125 -7.5390625 118.06640625 -7.5390625 c 0
 148.884765625 -7.5390625 168.083007812 26.072265625 152.653320312 52.5546875 c 0
 62.6611328125 207.014648438 191.544921875 264.735351562 276.041015625 264.735351562 c 0
 315.428710938 264.735351562 402.1640625 250.706054688 402.1640625 165.401367188 c 0
 402.1640625 137.623046875 392.680664062 99.51171875 366.095703125 51.390625 c 0
 351.471679688 24.9208984375 370.705078125 -7.91015625 401.1328125 -7.91015625 c 0
 416.212890625 -7.91015625 429.354492188 0.4521484375 436.169921875 12.7890625 c 0
 467.28125 69.1015625 482.1640625 119.643554688 482.1640625 165.401367188 c 0
 482.1640625 277.162109375 390.73828125 344.735351562 276.041015625 344.735351562 c 0
EndSplineSet
Validated: 524329
EndChar

StartChar: uniE1C6
Encoding: 57798 57798 106
Width: 1000
Flags: W
HStem: 211.018 79.998<231.41 759.924 760.281 791.893>
VStem: 458.516 79.9785<-164.044 -130.012>
LayerCount: 2
Fore
SplineSet
329.17578125 551.611328125 m 2
 305.837890625 526.028320312 324.1640625 484.66796875 358.73046875 484.66796875 c 0
 370.432617188 484.66796875 380.967773438 489.704101562 388.28515625 497.724609375 c 2
 482.203125 600.672851562 l 1
 482.203125 600.672851562 458.537109375 -127.37109375 458.515625 -128.69140625 c 0
 458.515625 -150.767578125 476.439453125 -168.69140625 498.515625 -168.69140625 c 0
 520.150390625 -168.69140625 537.796875 -151.478515625 538.494140625 -130.01171875 c 2
 538.494140625 -130.01171875 565.681640625 706.375 565.703125 707.6953125 c 0
 565.703125 743.97265625 520.69140625 761.541015625 496.1484375 734.638671875 c 2
 329.17578125 551.611328125 l 2
227.03125 251.015625 m 0
 227.03125 229.084960938 244.71875 211.252929688 266.59375 211.017578125 c 0
 759.625 205.72265625 759.625 205.72265625 759.84375 205.72265625 c 0
 781.919921875 205.72265625 799.84375 223.646484375 799.84375 245.72265625 c 0
 799.84375 267.653320312 782.15625 285.485351562 760.28125 285.720703125 c 2
 760.28125 285.720703125 267.46875 291.013671875 267.03125 291.015625 c 0
 244.955078125 291.015625 227.03125 273.091796875 227.03125 251.015625 c 0
EndSplineSet
Validated: 524325
EndChar

StartChar: uniE1C7
Encoding: 57799 57799 107
Width: 1000
Flags: W
HStem: -95.2617 80<278.885 432.294> 633.238 80<341.468 673.859>
VStem: 79.5508 80<427.761 519.04> 162.891 80<18.0321 143.356> 616.997 79.917<-90.8023 -29.1136> 873.48 79.9141<321.924 478.437>
LayerCount: 2
Fore
SplineSet
509.880859375 633.23828125 m 0
 667.901367188 633.23828125 882.66015625 574.342773438 873.48046875 375.249023438 c 0
 871.348632812 329.036132812 839.416015625 302.34765625 782.704101562 259.833007812 c 0
 705.541992188 201.98828125 605.12109375 126.693359375 616.997070312 -57.8759765625 c 0
 618.33984375 -78.7412109375 635.711914062 -95.2734375 656.9140625 -95.2734375 c 0
 678.990234375 -95.2734375 696.9140625 -77.349609375 696.9140625 -55.2734375 c 0
 696.9140625 -55.005859375 696.034179688 -40.375 696.034179688 -28.5576171875 c 0
 696.034179688 91.91796875 757.3515625 140.85546875 830.623046875 195.784179688 c 0
 882.93359375 234.999023438 949.263671875 281.97265625 953.39453125 371.508789062 c 0
 963.83984375 598.065429688 754.952148438 713.23828125 509.880859375 713.23828125 c 0
 290.389648438 713.23828125 79.55078125 619.950195312 79.55078125 463.336914062 c 0
 79.5732421875 441.279296875 97.48828125 423.37890625 119.55078125 423.37890625 c 0
 141.626953125 423.37890625 159.55078125 441.302734375 159.55078125 463.512695312 c 0
 159.55078125 562.33984375 331.79296875 633.23828125 509.880859375 633.23828125 c 0
353.80078125 -15.26171875 m 0
 295.109375 -15.26171875 242.890625 16.14453125 242.890625 70.0390625 c 0
 242.890625 87.185546875 247.76171875 108.139648438 257.0859375 129.517578125 c 0
 288.844726562 202.327148438 357.634765625 256.560546875 389.618164062 252.203125 c 0
 403.208007812 250.348632812 423.97265625 237.428710938 442.72265625 211.340820312 c 0
 477.723632812 162.643554688 497.094726562 80.9091796875 466.147460938 35.6103515625 c 0
 445.283203125 5.0703125 400.630859375 -15.26171875 353.80078125 -15.26171875 c 0
561.685546875 94.013671875 m 0
 561.685546875 206.62890625 481.548828125 332.42578125 386.176757812 332.42578125 c 0
 284.500976562 332.42578125 162.890625 188.013671875 162.890625 70.0390625 c 0
 162.890625 -28.05859375 248.387695312 -95.26171875 353.80078125 -95.26171875 c 0
 448.733398438 -95.26171875 561.685546875 -39.3095703125 561.685546875 94.013671875 c 0
EndSplineSet
Validated: 524329
EndChar

StartChar: uniE1C8
Encoding: 57800 57800 108
Width: 1000
Flags: W
HStem: 186.549 80<446.705 603.095>
VStem: 332.485 80<296.961 417.726>
LayerCount: 2
Fore
SplineSet
167.1171875 142.951171875 m 0
 140.750976562 161.334960938 104.27734375 142.34375 104.27734375 110.1171875 c 0
 104.27734375 96.5283203125 111.068359375 84.513671875 121.4375 77.283203125 c 0
 361.830078125 -90.328125 627.568359375 -128.271484375 898.314453125 99.931640625 c 0
 926.749023438 123.8984375 909.587890625 170.52734375 872.55859375 170.52734375 c 0
 862.750976562 170.52734375 853.763671875 166.990234375 846.802734375 161.123046875 c 0
 647.018554688 -7.2685546875 427.606445312 -38.6728515625 167.1171875 142.951171875 c 0
521.786132812 266.548828125 m 0
 464.923828125 266.548828125 412.485351562 295.6640625 412.485351562 346.34375 c 0
 412.485351562 362.16796875 417.168945312 381.834960938 426.291015625 402.041992188 c 0
 457.380859375 470.909179688 525.165039062 522.962890625 557.352539062 518.72265625 c 0
 571.123046875 516.909179688 591.494140625 504.515625 609.8203125 479.879882812 c 0
 643.689453125 434.3515625 663.000976562 357.427734375 632.963867188 314.952148438 c 0
 612.711914062 286.306640625 568.448242188 266.548828125 521.786132812 266.548828125 c 0
727.900390625 369.27734375 m 0
 727.900390625 478.348632812 647.795898438 598.943359375 553.826171875 598.943359375 c 0
 453.618164062 598.943359375 332.485351562 460.619140625 332.485351562 346.34375 c 0
 332.485351562 252.2265625 416.043945312 186.548828125 521.786132812 186.548828125 c 0
 617.760742188 186.548828125 727.900390625 241.810546875 727.900390625 369.27734375 c 0
464.150390625 407.291015625 m 2
 488.390625 379.555664062 534.27734375 396.909179688 534.27734375 433.59375 c 0
 534.27734375 443.66015625 530.55078125 452.862304688 524.404296875 459.896484375 c 2
 377.216796875 628.314453125 l 2
 352.9765625 656.049804688 307.08984375 638.696289062 307.08984375 602.01171875 c 0
 307.08984375 591.9453125 310.81640625 582.743164062 316.962890625 575.708984375 c 2
 464.150390625 407.291015625 l 2
EndSplineSet
Validated: 524325
EndChar

StartChar: uniE1CE
Encoding: 57806 57806 109
Width: 1000
Flags: W
HStem: 205.248 81.2783<109.417 140.081 496.517 527.197 865.697 896.369>
VStem: 142.116 80.002<287.322 328.737> 529.228 80.001<289.764 332.201> 898.407 80.001<282.831 325.282>
LayerCount: 2
Fore
SplineSet
222.118164062 286.337890625 m 0
 222.118164062 343.4296875 168.939453125 422.65234375 107.868164062 415.991210938 c 0
 39.1015625 408.458007812 7.390625 306.338867188 40.896484375 251.766601562 c 0
 59.0029296875 222.245117188 96.1484375 205.248046875 133.23828125 205.248046875 c 0
 182.35546875 205.248046875 222.118164062 236.15234375 222.118164062 286.337890625 c 0
142.116210938 286.526367188 m 0
 133.901367188 283.045898438 114.786132812 286.956054688 109.142578125 293.506835938 c 0
 105.841796875 300.50390625 107.698242188 321.971679688 116.301757812 333.979492188 c 1
 132.053710938 321.31640625 141.942382812 298.073242188 142.116210938 286.526367188 c 0
502.235351562 418.806640625 m 0
 450.982421875 418.806640625 414.678710938 363.889648438 414.678710938 306.212890625 c 0
 414.678710938 227.763671875 483.330078125 207.686523438 520.365234375 207.686523438 c 0
 569.403320312 207.686523438 609.228515625 238.524414062 609.228515625 288.766601562 c 0
 609.228515625 343.55859375 560.247070312 418.806640625 502.235351562 418.806640625 c 0
529.227539062 288.95703125 m 0
 521.015625 285.491210938 501.903320312 289.389648438 496.2421875 295.96484375 c 0
 492.9609375 302.9296875 494.798828125 324.404296875 503.412109375 336.415039062 c 1
 519.157226562 323.765625 529.051757812 300.521484375 529.227539062 288.95703125 c 0
871.40234375 411.891601562 m 0
 820.212890625 411.891601562 783.858398438 357.009765625 783.858398438 299.279296875 c 0
 783.858398438 220.829101562 852.509765625 200.752929688 889.544921875 200.752929688 c 0
 938.5234375 200.752929688 978.408203125 231.545898438 978.408203125 281.83984375 c 0
 978.408203125 336.646484375 929.4140625 411.891601562 871.40234375 411.891601562 c 0
898.407226562 282.0234375 m 0
 890.196289062 278.557617188 871.083007812 282.456054688 865.421875 289.03125 c 0
 862.140625 295.99609375 863.978515625 317.471679688 872.59375 329.491210938 c 1
 888.3515625 316.828125 898.237304688 293.571289062 898.407226562 282.0234375 c 0
EndSplineSet
Validated: 41
EndChar

StartChar: uniE1CF
Encoding: 57807 57807 110
Width: 1000
HStem: 194.902 80<578.07 723.555>
VStem: 142.462 79.999<-60.1299 729.762>
LayerCount: 2
Fore
SplineSet
938.235351562 -38.689453125 m 0
 999.287109375 90.658203125 839.693359375 274.90234375 613.69140625 274.90234375 c 0
 591.615234375 274.90234375 573.69140625 256.978515625 573.69140625 234.90234375 c 0
 573.69140625 212.858398438 591.561523438 194.956054688 613.592773438 194.90234375 c 0
 786.112304688 194.483398438 897.635742188 62.73828125 865.845703125 -4.6142578125 c 0
 861.397460938 -14.0380859375 854.01171875 -23.1591796875 840.852539062 -31.8359375 c 0
 809.59765625 -52.44921875 734.163085938 -76.9541015625 551.375976562 -76.9541015625 c 0
 448.0078125 -76.9541015625 339.559570312 -69.3203125 256.96875 -63.48046875 c 0
 242.780273438 -62.4765625 229.3515625 -61.5263671875 216.805664062 -60.6767578125 c 2
 216.805664062 -60.6767578125 222.459960938 693.834960938 222.4609375 694.140625 c 0
 222.4609375 716.216796875 204.537109375 734.140625 182.4609375 734.140625 c 0
 160.486328125 734.140625 142.625976562 716.381835938 142.461914062 694.446289062 c 0
 136.5234375 -98.08984375 136.5234375 -98.08984375 136.5234375 -98.2421875 c 0
 136.5234375 -119.579101562 153.265625 -137.036132812 174.319335938 -138.182617188 c 0
 195.232421875 -139.3203125 221.454101562 -141.171875 251.25390625 -143.279296875 c 0
 480.184570312 -159.467773438 766.809570312 -176.495117188 884.811523438 -98.671875 c 0
 908.708984375 -82.9130859375 927.094726562 -62.29296875 938.235351562 -38.689453125 c 0
EndSplineSet
Validated: 41
EndChar

